<?xml version="1.0" encoding="UTF-8"?>
<svg version="1.1" xmlns="http://www.w3.org/2000/svg" width="225" height="225">
<path d="M0 0 C74.25 0 148.5 0 225 0 C225 74.25 225 148.5 225 225 C150.75 225 76.5 225 0 225 C0 150.75 0 76.5 0 0 Z " fill="#437BC3" transform="translate(0,0)"/>
<path d="M0 0 C0.94875 0.268125 1.8975 0.53625 2.875 0.8125 C4.37483085 3.8121617 4.11402055 6.93196961 4.19140625 10.2265625 C4.21218735 10.95620209 4.23296844 11.68584167 4.25437927 12.43759155 C4.31981917 14.77079763 4.37873368 17.10411721 4.4375 19.4375 C4.48069053 21.01824095 4.52430499 22.59897039 4.56835938 24.1796875 C4.67549481 28.05717504 4.77677782 31.93477685 4.875 35.8125 C5.52726562 35.235 6.17953125 34.6575 6.8515625 34.0625 C7.72554688 33.32 8.59953125 32.5775 9.5 31.8125 C10.35851562 31.07 11.21703125 30.3275 12.1015625 29.5625 C15.35405084 27.51022567 17.09712846 27.30455089 20.875 27.8125 C21.865 28.8025 21.865 28.8025 22.875 29.8125 C21.875 34.8125 21.875 34.8125 5.875 47.8125 C32.605 48.1425 59.335 48.4725 86.875 48.8125 C86.875 70.5925 86.875 92.3725 86.875 114.8125 C28.795 114.8125 -29.285 114.8125 -89.125 114.8125 C-89.125 93.0325 -89.125 71.2525 -89.125 48.8125 C-49.03 48.3175 -49.03 48.3175 -8.125 47.8125 C-13.405 43.5225 -18.685 39.2325 -24.125 34.8125 C-25.125 33.8125 -25.125 33.8125 -25.1875 31.25 C-25.166875 30.445625 -25.14625 29.64125 -25.125 28.8125 C-22.08867283 27.29433642 -20.53552601 27.31642349 -17.125 27.8125 C-13.8612614 29.84634689 -10.87022999 32.1160741 -8.125 34.8125 C-8.125 35.4725 -8.125 36.1325 -8.125 36.8125 C-7.465 36.8125 -6.805 36.8125 -6.125 36.8125 C-6.14071045 35.79824951 -6.1564209 34.78399902 -6.17260742 33.73901367 C-6.22690319 29.97639913 -6.26134851 26.21381922 -6.28979492 22.45092773 C-6.30488243 20.82228777 -6.32535506 19.19368844 -6.35131836 17.56518555 C-6.38770449 15.22434465 -6.4047262 12.88404081 -6.41796875 10.54296875 C-6.43345261 9.81474411 -6.44893646 9.08651947 -6.46488953 8.33622742 C-6.46587255 5.38410849 -6.46079564 3.31882704 -4.80200195 0.81762695 C-3.125 -0.1875 -3.125 -0.1875 0 0 Z " fill="#E10202" transform="translate(116.125,91.1875)"/>
<path d="M0 0 C58.41 0 116.82 0 177 0 C177 21.78 177 43.56 177 66 C149.28 66 121.56 66 93 66 C92.67 64.68 92.34 63.36 92 62 C89.12586875 61.66602213 89.12586875 61.66602213 86 62 C85.60342697 62.65579041 85.20685394 63.31158081 84.79826355 63.98724365 C83 66 83 66 79.48823547 66.48101807 C78.00560299 66.49262305 76.52269941 66.4819574 75.0402832 66.45410156 C74.23029877 66.45468567 73.42031433 66.45526978 72.58578491 66.45587158 C69.90701523 66.45308359 67.22935666 66.42195876 64.55078125 66.390625 C62.69419462 66.38316513 60.83760012 66.377471 58.98100281 66.37347412 C54.09323405 66.35819774 49.20594036 66.31889872 44.31835938 66.2746582 C38.45473804 66.2265567 32.59095789 66.20818103 26.72719574 66.18484497 C17.81780003 66.14604885 8.9094468 66.06940924 0 66 C0 44.22 0 22.44 0 0 Z " fill="#04679D" transform="translate(27,30)"/>
<path d="M0 0 C21.46153846 0 21.46153846 0 27.875 5.4375 C31.9467836 10.34759199 32.44212506 14.01427218 32.31640625 20.30859375 C31.71977021 25.38368302 29.09820164 28.00893998 25.4375 31.3125 C21.98830444 33.70040462 19.42128695 34.12370246 15.33203125 34.09765625 C14.52741455 34.09515869 13.72279785 34.09266113 12.89379883 34.09008789 C11.36855591 34.07643188 11.36855591 34.07643188 9.8125 34.0625 C4.9553125 34.0315625 4.9553125 34.0315625 0 34 C0 22.78 0 11.56 0 0 Z " fill="#FDF7F7" transform="translate(104,155)"/>
<path d="M0 0 C1.423125 0.4021875 1.423125 0.4021875 2.875 0.8125 C4.37483085 3.8121617 4.11402055 6.93196961 4.19140625 10.2265625 C4.21218735 10.95620209 4.23296844 11.68584167 4.25437927 12.43759155 C4.31981917 14.77079763 4.37873368 17.10411721 4.4375 19.4375 C4.48069053 21.01824095 4.52430499 22.59897039 4.56835938 24.1796875 C4.67549481 28.05717504 4.77677782 31.93477685 4.875 35.8125 C5.52726562 35.235 6.17953125 34.6575 6.8515625 34.0625 C7.72554687 33.32 8.59953125 32.5775 9.5 31.8125 C10.35851562 31.07 11.21703125 30.3275 12.1015625 29.5625 C15.35405084 27.51022567 17.09712846 27.30455089 20.875 27.8125 C21.535 28.4725 22.195 29.1325 22.875 29.8125 C22.69625359 32.82038106 22.26870968 34.37168936 20.24853516 36.63354492 C19.56065918 37.18115479 18.8727832 37.72876465 18.1640625 38.29296875 C17.03871094 39.20272461 17.03871094 39.20272461 15.890625 40.13085938 C15.10171875 40.74767578 14.3128125 41.36449219 13.5 42 C12.71882813 42.62841797 11.93765625 43.25683594 11.1328125 43.90429688 C2.50901041 50.80776858 2.50901041 50.80776858 -1.265625 50.8359375 C-6.45271211 49.4604144 -9.75134756 46.77672292 -13.875 43.4375 C-14.62910156 42.84710938 -15.38320312 42.25671875 -16.16015625 41.6484375 C-23.03390965 36.22757336 -23.03390965 36.22757336 -25.125 33.8125 C-25.3125 31.125 -25.3125 31.125 -25.125 28.8125 C-22.08867283 27.29433642 -20.53552601 27.31642349 -17.125 27.8125 C-13.8612614 29.84634689 -10.87022999 32.1160741 -8.125 34.8125 C-8.125 35.4725 -8.125 36.1325 -8.125 36.8125 C-7.465 36.8125 -6.805 36.8125 -6.125 36.8125 C-6.14071045 35.79824951 -6.1564209 34.78399902 -6.17260742 33.73901367 C-6.22690319 29.97639913 -6.26134851 26.21381922 -6.28979492 22.45092773 C-6.30488243 20.82228777 -6.32535506 19.19368844 -6.35131836 17.56518555 C-6.38770449 15.22434465 -6.4047262 12.88404081 -6.41796875 10.54296875 C-6.43345261 9.81474411 -6.44893646 9.08651947 -6.46488953 8.33622742 C-6.46587255 5.38410849 -6.46079564 3.31882704 -4.80200195 0.81762695 C-3.125 -0.1875 -3.125 -0.1875 0 0 Z " fill="#94C908" transform="translate(116.125,91.1875)"/>
<path d="M0 0 C3.01125 -0.061875 6.0225 -0.12375 9.125 -0.1875 C10.06230957 -0.21481201 10.99961914 -0.24212402 11.96533203 -0.27026367 C17.97163982 -0.32975107 22.19393308 0.56807534 26.875 4.625 C28.65052846 8.37333785 28.65320181 11.9356332 28 16 C26.25949336 19.02977081 24.82295623 20.4917035 21.875 22.3125 C17.54610767 23.34766991 13.44533311 23.11854222 9 23 C9 26.63 9 30.26 9 34 C6.03 34 3.06 34 0 34 C0 22.78 0 11.56 0 0 Z " fill="#FDF2F2" transform="translate(70,155)"/>
<path d="M0 0 C3.5625 1.0625 3.5625 1.0625 5.9375 3.8125 C9.50698206 10.95146412 9.91788586 20.13254727 7.80859375 27.8046875 C6.19031819 31.6758565 4.60592947 35.34710568 0.5625 37.0625 C-1.9375 37.125 -1.9375 37.125 -4.4375 36.0625 C-9.12329089 30.07510053 -9.64101045 25.51980344 -9.6875 18.25 C-9.708125 17.45529297 -9.72875 16.66058594 -9.75 15.84179688 C-9.78929044 9.90402838 -8.43026611 6.15128747 -5.1875 1.125 C-3.4375 0.0625 -3.4375 0.0625 0 0 Z " fill="#F3F7FA" transform="translate(143.4375,43.9375)"/>
<path d="M0 0 C3.1875 0.5 3.1875 0.5 6 3.3125 C9.37791565 8.23460566 9.42978558 12.39715049 9.5 18.1875 C9.52900391 18.96544922 9.55800781 19.74339844 9.58789062 20.54492188 C9.64988309 26.26253497 8.55413364 30.79211203 5.1875 35.5 C2.1875 37.5 2.1875 37.5 -0.25 37.4375 C-3.70574358 36.17320357 -4.83199129 34.57320317 -6.8125 31.5 C-9.66566374 24.30061909 -10.16423269 16.13542297 -7.984375 8.66015625 C-4.57611676 0.81353187 -4.57611676 0.81353187 0 0 Z " fill="#F3F7FA" transform="translate(70.8125,43.5)"/>
<path d="M0 0 C11 0 11 0 13.5625 1.625 C17.78890314 8.60775302 17.73483826 16.07614167 17 24 C15.62618453 28.92001895 14.29666268 32.13555821 10 35 C6.7 35 3.4 35 0 35 C0 23.45 0 11.9 0 0 Z " fill="#F7FAFC" transform="translate(115,45)"/>
<path d="M0 0 C11 0 11 0 14.1875 2.9375 C17.48320563 9.62478634 17.54552632 19.87981274 15.40234375 26.97998047 C14.02150823 30.4221287 12.65935418 32.34064582 10 35 C6.7 35 3.4 35 0 35 C0 23.45 0 11.9 0 0 Z " fill="#F9FBFC" transform="translate(44,45)"/>
<path d="M0 0 C7.92 0 15.84 0 24 0 C24 2.31 24 4.62 24 7 C19.05 7 14.1 7 9 7 C9 9.31 9 11.62 9 14 C13.62 14 18.24 14 23 14 C23 15.98 23 17.96 23 20 C18.38 20 13.76 20 9 20 C9 24.62 9 29.24 9 34 C6.03 34 3.06 34 0 34 C0 22.78 0 11.56 0 0 Z " fill="#FDF2F2" transform="translate(142,155)"/>
<path d="M0 0 C13.2 0 26.4 0 40 0 C36.87037281 1.56481359 34.61107561 2.42137231 31.3125 3.25 C20.31512587 6.46162253 12.03461405 14.46729923 6 24 C3.4802136 29.15918292 1.60454823 34.25679181 1 40 C0.67 40 0.34 40 0 40 C0 26.8 0 13.6 0 0 Z " fill="#414244" transform="translate(0,0)"/>
<path d="M0 0 C0.33 0 0.66 0 1 0 C1 12.87 1 25.74 1 39 C-11.87 39 -24.74 39 -38 39 C-38 38.67 -38 38.34 -38 38 C-36.9275 37.79375 -35.855 37.5875 -34.75 37.375 C-23.17282721 34.439653 -13.00696747 28.19767366 -6.6875 18 C-3.41687097 12.13419794 -0.82391261 6.75608338 0 0 Z " fill="#414244" transform="translate(224,186)"/>
<path d="M0 0 C0.33 0 0.66 0 1 0 C1.20625 1.0725 1.4125 2.145 1.625 3.25 C4.560347 14.82717279 10.80232634 24.99303253 21 31.3125 C26.86580206 34.58312903 32.24391662 37.17608739 39 38 C39 38.33 39 38.66 39 39 C26.13 39 13.26 39 0 39 C0 26.13 0 13.26 0 0 Z " fill="#414244" transform="translate(0,186)"/>
<path d="M0 0 C12.87 0 25.74 0 39 0 C39 12.87 39 25.74 39 39 C38.67 39 38.34 39 38 39 C37.79375 37.741875 37.5875 36.48375 37.375 35.1875 C35.11181472 25.12186478 29.03350275 15.28184066 20.578125 9.28125 C14.04521407 5.24272325 7.71098059 1.94036349 0 1 C0 0.67 0 0.34 0 0 Z " fill="#414244" transform="translate(186,0)"/>
<path d="M0 0 C2.31 0 4.62 0 7 0 C7.66 1.98 8.32 3.96 9 6 C9.99 4.02 10.98 2.04 12 0 C13.65 0 15.3 0 17 0 C16.79503906 0.71285156 16.59007812 1.42570312 16.37890625 2.16015625 C16.10949219 3.11792969 15.84007812 4.07570313 15.5625 5.0625 C15.29566406 6.00222656 15.02882812 6.94195312 14.75390625 7.91015625 C13.10855968 14.65351964 12.82276925 18.70254413 15.4375 25.25 C18 31.75749319 18 31.75749319 18 35 C15.69 35 13.38 35 11 35 C10.01 31.7 9.02 28.4 8 25 C7.01 28.3 6.02 31.6 5 35 C3.02 35 1.04 35 -1 35 C-0.54287762 33.45797384 -0.08423653 31.91639786 0.375 30.375 C0.64570313 29.4571875 0.91640625 28.539375 1.1953125 27.59375 C2 25 2 25 3.25 21.875 C5.13557629 14.64695756 2.03055477 6.94730687 0 0 Z " fill="#F3F7FA" transform="translate(171,45)"/>
<path d="M0 0 C3.43014809 4.53664747 3.28143835 8.55885858 3 14 C1.35 14 -0.3 14 -2 14 C-2.66 12.02 -3.32 10.04 -4 8 C-4.99 8.495 -4.99 8.495 -6 9 C-6 14.94 -6 20.88 -6 27 C-5.01 26.67 -4.02 26.34 -3 26 C-2.26676204 23.98491642 -2.26676204 23.98491642 -2 22 C-0.35 22 1.3 22 3 22 C2.88366554 26.85431964 2.64609996 30.10263895 -0.25 34.125 C-3 36 -3 36 -5.5625 36.1875 C-8.98872431 34.5183138 -10.16318178 32.28003253 -12 29 C-13.29856962 25.10429113 -13.26324136 21.37469608 -13.3125 17.3125 C-13.34150391 16.53455078 -13.37050781 15.75660156 -13.40039062 14.95507812 C-13.46259898 9.21755396 -12.31457784 4.75682789 -9 0 C-5.74489197 -1.62755402 -3.43821049 -0.90479223 0 0 Z " fill="#F4F8FA" transform="translate(95,45)"/>
<path d="M0 0 C3.0625 0.5 3.0625 0.5 5.375 2.4375 C7.54144236 6.36919168 8.10872151 10.02575775 8.0625 14.5 C7.0625 15.5 7.0625 15.5 4.5 15.5625 C3.695625 15.541875 2.89125 15.52125 2.0625 15.5 C1.7325 13.52 1.4025 11.54 1.0625 9.5 C0.4025 9.5 -0.2575 9.5 -0.9375 9.5 C-2.06339491 12.87768474 -2.07044275 15.50812072 -2.0625 19.0625 C-2.06507813 20.21878906 -2.06765625 21.37507813 -2.0703125 22.56640625 C-2.13952616 25.43453438 -2.13952616 25.43453438 -0.9375 27.5 C-0.2775 27.5 0.3825 27.5 1.0625 27.5 C1.7225 26.18 2.3825 24.86 3.0625 23.5 C4.7125 23.5 6.3625 23.5 8.0625 23.5 C7.76687364 27.86048883 7.52773117 30.67292236 5.375 34.5 C3.0625 36.5 3.0625 36.5 0.0625 37.125 C-2.9375 36.5 -2.9375 36.5 -5.1875 34.375 C-9.84891805 26.71695606 -10.28215209 17.58777419 -8.3671875 8.91796875 C-6.69786284 4.18235826 -5.09400712 0.86706504 0 0 Z " fill="#F3F7FA" transform="translate(161.9375,43.5)"/>
<path d="M0 0 C8.25 0 8.25 0 12 3 C14.57189679 6.42919572 14.502142 9.83939486 14 14 C12.21523759 16.97239241 10.14791945 19.42604027 7 21 C4.69 21 2.38 21 0 21 C0 14.07 0 7.14 0 0 Z " fill="#E20707" transform="translate(113,162)"/>
<path d="M0 0 C0.99 0 1.98 0 3 0 C1.69210069 7.46879344 -0.27304276 14.66294149 -2.40283203 21.93457031 C-3.55095853 25.90560472 -4.64751076 29.89110305 -5.75 33.875 C-5.97276611 34.67873047 -6.19553223 35.48246094 -6.42504883 36.31054688 C-6.95050695 38.20689986 -7.47532533 40.1034301 -8 42 C-9.98 42.495 -9.98 42.495 -12 43 C-8.6219088 28.48754242 -4.30078164 14.26081598 0 0 Z " fill="#DBE7EF" transform="translate(109,45)"/>
<path d="M0 0 C0.66 0 1.32 0 2 0 C3.65497356 3.30994713 3.10084335 6.99123 3.0625 10.625 C3.05798828 11.42679688 3.05347656 12.22859375 3.04882812 13.0546875 C3.03703168 15.03649006 3.01909605 17.01825433 3 19 C1.68 19.33 0.36 19.66 -1 20 C-2.16348868 16.50953395 -2.16834776 13.67722983 -2.1875 10 C-2.20167969 8.7625 -2.21585938 7.525 -2.23046875 6.25 C-2 3 -2 3 0 0 Z " fill="#0D689E" transform="translate(142,52)"/>
<path d="M0 0 C0.99 0.66 1.98 1.32 3 2 C3.25011518 4.56963575 3.32709594 6.87646927 3.25 9.4375 C3.24484375 10.11876953 3.2396875 10.80003906 3.234375 11.50195312 C3.18605024 14.58567684 2.98103119 17.05690642 2 20 C1.01 20 0.02 20 -1 20 C-2.57977708 16.84044583 -2.18447084 13.46536183 -2.1875 10 C-2.19974609 9.26265625 -2.21199219 8.5253125 -2.22460938 7.765625 C-2.22987395 5.84229942 -2.12203447 3.91945737 -2 2 C-1.34 1.34 -0.68 0.68 0 0 Z " fill="#09669D" transform="translate(71,52)"/>
<path d="M0 0 C4 1 4 1 5 2 C5.12602054 4.10131921 5.1757922 6.20743788 5.1875 8.3125 C5.20167969 9.46363281 5.21585938 10.61476563 5.23046875 11.80078125 C5.01267006 14.82412237 4.5831811 16.46565871 3 19 C2.01 19 1.02 19 0 19 C0 12.73 0 6.46 0 0 Z " fill="#347CAA" transform="translate(49,53)"/>
<path d="M0 0 C6.0546875 -0.1953125 6.0546875 -0.1953125 8 0 C10 2 10 2 10.25 4.5 C10 7 10 7 8 9 C5.31160615 9.26991906 2.70858064 9.08737357 0 9 C0 6.03 0 3.06 0 0 Z " fill="#E20808" transform="translate(79,162)"/>
<path d="M0 0 C1.32 0.33 2.64 0.66 4 1 C5.77909815 6.33729446 5.89989381 11.9547868 3.625 17.125 C3.08875 17.74375 2.5525 18.3625 2 19 C1.34 19 0.68 19 0 19 C0 12.73 0 6.46 0 0 Z " fill="#156BA0" transform="translate(121,53)"/>
<path d="M0 0 C0.99 0 1.98 0 3 0 C1.83795007 6.54849313 0.26616615 12.74538144 -2 19 C-2.66 19 -3.32 19 -4 19 C-3.46048934 12.31006781 -2.11293829 6.36539272 0 0 Z " fill="#E3EDF3" transform="translate(109,45)"/>
<path d="M0 0 C0.33 0 0.66 0 1 0 C1.05402274 2.10388569 1.09280256 4.20816714 1.125 6.3125 C1.14820313 7.48425781 1.17140625 8.65601563 1.1953125 9.86328125 C1 13 1 13 -1 16 C-2.04976964 12.85069107 -2.10131595 10.61185544 -2.0625 7.3125 C-2.05347656 6.31863281 -2.04445312 5.32476562 -2.03515625 4.30078125 C-2.02355469 3.54152344 -2.01195312 2.78226563 -2 2 C-1.34 2 -0.68 2 0 2 C0 1.34 0 0.68 0 0 Z " fill="#0A689E" transform="translate(53,55)"/>
<path d="M0 0 C1.25541557 3.76624671 0.37061958 5.37188934 -1 9 C-1.66 9 -2.32 9 -3 9 C-2.25 2.25 -2.25 2.25 0 0 Z " fill="#F2F6F9" transform="translate(108,55)"/>
<path d="M0 0 C2.31 0 4.62 0 7 0 C7 0.33 7 0.66 7 1 C5.02 1 3.04 1 1 1 C1.33 2.32 1.66 3.64 2 5 C1.01 5.66 0.02 6.32 -1 7 C-0.67 4.69 -0.34 2.38 0 0 Z " fill="#3D81AD" transform="translate(170,44)"/>
</svg>
