<?xml version="1.0" standalone="no"?>
<!DOCTYPE svg PUBLIC "-//W3C//DTD SVG 20010904//EN"
 "http://www.w3.org/TR/2001/REC-SVG-20010904/DTD/svg10.dtd">
<svg version="1.0" xmlns="http://www.w3.org/2000/svg"
 width="225.000000pt" height="225.000000pt" viewBox="0 0 225.000000 225.000000"
 preserveAspectRatio="xMidYMid meet">

<g transform="translate(0.000000,225.000000) scale(0.100000,-0.100000)"
fill="#000000" stroke="none">
<path d="M0 1360 l0 -890 1125 0 1125 0 0 890 0 890 -1125 0 -1125 0 0 -890z
m1188 360 c138 -18 227 -80 278 -194 23 -50 28 -76 28 -146 2 -153 -57 -258
-178 -320 l-69 -35 -191 -3 -191 -4 3 356 2 356 123 0 c67 0 155 -5 195 -10z
m890 -62 l3 -68 -151 0 -150 0 0 -65 0 -65 135 0 135 0 0 -70 0 -70 -135 0
-135 0 0 -150 0 -150 -90 0 -90 0 0 348 c0 192 3 352 7 356 4 3 110 5 237 4
l231 -3 3 -67z m-1403 27 c72 -45 98 -98 93 -195 -4 -90 -26 -139 -80 -182
-56 -44 -101 -57 -195 -58 l-83 0 0 -115 0 -115 -90 0 -90 0 0 351 0 351 198
-4 199 -3 48 -30z"/>
<path d="M1050 1370 l0 -223 72 8 c133 13 194 88 186 229 -7 135 -60 192 -187
203 l-71 6 0 -223z"/>
<path d="M410 1485 l0 -105 38 0 c62 0 106 17 125 49 19 33 22 83 6 113 -14
27 -69 48 -124 48 l-45 0 0 -105z"/>
<path d="M281 329 c-37 -15 -50 -39 -51 -92 0 -38 5 -53 25 -72 37 -37 125
-33 125 5 0 16 -4 17 -29 7 -36 -13 -58 -5 -73 28 -14 31 -2 72 27 91 17 11
25 11 48 -1 26 -13 27 -13 27 9 0 18 -7 25 -31 30 -38 7 -38 7 -68 -5z"/>
<path d="M484 330 c-34 -14 -54 -50 -54 -98 0 -58 33 -92 88 -92 58 0 84 25
89 86 4 43 2 54 -18 77 -26 30 -72 42 -105 27z m70 -46 c11 -29 6 -91 -9 -104
-40 -33 -85 25 -65 85 10 29 16 35 40 35 16 0 30 -7 34 -16z"/>
<path d="M670 235 c0 -88 1 -95 20 -95 18 0 20 7 20 68 l1 67 37 -67 c29 -53
42 -68 60 -68 21 0 22 3 22 95 0 87 -2 95 -19 95 -17 0 -20 -8 -23 -52 l-3
-53 -30 52 c-25 44 -35 53 -57 53 l-28 0 0 -95z"/>
<path d="M880 323 c0 -4 13 -46 29 -93 25 -72 33 -85 53 -88 22 -3 27 5 53 80
15 46 30 89 33 96 2 7 -5 12 -21 12 -20 0 -26 -6 -31 -32 -4 -18 -13 -46 -20
-63 l-13 -30 -20 60 c-15 46 -25 61 -41 63 -12 2 -22 0 -22 -5z"/>
<path d="M1100 235 l0 -95 65 0 c51 0 65 3 65 15 0 11 -11 15 -40 15 -38 0
-40 2 -40 30 0 28 3 30 35 30 24 0 35 5 35 15 0 10 -11 15 -35 15 -28 0 -35 4
-35 20 0 17 7 20 40 20 29 0 40 4 40 15 0 12 -14 15 -65 15 l-65 0 0 -95z"/>
<path d="M1290 235 c0 -88 1 -95 20 -95 16 0 20 7 20 35 0 46 20 46 51 0 15
-22 32 -35 47 -35 28 0 28 4 -4 46 -25 32 -26 36 -10 53 22 24 21 68 -3 81
-11 5 -42 10 -70 10 l-51 0 0 -95z m96 50 c8 -20 -13 -45 -37 -45 -14 0 -19 7
-19 30 0 25 4 30 25 30 14 0 28 -7 31 -15z"/>
<path d="M1490 316 c0 -9 12 -16 28 -18 29 -3 29 -3 31 -100 1 -51 3 -58 21
-58 18 0 20 7 20 80 0 79 0 80 25 80 16 0 25 6 25 15 0 12 -15 15 -75 15 -58
0 -75 -3 -75 -14z"/>
<path d="M1700 235 l0 -95 60 0 c47 0 60 3 60 15 0 11 -11 15 -40 15 -38 0
-40 2 -40 30 0 28 3 30 35 30 24 0 35 5 35 15 0 10 -11 15 -35 15 -28 0 -35 4
-35 20 0 17 7 20 40 20 29 0 40 4 40 15 0 12 -13 15 -60 15 l-60 0 0 -95z"/>
<path d="M1890 235 c0 -88 1 -95 20 -95 16 0 20 7 20 35 0 45 18 45 49 0 16
-24 31 -35 48 -35 26 0 24 9 -10 48 -20 22 -20 24 -4 51 35 60 12 91 -69 91
l-54 0 0 -95z m94 48 c5 -11 1 -22 -10 -30 -29 -21 -44 -15 -44 17 0 25 4 30
24 30 13 0 27 -8 30 -17z"/>
</g>
</svg>
