<?xml version="1.0" standalone="no"?>
<!DOCTYPE svg PUBLIC "-//W3C//DTD SVG 20010904//EN"
 "http://www.w3.org/TR/2001/REC-SVG-20010904/DTD/svg10.dtd">
<svg version="1.0" xmlns="http://www.w3.org/2000/svg"
 width="512.000000pt" height="451.000000pt" viewBox="0 0 512.000000 451.000000"
 preserveAspectRatio="xMidYMid meet">

<g transform="translate(0,500) scale(0.11000,-0.130000)"
fill="#ED3915" stroke="none">
<path d="M1530 2540 l0 -941 133 1 c72 1 142 1 155 1 22 -1 22 -3 22 -141 l0
-140 270 0 270 0 0 70 0 70 -195 0 -195 0 0 795 0 795 195 0 195 0 0 75 0 75
-270 0 -270 0 0 -725 0 -726 -82 3 -83 3 0 790 0 790 198 3 197 2 0 70 0 70
-270 0 -270 0 0 -940z"/>
<path d="M2590 3410 l0 -70 198 -2 197 -3 3 -67 3 -68 -46 0 -45 0 0 -75 0
-75 200 0 200 0 -2 -792 -3 -793 -197 -3 -198 -2 0 -70 0 -70 270 0 270 0 0
940 0 940 -155 0 -155 0 0 140 0 140 -270 0 -270 0 0 -70z"/>
<path d="M2230 2695 c0 -13 56 -15 445 -15 389 0 445 2 445 15 0 13 -56 15
-445 15 -389 0 -445 -2 -445 -15z"/>
<path d="M2210 2535 c0 -13 57 -15 455 -15 398 0 455 2 455 15 0 13 -57 15
-455 15 -398 0 -455 -2 -455 -15z"/>
<path d="M2210 2375 c0 -13 57 -15 455 -15 398 0 455 2 455 15 0 13 -57 15
-455 15 -398 0 -455 -2 -455 -15z"/>
<path d="M2210 2215 c0 -13 31 -15 220 -15 189 0 220 2 220 15 0 13 -31 15
-220 15 -189 0 -220 -2 -220 -15z"/>
<path d="M2690 2215 c0 -9 5 -15 11 -13 6 2 11 8 11 13 0 5 -5 11 -11 13 -6 2
-11 -4 -11 -13z"/>
<path d="M2760 2215 c0 -13 27 -15 180 -15 155 0 179 2 174 15 -5 13 -35 15
-180 15 -148 0 -174 -2 -174 -15z"/>
<path d="M2210 2055 c0 -13 57 -15 455 -15 398 0 455 2 455 15 0 13 -57 15
-455 15 -398 0 -455 -2 -455 -15z"/>
<path d="M2210 1895 c0 -13 57 -15 455 -15 398 0 455 2 455 15 0 13 -57 15
-455 15 -398 0 -455 -2 -455 -15z"/>
<path d="M2210 1735 c0 -13 44 -15 333 -15 290 0 334 2 334 15 0 13 -44 15
-334 15 -289 0 -333 -2 -333 -15z"/>
<path d="M2950 1735 c0 -8 7 -15 15 -15 8 0 15 7 15 15 0 8 -7 15 -15 15 -8 0
-15 -7 -15 -15z"/>
<path d="M3020 1735 c0 -8 7 -15 15 -15 8 0 15 7 15 15 0 8 -7 15 -15 15 -8 0
-15 -7 -15 -15z"/>
<path d="M3083 1735 c0 -8 6 -15 14 -15 7 0 13 7 13 15 0 8 -6 15 -13 15 -8 0
-14 -7 -14 -15z"/>
<path d="M670 805 l0 -115 61 0 c100 0 159 43 159 115 0 72 -59 115 -159 115
l-61 0 0 -115z m141 75 c10 -6 26 -24 34 -40 14 -26 14 -34 1 -64 -18 -43 -42
-56 -100 -56 l-46 0 0 85 0 85 46 0 c25 0 54 -5 65 -10z"/>
<path d="M2654 905 c-62 -32 -74 -122 -25 -177 27 -30 34 -33 89 -33 73 0 92
14 92 66 0 32 -4 39 -19 39 -16 0 -20 -8 -23 -37 -3 -33 -6 -38 -32 -41 -58
-7 -106 33 -106 89 0 11 13 34 29 50 31 30 67 37 102 19 11 -7 26 -7 35 -2 14
8 14 10 -1 22 -25 20 -105 23 -141 5z"/>
<path d="M2380 880 c0 -11 -7 -20 -15 -20 -8 0 -15 -4 -15 -9 0 -5 7 -11 15
-15 11 -4 15 -21 15 -60 0 -63 18 -89 58 -84 36 4 39 26 5 30 -27 3 -28 5 -28
58 0 49 2 55 23 58 28 4 29 22 1 22 -12 0 -23 8 -26 20 -3 11 -12 20 -19 20
-8 0 -14 -9 -14 -20z"/>
<path d="M3860 880 c0 -11 -7 -20 -15 -20 -8 0 -15 -4 -15 -10 0 -5 7 -10 15
-10 11 0 15 -13 15 -53 0 -65 20 -97 61 -97 19 0 29 5 29 15 0 9 -9 15 -25 15
-24 0 -25 3 -25 60 0 53 2 60 20 60 11 0 20 5 20 10 0 6 -9 10 -20 10 -13 0
-20 7 -20 20 0 13 -7 20 -20 20 -13 0 -20 -7 -20 -20z"/>
<path d="M952 837 c-52 -55 -12 -147 63 -147 42 0 95 44 95 80 0 29 -26 76
-45 84 -38 14 -91 6 -113 -17z m96 -13 c15 -10 22 -25 22 -48 0 -39 -15 -56
-51 -56 -55 0 -78 61 -39 100 24 24 38 25 68 4z"/>
<path d="M1179 847 c-67 -51 -30 -157 55 -157 43 0 76 24 59 41 -10 10 -16 10
-25 1 -32 -32 -88 -1 -88 48 0 43 39 67 80 50 35 -14 49 -8 30 15 -15 18 -88
20 -111 2z"/>
<path d="M1350 806 c0 -30 4 -66 10 -80 11 -31 52 -43 92 -28 16 6 30 6 34 1
3 -5 12 -9 20 -9 11 0 14 18 14 85 0 78 -2 85 -20 85 -18 0 -20 -7 -20 -58 0
-62 -11 -82 -44 -82 -37 0 -48 16 -53 79 -4 42 -10 61 -19 61 -10 0 -14 -15
-14 -54z"/>
<path d="M1580 773 c0 -67 3 -83 15 -83 11 0 15 12 15 44 0 85 31 121 76 91
21 -13 24 -23 24 -75 0 -47 3 -60 15 -60 11 0 15 13 15 53 0 76 35 111 79 81
17 -13 21 -25 21 -75 0 -46 3 -59 15 -59 24 0 21 131 -3 153 -21 20 -83 22
-100 5 -9 -9 -17 -9 -34 0 -13 6 -49 11 -80 10 l-58 -2 0 -83z"/>
<path d="M1953 845 c-45 -32 -37 -121 13 -144 31 -14 69 -14 95 0 30 16 13 28
-31 22 -41 -6 -70 8 -70 33 0 11 17 14 69 14 67 0 69 1 64 23 -3 12 -15 32
-26 45 -24 26 -81 30 -114 7z m91 -21 c27 -26 18 -34 -39 -34 -52 0 -55 1 -45
19 17 33 59 41 84 15z"/>
<path d="M2140 775 c0 -78 2 -85 20 -85 18 0 20 7 20 59 0 51 3 62 22 75 29
20 34 20 58 -4 15 -15 20 -33 20 -75 0 -42 3 -55 15 -55 24 0 21 131 -3 153
-21 19 -87 23 -98 6 -4 -8 -9 -8 -17 0 -29 29 -37 11 -37 -74z"/>
<path d="M2879 841 c-35 -28 -33 -95 4 -127 30 -25 75 -31 108 -14 34 19 21
30 -26 23 -47 -6 -75 6 -75 33 0 11 17 14 70 14 42 0 70 4 70 10 0 20 -29 68
-45 74 -32 12 -83 6 -106 -13z m92 -11 c38 -21 23 -40 -31 -40 -52 0 -60 8
-34 34 18 19 38 20 65 6z"/>
<path d="M3072 778 c3 -69 6 -83 21 -86 15 -3 17 5 17 57 0 51 3 62 22 75 50
35 78 8 78 -75 0 -46 3 -59 15 -59 24 0 21 138 -2 156 -22 16 -85 18 -100 3
-8 -8 -13 -8 -17 0 -4 6 -14 11 -22 11 -12 0 -15 -15 -12 -82z"/>
<path d="M3332 853 c-22 -9 -44 -63 -37 -94 12 -55 84 -86 136 -58 29 15 14
29 -25 22 -38 -6 -76 10 -76 32 0 12 15 15 71 15 61 0 70 2 65 16 -3 9 -6 20
-6 25 0 5 -9 18 -20 29 -19 19 -76 26 -108 13z m79 -23 c38 -21 23 -40 -31
-40 -37 0 -50 4 -50 15 0 28 47 43 81 25z"/>
<path d="M3520 785 c0 -41 0 -78 -1 -82 0 -5 7 -9 15 -11 13 -3 16 7 16 48 0
61 13 90 40 90 11 0 20 7 20 15 0 18 -31 20 -48 3 -9 -9 -12 -9 -12 0 0 7 -7
12 -15 12 -12 0 -15 -15 -15 -75z"/>
<path d="M3661 851 c-21 -14 -4 -33 19 -21 26 14 46 12 64 -6 25 -25 19 -34
-22 -34 -69 0 -104 -47 -64 -83 22 -20 72 -22 91 -4 11 10 14 10 18 0 12 -33
23 -6 23 56 0 50 -4 74 -16 85 -17 17 -90 22 -113 7z m99 -101 c0 -18 -26 -40
-47 -40 -5 0 -18 6 -28 14 -16 12 -17 16 -6 30 8 9 28 16 47 16 27 0 34 -4 34
-20z"/>
<path d="M4001 834 c-71 -90 49 -196 130 -115 60 60 23 141 -65 141 -36 0 -48
-5 -65 -26z m112 -25 c17 -24 18 -30 6 -55 -19 -39 -70 -46 -93 -12 -22 30
-20 54 5 79 26 26 57 21 82 -12z"/>
<path d="M4210 775 c0 -69 3 -85 15 -85 11 0 15 12 15 48 0 50 21 92 46 92 8
0 14 7 14 15 0 18 -21 20 -39 3 -11 -10 -14 -10 -18 0 -3 6 -11 12 -19 12 -11
0 -14 -18 -14 -85z"/>
</g>
</svg>
