<?xml version="1.0" encoding="UTF-8"?>
<svg version="1.1" xmlns="http://www.w3.org/2000/svg" width="239" height="211">
<path d="M0 0 C78.87 0 157.74 0 239 0 C239 69.63 239 139.26 239 211 C160.13 211 81.26 211 0 211 C0 141.37 0 71.74 0 0 Z " fill="#F6F2EE" transform="translate(0,0)"/>
<path d="M0 0 C8.58 0 17.16 0 26 0 C26 2.31 26 4.62 26 7 C19.73 7 13.46 7 7 7 C7 31.42 7 55.84 7 81 C9.64 81 12.28 81 15 81 C15 58.56 15 36.12 15 13 C23.25 13 31.5 13 40 13 C40 15.31 40 17.62 40 20 C34.06 20 28.12 20 22 20 C22 44.42 22 68.84 22 94 C27.94 94 33.88 94 40 94 C40 96.31 40 98.62 40 101 C31.75 101 23.5 101 15 101 C15 96.71 15 92.42 15 88 C10.05 88 5.1 88 0 88 C0 58.96 0 29.92 0 0 Z " fill="#D24949" transform="translate(71,48)"/>
<path d="M0 0 C8.25 0 16.5 0 25 0 C25 4.29 25 8.58 25 13 C29.95 13 34.9 13 40 13 C40 42.37 40 71.74 40 102 C31.42 102 22.84 102 14 102 C14 99.69 14 97.38 14 95 C20.27 95 26.54 95 33 95 C33 70.25 33 45.5 33 20 C26.73 20 20.46 20 14 20 C14 17.69 14 15.38 14 13 C15.32 13 16.64 13 18 13 C18 11.02 18 9.04 18 7 C12.06 7 6.12 7 0 7 C0 4.69 0 2.38 0 0 Z " fill="#D24B4C" transform="translate(121,48)"/>
<path d="M0 0 C8.58 0 17.16 0 26 0 C26 2.31 26 4.62 26 7 C19.73 7 13.46 7 7 7 C7 31.42 7 55.84 7 81 C9.64 81 12.28 81 15 81 C15 83.31 15 85.62 15 88 C10.05 88 5.1 88 0 88 C0 58.96 0 29.92 0 0 Z " fill="#7A766A" transform="translate(71,48)"/>
<path d="M0 0 C8.25 0 16.5 0 25 0 C25 4.29 25 8.58 25 13 C22.69 13 20.38 13 18 13 C18 11.02 18 9.04 18 7 C12.06 7 6.12 7 0 7 C0 4.69 0 2.38 0 0 Z " fill="#777367" transform="translate(121,48)"/>
<path d="M0 0 C7.33834586 -0.36090226 7.33834586 -0.36090226 10.0625 1.125 C11.51316732 4.02633464 10.90451694 5.96340742 10 9 C6.3558226 11.4294516 4.28758728 11.16179575 0 11 C0 7.37 0 3.74 0 0 Z " fill="#D55657" transform="translate(31,168)"/>
<path d="M0 0 C0 0.66 0 1.32 0 2 C0.66 2.33 1.32 2.66 2 3 C1.34 3 0.68 3 0 3 C0 4.65 0 6.3 0 8 C0.99 8 1.98 8 3 8 C3 8.66 3 9.32 3 10 C-1.875 9.125 -1.875 9.125 -3 8 C-3.33 8.66 -3.66 9.32 -4 10 C-4.66 10 -5.32 10 -6 10 C-6 8.68 -6 7.36 -6 6 C-7.32 6 -8.64 6 -10 6 C-10 6.99 -10 7.98 -10 9 C-10.66 9 -11.32 9 -12 9 C-11.67 7.68 -11.34 6.36 -11 5 C-9.68 5 -8.36 5 -7 5 C-7 4.34 -7 3.68 -7 3 C-8.32 3 -9.64 3 -11 3 C-11 2.34 -11 1.68 -11 1 C-7.27569643 0.30710631 -3.78916254 -0.11144596 0 0 Z " fill="#E18E8C" transform="translate(182,169)"/>
<path d="M0 0 C2.93453261 0.36681658 3.86437246 0.86437246 6 3 C5.44444444 7.55555556 5.44444444 7.55555556 4 9 C1.5625 9.1875 1.5625 9.1875 -1 9 C-1.66 8.34 -2.32 7.68 -3 7 C-2.67028521 3.70285207 -2.3773161 2.3773161 0 0 Z " fill="#D65A5A" transform="translate(46,170)"/>
<path d="M0 0 C4.55555556 0.55555556 4.55555556 0.55555556 6 2 C6.1875 4.4375 6.1875 4.4375 6 7 C5.34 7.66 4.68 8.32 4 9 C-0.55555556 8.44444444 -0.55555556 8.44444444 -2 7 C-2.1875 4.5625 -2.1875 4.5625 -2 2 C-1.34 1.34 -0.68 0.68 0 0 Z " fill="#D65959" transform="translate(188,170)"/>
<path d="M0 0 C0.94875 0.04125 1.8975 0.0825 2.875 0.125 C3.205 0.785 3.535 1.445 3.875 2.125 C1.565 2.455 -0.745 2.785 -3.125 3.125 C-2.795 4.775 -2.465 6.425 -2.125 8.125 C-0.805 8.455 0.515 8.785 1.875 9.125 C1.875 7.805 1.875 6.485 1.875 5.125 C2.535 5.125 3.195 5.125 3.875 5.125 C3.875 6.775 3.875 8.425 3.875 10.125 C1.565 10.455 -0.745 10.785 -3.125 11.125 C-4.6875 9.4375 -4.6875 9.4375 -6.125 7.125 C-5.796692 2.52868799 -4.93191347 0.19727654 0 0 Z " fill="#D45354" transform="translate(127.125,167.875)"/>
<path d="M0 0 C2.625 0.375 2.625 0.375 5 1 C5.33 2.32 5.66 3.64 6 5 C4.02 5 2.04 5 0 5 C0 5.66 0 6.32 0 7 C1.65 7 3.3 7 5 7 C4.67 7.66 4.34 8.32 4 9 C-0.875 8.125 -0.875 8.125 -2 7 C-2.1875 4.5625 -2.1875 4.5625 -2 2 C-1.34 1.34 -0.68 0.68 0 0 Z " fill="#D24344" transform="translate(92,170)"/>
<path d="M0 0 C1.4540625 0.0309375 1.4540625 0.0309375 2.9375 0.0625 C3.2675 1.3825 3.5975 2.7025 3.9375 4.0625 C1.9575 4.0625 -0.0225 4.0625 -2.0625 4.0625 C-2.0625 4.7225 -2.0625 5.3825 -2.0625 6.0625 C-0.4125 6.0625 1.2375 6.0625 2.9375 6.0625 C2.6075 6.7225 2.2775 7.3825 1.9375 8.0625 C-2.9375 7.1875 -2.9375 7.1875 -4.0625 6.0625 C-4.1875 3.5625 -4.1875 3.5625 -4.0625 1.0625 C-3.0625 0.0625 -3.0625 0.0625 0 0 Z " fill="#D24243" transform="translate(158.0625,170.9375)"/>
<path d="M0 0 C0.66 0 1.32 0 2 0 C2 2.31 2 4.62 2 7 C2.99 6.67 3.98 6.34 5 6 C5.33 4.02 5.66 2.04 6 0 C6.66 0 7.32 0 8 0 C8 2.97 8 5.94 8 9 C5.66705225 9.04241723 3.33297433 9.04092937 1 9 C0 8 0 8 -0.09765625 6.15234375 C-0.06510417 4.1015625 -0.03255208 2.05078125 0 0 Z " fill="#D55656" transform="translate(63,170)"/>
<path d="M0 0 C2.375 -0.125 2.375 -0.125 5 0 C5.66 0.66 6.32 1.32 7 2 C6.46428571 5.53571429 6.46428571 5.53571429 5 7 C3.33382885 7.04063832 1.66611905 7.042721 0 7 C0 4.69 0 2.38 0 0 Z " fill="#F7EEEB" transform="translate(33,170)"/>
<path d="M0 0 C4.29 0 8.58 0 13 0 C13 2.64 13 5.28 13 8 C12.67 8 12.34 8 12 8 C11.67 6.02 11.34 4.04 11 2 C10.01 2 9.02 2 8 2 C7.67 3.98 7.34 5.96 7 8 C6.67 8 6.34 8 6 8 C5.67 6.02 5.34 4.04 5 2 C4.01 1.67 3.02 1.34 2 1 C1.67 3.31 1.34 5.62 1 8 C0.67 8 0.34 8 0 8 C0 5.36 0 2.72 0 0 Z " fill="#D13B3D" transform="translate(74,171)"/>
<path d="M0 0 C6.875 0.875 6.875 0.875 8 2 C8.04092937 4.33297433 8.04241723 6.66705225 8 9 C7.34 9 6.68 9 6 9 C6 6.69 6 4.38 6 2 C5.01 2.33 4.02 2.66 3 3 C2.67 4.98 2.34 6.96 2 9 C1.34 9 0.68 9 0 9 C0 6.03 0 3.06 0 0 Z " fill="#D44F50" transform="translate(100,170)"/>
<path d="M0 0 C2.625 0.375 2.625 0.375 5 1 C5 1.66 5 2.32 5 3 C3.35 3 1.7 3 0 3 C0 3.99 0 4.98 0 6 C1.65 6 3.3 6 5 6 C4.67 6.99 4.34 7.98 4 9 C1.625 9.125 1.625 9.125 -1 9 C-1.66 8.34 -2.32 7.68 -3 7 C-2.67028521 3.70285207 -2.3773161 2.3773161 0 0 Z " fill="#D76263" transform="translate(56,170)"/>
<path d="M0 0 C2.64 0.33 5.28 0.66 8 1 C8 3.64 8 6.28 8 9 C7.67 9 7.34 9 7 9 C6.67 7.02 6.34 5.04 6 3 C5.01 3 4.02 3 3 3 C2.67 4.98 2.34 6.96 2 9 C1.34 9 0.68 9 0 9 C0 6.03 0 3.06 0 0 Z " fill="#D65556" transform="translate(143,170)"/>
<path d="M0 0 C0.66 0.33 1.32 0.66 2 1 C2 1.99 2 2.98 2 4 C0.02 4 -1.96 4 -4 4 C-4 4.66 -4 5.32 -4 6 C-2.02 6 -0.04 6 2 6 C1.67 6.66 1.34 7.32 1 8 C-1.375 8.125 -1.375 8.125 -4 8 C-6 6 -6 6 -6.125 3.375 C-6.08375 2.59125 -6.0425 1.8075 -6 1 C-5.34 1 -4.68 1 -4 1 C-4 1.66 -4 2.32 -4 3 C-2.68 2.67 -1.36 2.34 0 2 C0 1.34 0 0.68 0 0 Z " fill="#D44D4D" transform="translate(139,171)"/>
<path d="M0 0 C0.66 0 1.32 0 2 0 C2 0.66 2 1.32 2 2 C2.66 2.33 3.32 2.66 4 3 C3.34 3 2.68 3 2 3 C2 4.65 2 6.3 2 8 C2.99 8 3.98 8 5 8 C5 8.66 5 9.32 5 10 C3.35 9.67 1.7 9.34 0 9 C-1.125 2.25 -1.125 2.25 0 0 Z " fill="#D55455" transform="translate(180,169)"/>
<path d="M0 0 C0.66 0 1.32 0 2 0 C2 0.66 2 1.32 2 2 C2.66 2.33 3.32 2.66 4 3 C3.34 3 2.68 3 2 3 C2 4.65 2 6.3 2 8 C2.66 8 3.32 8 4 8 C4 8.66 4 9.32 4 10 C2.68 9.67 1.36 9.34 0 9 C-1.125 2.25 -1.125 2.25 0 0 Z " fill="#D34F4F" transform="translate(111,169)"/>
<path d="M0 0 C1.65 0 3.3 0 5 0 C5 0.66 5 1.32 5 2 C4.01 2.495 4.01 2.495 3 3 C2.34227572 6.02934491 2.34227572 6.02934491 2 9 C1.34 9 0.68 9 0 9 C0 6.03 0 3.06 0 0 Z " fill="#D75C5D" transform="translate(164,170)"/>
<path d="M0 0 C2.97 0.33 5.94 0.66 9 1 C9 1.66 9 2.32 9 3 C6.03 3 3.06 3 0 3 C0 2.01 0 1.02 0 0 Z " fill="#BEB9B2" transform="translate(137,128)"/>
<path d="M0 0 C1.67542976 0.28604898 3.34385343 0.61781233 5 1 C5.33 1.99 5.66 2.98 6 4 C3.69 4 1.38 4 -1 4 C-1 1 -1 1 0 0 Z " fill="#E18A8A" transform="translate(92,170)"/>
<path d="M0 0 C0.33 0 0.66 0 1 0 C1 2.64 1 5.28 1 8 C-1.64 7.34 -4.28 6.68 -7 6 C-7 5.34 -7 4.68 -7 4 C-5.02 4 -3.04 4 -1 4 C-0.67 2.68 -0.34 1.36 0 0 Z " fill="#F3E0DD" transform="translate(163,171)"/>
<path d="M0 0 C2.475 0.495 2.475 0.495 5 1 C4.34 1.66 3.68 2.32 3 3 C2.60235737 4.98821313 2.26224651 6.98944339 2 9 C1.34 9 0.68 9 0 9 C0 6.03 0 3.06 0 0 Z " fill="#D65D5C" transform="translate(196,170)"/>
<path d="M0 0 C1.98 0.495 1.98 0.495 4 1 C3.67 2.32 3.34 3.64 3 5 C1.68 4.67 0.36 4.34 -1 4 C-0.67 2.68 -0.34 1.36 0 0 Z " fill="#F5E8E4" transform="translate(46,172)"/>
<path d="M0 0 C1.32 0 2.64 0 4 0 C4 1.65 4 3.3 4 5 C2.68 5 1.36 5 0 5 C0 3.35 0 1.7 0 0 Z " fill="#F5E7E4" transform="translate(188,172)"/>
<path d="M0 0 C1.98 0.495 1.98 0.495 4 1 C4 2.98 4 4.96 4 7 C3.67 5.68 3.34 4.36 3 3 C2.01 3 1.02 3 0 3 C-0.33 4.32 -0.66 5.64 -1 7 C-0.67 4.69 -0.34 2.38 0 0 Z " fill="#EFCCCA" transform="translate(76,172)"/>
<path d="M0 0 C1.98 0.495 1.98 0.495 4 1 C3.67 2.32 3.34 3.64 3 5 C1.68 4.67 0.36 4.34 -1 4 C-0.67 2.68 -0.34 1.36 0 0 Z " fill="#F6ECE8" transform="translate(56,172)"/>
<path d="M0 0 C1.98 0 3.96 0 6 0 C6.33 0.99 6.66 1.98 7 3 C4.69 3 2.38 3 0 3 C0 2.01 0 1.02 0 0 Z " fill="#E18887" transform="translate(155,171)"/>
<path d="M0 0 C0.99 0.33 1.98 0.66 3 1 C3.33 2.65 3.66 4.3 4 6 C2.68 6.33 1.36 6.66 0 7 C0 4.69 0 2.38 0 0 Z " fill="#EDC9C6" transform="translate(151,172)"/>
<path d="M0 0 C2.0625 0.4375 2.0625 0.4375 4 1 C4 2.98 4 4.96 4 7 C3.67 7 3.34 7 3 7 C3 5.35 3 3.7 3 2 C0.48916886 3.25541557 0.12874554 4.50063488 -1 7 C-1.04254356 5.00045254 -1.04080783 2.99958364 -1 1 C-0.67 0.67 -0.34 0.34 0 0 Z " fill="#ECC1BF" transform="translate(82,172)"/>
<path d="M0 0 C1.32 0 2.64 0 4 0 C4 1.32 4 2.64 4 4 C2.35 4 0.7 4 -1 4 C-0.67 2.68 -0.34 1.36 0 0 Z " fill="#E49E9C" transform="translate(172,175)"/>
<path d="M0 0 C0.33 1.32 0.66 2.64 1 4 C-0.65 4 -2.3 4 -4 4 C-4.33 3.01 -4.66 2.02 -5 1 C-3 0 -3 0 0 0 Z " fill="#E6A1A1" transform="translate(139,170)"/>
</svg>
