<?xml version="1.0" encoding="UTF-8"?>
<svg version="1.1" xmlns="http://www.w3.org/2000/svg" width="329" height="153">
<path d="M0 0 C108.57 0 217.14 0 329 0 C329 50.49 329 100.98 329 153 C220.43 153 111.86 153 0 153 C0 102.51 0 52.02 0 0 Z " fill="#FDFDFD" transform="translate(0,0)"/>
<path d="M0 0 C8.04212755 -0.16677223 15.98603754 0.3533402 24 1 C24 1.66 24 2.32 24 3 C22.09375 4.734375 22.09375 4.734375 19.5 6.75 C18.59507812 7.45640625 17.69015625 8.1628125 16.7578125 8.890625 C13.1904284 11.61921907 9.61474277 14.33437963 6 17 C6.33 14.36 6.66 11.72 7 9 C6.20255371 9.29132812 5.40510742 9.58265625 4.58349609 9.8828125 C-4.47649536 13.15909086 -13.59996186 16.1967515 -22.7673645 19.15756226 C-27.47805566 20.67942527 -32.1861793 22.20919958 -36.89453125 23.73828125 C-37.9230571 24.07217361 -38.95158295 24.40606598 -40.01127625 24.75007629 C-52.34773328 28.75778535 -64.67119988 32.80506808 -76.99484253 36.85195923 C-81.06604166 38.18881023 -85.13761683 39.52451355 -89.20922852 40.86010742 C-101.00973705 44.73144761 -112.80946078 48.60507351 -124.60340977 52.49635983 C-130.06240448 54.29749239 -135.52226068 56.09599471 -140.98274136 57.89261723 C-144.20448268 58.95286603 -147.42564864 60.01479786 -150.64553833 61.08065796 C-154.18557206 62.25176309 -157.72733007 63.41750148 -161.26953125 64.58203125 C-162.31945251 64.93093414 -163.36937378 65.27983704 -164.45111084 65.63931274 C-165.40801819 65.95274628 -166.36492554 66.26617981 -167.35083008 66.58911133 C-168.1814949 66.86330399 -169.01215973 67.13749664 -169.86799622 67.41999817 C-172 68 -172 68 -175 68 C-175 67.01 -175 66.02 -175 65 C-141.72260609 53.83063581 -108.3598122 42.92003786 -75 32 C-73.79138306 31.60435852 -72.58276611 31.20871704 -71.33752441 30.80108643 C-45.90960548 22.47839638 -20.47432783 14.17969209 5 6 C2.525 3.03 2.525 3.03 0 0 Z " fill="#E81173" transform="translate(234,53)"/>
<path d="M0 0 C1.875 1.625 1.875 1.625 3 4 C2.6875 7.25 2.6875 7.25 2 10 C-0.31 10.66 -2.62 11.32 -5 12 C-5.99 8.37 -6.98 4.74 -8 1 C-4.97923697 -0.00692101 -3.1408885 -0.39261106 0 0 Z " fill="#939393" transform="translate(146,111)"/>
<path d="M0 0 C1.65 0.33 3.3 0.66 5 1 C5 1.33 5 1.66 5 2 C3.35 2 1.7 2 0 2 C0.26676204 3.98491642 0.26676204 3.98491642 1 6 C1.99 6.33 2.98 6.66 4 7 C4 6.34 4 5.68 4 5 C4.66 5 5.32 5 6 5 C5.34 6.32 4.68 7.64 4 9 C1.83125748 8.49396008 0.00032373 8.00016187 -2 7 C-2.33 8.32 -2.66 9.64 -3 11 C-5.375 11.1875 -5.375 11.1875 -8 11 C-10 8 -10 8 -9.625 5.8125 C-9.41875 5.214375 -9.2125 4.61625 -9 4 C-7.34385343 3.61781233 -5.67542976 3.28604898 -4 3 C-3.67 3.33 -3.34 3.66 -3 4 C-2.01 2.68 -1.02 1.36 0 0 Z " fill="#6A6A6A" transform="translate(168,105)"/>
<path d="M0 0 C1.2065625 0.0309375 1.2065625 0.0309375 2.4375 0.0625 C3.63037411 3.93934087 4.4375 6.97871923 4.4375 11.0625 C2.4575 11.3925 0.4775 11.7225 -1.5625 12.0625 C-1.5625 11.4025 -1.5625 10.7425 -1.5625 10.0625 C0.0875 10.0625 1.7375 10.0625 3.4375 10.0625 C3.4375 9.4025 3.4375 8.7425 3.4375 8.0625 C1.7875 8.3925 0.1375 8.7225 -1.5625 9.0625 C-3.125 7.3125 -3.125 7.3125 -4.5625 5.0625 C-4.14994784 1.45266859 -3.77167388 0.09199205 0 0 Z " fill="#4A4A4A" transform="translate(124.5625,37.9375)"/>
<path d="M0 0 C0.66 0 1.32 0 2 0 C2 3.63 2 7.26 2 11 C0.00045254 11.04254356 -2.00041636 11.04080783 -4 11 C-5 10 -5 10 -5.0625 6.9375 C-5.041875 5.968125 -5.02125 4.99875 -5 4 C-3.35 3.67 -1.7 3.34 0 3 C0 2.01 0 1.02 0 0 Z " fill="#3F3F3F" transform="translate(297,48)"/>
<path d="M0 0 C2.3129482 2.3129482 2.49580975 3.47904875 3.125 6.625 C3.29257813 7.44226563 3.46015625 8.25953125 3.6328125 9.1015625 C3.81457031 10.04128906 3.81457031 10.04128906 4 11 C1.125 11.625 1.125 11.625 -2 12 C-4 10 -4 10 -4.125 7.375 C-4.08375 6.59125 -4.0425 5.8075 -4 5 C-2.68 4.34 -1.36 3.68 0 3 C0 2.01 0 1.02 0 0 Z " fill="#212121" transform="translate(157,24)"/>
<path d="M0 0 C0 0.66 0 1.32 0 2 C-5.28 3.65 -10.56 5.3 -16 7 C-16.99 6.01 -17.98 5.02 -19 4 C-16.58732675 3.132758 -14.17095531 2.28103064 -11.75 1.4375 C-11.06808594 1.19064453 -10.38617188 0.94378906 -9.68359375 0.68945312 C-3.41657839 -1.47053761 -3.41657839 -1.47053761 0 0 Z " fill="#E91C78" transform="translate(239,61)"/>
<path d="M0 0 C1.67542976 0.28604898 3.34385343 0.61781233 5 1 C5.625 3.875 5.625 3.875 6 7 C5.34 7.66 4.68 8.32 4 9 C1.06546739 8.63318342 0.13562754 8.13562754 -2 6 C-1.44444444 1.44444444 -1.44444444 1.44444444 0 0 Z " fill="#888888" transform="translate(183,100)"/>
<path d="M0 0 C1.65 0.33 3.3 0.66 5 1 C5.33 3.64 5.66 6.28 6 9 C4.02 9 2.04 9 0 9 C-0.84454356 5.62182575 -1.10844919 3.32534757 0 0 Z " fill="#777777" transform="translate(284,51)"/>
<path d="M0 0 C1.98 0 3.96 0 6 0 C6.66 2.64 7.32 5.28 8 8 C6.35 8.33 4.7 8.66 3 9 C0 3.375 0 3.375 0 0 Z " fill="#A4A4A4" transform="translate(173,102)"/>
<path d="M0 0 C-0.639375 0.103125 -1.27875 0.20625 -1.9375 0.3125 C-2.618125 0.539375 -3.29875 0.76625 -4 1 C-4.33 1.99 -4.66 2.98 -5 4 C-7.50390625 4.94921875 -7.50390625 4.94921875 -10.5625 5.6875 C-11.57441406 5.93886719 -12.58632812 6.19023438 -13.62890625 6.44921875 C-14.41136719 6.63097656 -15.19382813 6.81273438 -16 7 C-16.66 6.01 -17.32 5.02 -18 4 C-15.56592995 3.13475247 -13.12856816 2.28257135 -10.6875 1.4375 C-9.99720703 1.19064453 -9.30691406 0.94378906 -8.59570312 0.68945312 C-3.33984375 -1.11328125 -3.33984375 -1.11328125 0 0 Z " fill="#E91C78" transform="translate(186,78)"/>
<path d="M0 0 C0.12375 0.804375 0.2475 1.60875 0.375 2.4375 C0.684375 3.7059375 0.684375 3.7059375 1 5 C1.66 5.33 2.32 5.66 3 6 C0.64561267 7.42944945 -0.48032433 8.08661261 -3.25 7.625 C-3.8275 7.41875 -4.405 7.2125 -5 7 C-4.125 3.125 -4.125 3.125 -3 2 C-3.66 1.67 -4.32 1.34 -5 1 C-5.33 1.66 -5.66 2.32 -6 3 C-6 2.01 -6 1.02 -6 0 C-3.50907189 -1.24546405 -2.58919267 -0.7767578 0 0 Z " fill="#3D3D3D" transform="translate(118,42)"/>
<path d="M0 0 C0.99 0.33 1.98 0.66 3 1 C4.6875 4.5625 4.6875 4.5625 6 8 C3.36 8.33 0.72 8.66 -2 9 C-2 7.68 -2 6.36 -2 5 C-0.68 4.67 0.64 4.34 2 4 C2 3.34 2 2.68 2 2 C0.35 2.66 -1.3 3.32 -3 4 C-2.67 3.01 -2.34 2.02 -2 1 C-1.34 0.67 -0.68 0.34 0 0 Z " fill="#5A5A5A" transform="translate(56,130)"/>
<path d="M0 0 C-1.11375 0.61875 -2.2275 1.2375 -3.375 1.875 C-9.04701531 5.38189119 -13.44000987 10.18771534 -18 15 C-18 10.69682458 -15.89044909 9.10413203 -13.078125 6.01171875 C-5.10881078 -1.70293693 -5.10881078 -1.70293693 0 0 Z " fill="#C3C3C3" transform="translate(78,88)"/>
<path d="M0 0 C0.99 0 1.98 0 3 0 C3.99 3.3 4.98 6.6 6 10 C5.34 10 4.68 10 4 10 C3.67 9.01 3.34 8.02 3 7 C2.34 8.65 1.68 10.3 1 12 C0.01 11.34 -0.98 10.68 -2 10 C-1.34 6.7 -0.68 3.4 0 0 Z " fill="#464646" transform="translate(106,41)"/>
<path d="M0 0 C2.31 0.33 4.62 0.66 7 1 C7 3.31 7 5.62 7 8 C7.66 8.33 8.32 8.66 9 9 C8.01 9 7.02 9 6 9 C5.34 7.68 4.68 6.36 4 5 C4 6.98 4 8.96 4 11 C1.6870518 8.6870518 1.50419025 7.52095125 0.875 4.375 C0.70742187 3.55773438 0.53984375 2.74046875 0.3671875 1.8984375 C0.24601563 1.27195313 0.12484375 0.64546875 0 0 Z " fill="#5A5A5A" transform="translate(136,31)"/>
<path d="M0 0 C0.66 0 1.32 0 2 0 C2 1.65 2 3.3 2 5 C3.98 5 5.96 5 8 5 C8 3.35 8 1.7 8 0 C8.33 0 8.66 0 9 0 C9 3.63 9 7.26 9 11 C8.67 11 8.34 11 8 11 C8 9.35 8 7.7 8 6 C6.02 6 4.04 6 2 6 C2 7.65 2 9.3 2 11 C1.34 11 0.68 11 0 11 C0 7.37 0 3.74 0 0 Z " fill="#282828" transform="translate(263,48)"/>
<path d="M0 0 C1.67542976 0.28604898 3.34385343 0.61781233 5 1 C5 1.99 5 2.98 5 4 C3.02 4.99 3.02 4.99 1 6 C2.65 5.67 4.3 5.34 6 5 C5.67 5.99 5.34 6.98 5 8 C2.625 8.1875 2.625 8.1875 0 8 C-2 5 -2 5 -1.6875 2.875 C-1 1 -1 1 0 0 Z " fill="#515151" transform="translate(163,25)"/>
<path d="M0 0 C0.66 0 1.32 0 2 0 C2.99 3.63 3.98 7.26 5 11 C3.35 11.33 1.7 11.66 0 12 C-0.66 9.36 -1.32 6.72 -2 4 C-1.01 4.495 -1.01 4.495 0 5 C0.33 5.99 0.66 6.98 1 8 C0.67 5.36 0.34 2.72 0 0 Z " fill="#565656" transform="translate(63,125)"/>
<path d="M0 0 C0 0.99 0 1.98 0 3 C0.31421071 5.00309329 0.6451046 7.00371336 1 9 C0.01 8.67 -0.98 8.34 -2 8 C-2.66 8.66 -3.32 9.32 -4 10 C-5.0625 8.1875 -5.0625 8.1875 -6 6 C-5.67 5.01 -5.34 4.02 -5 3 C-4.67 3.33 -4.34 3.66 -4 4 C-2.68 2.68 -1.36 1.36 0 0 Z " fill="#5E5E5E" transform="translate(156,109)"/>
<path d="M0 0 C0.66 0 1.32 0 2 0 C2.66 2.64 3.32 5.28 4 8 C2.02 8.33 0.04 8.66 -2 9 C-5 3.25 -5 3.25 -5 1 C-4.34 1 -3.68 1 -3 1 C-2.34 2.98 -1.68 4.96 -1 7 C-0.67 7 -0.34 7 0 7 C0 4.69 0 2.38 0 0 Z " fill="#474747" transform="translate(149,30)"/>
<path d="M0 0 C2.4375 0.75 2.4375 0.75 5 2 C5.8125 4.125 5.8125 4.125 6 6 C3.69 6 1.38 6 -1 6 C-1.042721 4.33388095 -1.04063832 2.66617115 -1 1 C-0.67 0.67 -0.34 0.34 0 0 Z " fill="#C7C7C7" transform="translate(277,52)"/>
<path d="M0 0 C1.98 0.495 1.98 0.495 4 1 C3.67 2.65 3.34 4.3 3 6 C1.68 5.34 0.36 4.68 -1 4 C-0.67 2.68 -0.34 1.36 0 0 Z " fill="#ECECEC" transform="translate(155,29)"/>
<path d="M0 0 C0.99 0 1.98 0 3 0 C4.6875 2 4.6875 2 6 4 C5.67 4.66 5.34 5.32 5 6 C4.67 6 4.34 6 4 6 C3.67 7.32 3.34 8.64 3 10 C2.01 6.7 1.02 3.4 0 0 Z " fill="#2D2D2D" transform="translate(98,43)"/>
<path d="M0 0 C-2.76223278 2.76223278 -5.20706617 2.57856291 -9 3 C-8.67 2.01 -8.34 1.02 -8 0 C-5.04215769 -1.22393475 -3.00272755 -0.96516243 0 0 Z " fill="#E7076D" transform="translate(222,67)"/>
<path d="M0 0 C0.99 0.33 1.98 0.66 3 1 C3 2.65 3 4.3 3 6 C1.68 6 0.36 6 -1 6 C-1.042721 4.33388095 -1.04063832 2.66617115 -1 1 C-0.67 0.67 -0.34 0.34 0 0 Z " fill="#F5F5F5" transform="translate(294,52)"/>
<path d="M0 0 C0.66 0 1.32 0 2 0 C2.66 0.99 3.32 1.98 4 3 C6.58380177 3.25030977 6.58380177 3.25030977 9 3 C9 3.66 9 4.32 9 5 C6.1875 5.625 6.1875 5.625 3 6 C2.01 5.34 1.02 4.68 0 4 C0 2.68 0 1.36 0 0 Z " fill="#E7E7E7" transform="translate(119,43)"/>
<path d="M0 0 C-0.33 1.65 -0.66 3.3 -1 5 C-2.32 4.67 -3.64 4.34 -5 4 C-5 3.01 -5 2.02 -5 1 C-2 0 -2 0 0 0 Z " fill="#8E8E8E" transform="translate(118,45)"/>
<path d="M0 0 C0.99 0 1.98 0 3 0 C3.66 1.98 4.32 3.96 5 6 C4.01 6.495 4.01 6.495 3 7 C2.34 6.67 1.68 6.34 1 6 C0.375 2.9375 0.375 2.9375 0 0 Z " fill="#E4E4E4" transform="translate(142,33)"/>
<path d="M0 0 C1.32 0 2.64 0 4 0 C4.33 2.64 4.66 5.28 5 8 C2.2175651 6.60878255 1.44789935 4.69835788 0 2 C0 1.34 0 0.68 0 0 Z " fill="#D0D0D0" transform="translate(60,126)"/>
<path d="M0 0 C2.31 0.33 4.62 0.66 7 1 C5.35 2.65 3.7 4.3 2 6 C2 4.35 2 2.7 2 1 C1.34 0.67 0.68 0.34 0 0 Z " fill="#343434" transform="translate(184,90)"/>
<path d="M0 0 C1.65 0 3.3 0 5 0 C3.68 2.31 2.36 4.62 1 7 C-1 4 -1 4 -0.625 1.8125 C-0.41875 1.214375 -0.2125 0.61625 0 0 Z " fill="#E2E2E2" transform="translate(111,43)"/>
<path d="M0 0 C1.32 0 2.64 0 4 0 C4 1.65 4 3.3 4 5 C2.68 4.67 1.36 4.34 0 4 C0 2.68 0 1.36 0 0 Z " fill="#F8F8F8" transform="translate(122,40)"/>
<path d="M0 0 C0.99 0.33 1.98 0.66 3 1 C2.67 3.31 2.34 5.62 2 8 C0 6 0 6 -0.125 2.875 C-0.08375 1.92625 -0.0425 0.9775 0 0 Z " fill="#C3C3C3" transform="translate(289,52)"/>
<path d="M0 0 C0.99 0.33 1.98 0.66 3 1 C3.73046875 2.84765625 3.73046875 2.84765625 4.1875 5.0625 C4.34605469 5.79597656 4.50460938 6.52945313 4.66796875 7.28515625 C4.83232422 8.13400391 4.83232422 8.13400391 5 9 C4.01 8.67 3.02 8.34 2 8 C0.5522078 5.10441559 0 3.25811062 0 0 Z " fill="#303030" transform="translate(173,102)"/>
<path d="M0 0 C1.485 0.99 1.485 0.99 3 2 C3 2.99 3 3.98 3 5 C3.99 5.33 4.98 5.66 6 6 C4.35 6.33 2.7 6.66 1 7 C0.67 4.69 0.34 2.38 0 0 Z " fill="#E5E5E5" transform="translate(139,35)"/>
</svg>
