<?xml version="1.0" encoding="UTF-8"?>
<svg version="1.1" xmlns="http://www.w3.org/2000/svg" width="225" height="225">
<path d="M0 0 C74.25 0 148.5 0 225 0 C225 74.25 225 148.5 225 225 C150.75 225 76.5 225 0 225 C0 150.75 0 76.5 0 0 Z " fill="#0C92CE" transform="translate(0,0)"/>
<path d="M0 0 C0.7437236 -0.0087616 1.4874472 -0.01752319 2.25370789 -0.02655029 C4.7029418 -0.0484899 7.15035833 -0.03401275 9.59960938 -0.01708984 C11.30684759 -0.02045959 13.01408346 -0.02531353 14.72131348 -0.03158569 C18.29572436 -0.03894959 21.86950962 -0.02826763 25.44384766 -0.00488281 C30.02077278 0.02360533 34.59623197 0.00719867 39.17310333 -0.02274513 C42.6973979 -0.04083156 46.22134612 -0.03505406 49.74565125 -0.02210617 C51.43291905 -0.01877584 53.12021852 -0.02284615 54.80744934 -0.03450394 C57.16805029 -0.04723572 59.52629306 -0.02780751 61.88671875 0 C62.58089401 -0.01012115 63.27506927 -0.02024231 63.99028015 -0.03067017 C67.59885783 0.04790101 69.4048903 0.61983637 72.37521362 2.71511841 C74.89321871 6.28470431 75.15184859 8.98440381 75.09033203 13.20361328 C75.09909363 13.94733688 75.10785522 14.69106049 75.11688232 15.45732117 C75.13882193 17.90655509 75.12434478 20.35397161 75.10742188 22.80322266 C75.11079162 24.51046087 75.11564556 26.21769674 75.12191772 27.92492676 C75.12928162 31.49933764 75.11859966 35.0731229 75.09521484 38.64746094 C75.0667267 43.22438606 75.08313336 47.79984525 75.11307716 52.37671661 C75.13116359 55.90101118 75.12538609 59.4249594 75.1124382 62.94926453 C75.10910787 64.63653233 75.11317818 66.3238318 75.12483597 68.01106262 C75.13756775 70.37166357 75.11813954 72.72990634 75.09033203 75.09033203 C75.10551376 76.13159492 75.10551376 76.13159492 75.1210022 77.19389343 C75.04243102 80.80247111 74.47049567 82.60850358 72.37521362 85.5788269 C68.80562772 88.09683199 66.10592822 88.35546187 61.88671875 88.29394531 C61.14299515 88.30270691 60.39927155 88.31146851 59.63301086 88.32049561 C57.18377695 88.34243522 54.73636042 88.32795807 52.28710938 88.31103516 C50.57987116 88.3144049 48.87263529 88.31925884 47.16540527 88.32553101 C43.59099439 88.3328949 40.01720913 88.32221294 36.44287109 88.29882812 C31.86594597 88.27033998 27.29048678 88.28674664 22.71361542 88.31669044 C19.18932085 88.33477687 15.66537263 88.32899937 12.1410675 88.31605148 C10.4537997 88.31272116 8.76650023 88.31679146 7.07926941 88.32844925 C4.71866846 88.34118103 2.36042569 88.32175282 0 88.29394531 C-1.04126289 88.30912704 -1.04126289 88.30912704 -2.1035614 88.32461548 C-5.71213908 88.2460443 -7.51817155 87.67410895 -10.48849487 85.5788269 C-13.00649996 82.009241 -13.26512984 79.3095415 -13.20361328 75.09033203 C-13.21237488 74.34660843 -13.22113647 73.60288483 -13.23016357 72.83662415 C-13.25210318 70.38739023 -13.23762603 67.9399737 -13.22070312 65.49072266 C-13.22407287 63.78348444 -13.22892681 62.07624857 -13.23519897 60.36901855 C-13.24256287 56.79460767 -13.23188091 53.22082241 -13.20849609 49.64648438 C-13.18000795 45.06955925 -13.19641461 40.49410006 -13.22635841 35.9172287 C-13.24444484 32.39293413 -13.23866734 28.86898591 -13.22571945 25.34468079 C-13.22238912 23.65741298 -13.22645943 21.97011351 -13.23811722 20.28288269 C-13.250849 17.92228174 -13.23142079 15.56403897 -13.20361328 13.20361328 C-13.21373444 12.50943802 -13.22385559 11.81526276 -13.23428345 11.10005188 C-13.15571227 7.4914742 -12.58377692 5.68544173 -10.48849487 2.71511841 C-6.91890897 0.19711332 -4.21920947 -0.06151656 0 0 Z " fill="#414244" transform="translate(81.556640625,68.35302734375)"/>
<path d="M0 0 C0.89583801 -0.0071553 1.79167603 -0.01431061 2.71466064 -0.02168274 C3.70014389 -0.02437164 4.68562714 -0.02706055 5.70097351 -0.02983093 C6.73686615 -0.03640213 7.77275879 -0.04297333 8.84004211 -0.04974365 C12.27895677 -0.06950579 15.71782771 -0.08114528 19.15678406 -0.09111023 C20.32919333 -0.09518576 21.50160259 -0.09926128 22.70953941 -0.10346031 C28.91387634 -0.12433271 35.11819107 -0.13862982 41.32255554 -0.147995 C47.73878237 -0.15906656 54.15466306 -0.19347213 60.5707674 -0.23316669 C65.49752458 -0.25928048 70.4241986 -0.26768215 75.35101891 -0.27127647 C77.71654284 -0.27615536 80.08206275 -0.28780612 82.4475193 -0.30631447 C85.75624343 -0.33059557 89.06406304 -0.3297608 92.37284851 -0.32279968 C93.35225906 -0.33560974 94.33166962 -0.3484198 95.34075928 -0.36161804 C99.66857566 -0.3283861 102.06587575 -0.26342784 105.81588745 2.05154419 C108.49640573 4.9847179 108.85728298 6.54642208 108.88490295 10.41616821 C108.89350342 11.31200623 108.90210388 12.20784424 108.91096497 13.13082886 C108.91522491 14.1163121 108.91948486 15.10179535 108.9238739 16.11714172 C108.93614014 17.67098068 108.93614014 17.67098068 108.94865417 19.25621033 C108.97353155 22.69511837 108.99002941 26.13398509 109.00444031 29.57295227 C109.00976398 30.74536154 109.01508766 31.91777081 109.02057266 33.12570763 C109.04731325 39.33003969 109.06668608 45.53435156 109.08110046 51.73872375 C109.09775881 58.15502991 109.1425446 64.57082347 109.19347191 70.98693562 C109.22708563 75.9136923 109.23867146 80.84032639 109.24432755 85.76718712 C109.25105525 88.13272714 109.26631642 90.49825868 109.29021835 92.86368752 C109.3217481 96.17255887 109.32192453 99.48003532 109.3144989 102.78901672 C109.33090424 103.76842728 109.34730957 104.74783783 109.36421204 105.75692749 C109.32094049 110.46095317 109.28628279 112.45477147 106.2570343 116.23205566 C105.42344391 116.86404373 104.58985352 117.4960318 103.73100281 118.14717102 C103.40100281 118.47717102 103.07100281 118.80717102 102.73100281 119.14717102 C101.35113548 119.25121188 99.96602352 119.28677654 98.58226013 119.29434204 C97.24056511 119.305075 97.24056511 119.305075 95.87176514 119.31602478 C94.38814735 119.32005814 94.38814735 119.32005814 92.8745575 119.32417297 C91.83881088 119.33074417 90.80306427 119.33731537 89.7359314 119.34408569 C86.29157956 119.36387506 82.84727145 119.37549421 79.40287781 119.38545227 C78.22955147 119.3895278 77.05622513 119.39360332 75.84734344 119.39780235 C69.63652724 119.4186878 63.42573329 119.43297842 57.21488953 119.44233704 C50.7907869 119.45340275 44.36703055 119.48779785 37.94305038 119.52750874 C33.012002 119.55362467 28.0810367 119.56202446 23.14992523 119.56561852 C20.78161024 119.57049797 18.41329929 119.58215031 16.04505157 119.60065651 C12.73142917 119.624939 9.41870992 119.6241024 6.10502625 119.61714172 C4.63355385 119.63635681 4.63355385 119.63635681 3.13235474 119.65596008 C-1.19901059 119.62275395 -3.60165677 119.55900384 -7.35487366 117.24279785 C-10.03571487 114.30775073 -10.39497748 112.74948243 -10.41616821 108.87817383 C-10.42332352 107.98233582 -10.43047882 107.0864978 -10.43785095 106.16351318 C-10.44053986 105.17802994 -10.44322876 104.19254669 -10.44599915 103.17720032 C-10.45257034 102.14130768 -10.45914154 101.10541504 -10.46591187 100.03813171 C-10.48567401 96.59921706 -10.49731349 93.16034612 -10.50727844 89.72138977 C-10.51135397 88.5489805 -10.5154295 87.37657124 -10.51962852 86.16863441 C-10.54050093 79.96429748 -10.55479804 73.75998276 -10.56416321 67.55561829 C-10.57523477 61.13939146 -10.60964034 54.72351077 -10.64933491 48.30740643 C-10.67544869 43.38064925 -10.68385036 38.45397522 -10.68744469 33.52715492 C-10.69232357 31.16163099 -10.70397433 28.79611108 -10.72248268 26.43065453 C-10.74676378 23.1219304 -10.74592901 19.81411078 -10.7389679 16.50532532 C-10.75177795 15.52591476 -10.76458801 14.54650421 -10.77778625 13.53741455 C-10.74455431 9.20959817 -10.67959606 6.81229808 -8.36462402 3.06228638 C-5.42980629 0.38026569 -3.87181136 0.02119348 0 0 Z M5.73100281 21.14717102 C5.23472879 23.87573592 5.04435762 25.98280889 5.08403015 28.70381165 C5.07526855 29.44753525 5.06650696 30.19125885 5.05747986 30.95751953 C5.03554025 33.40675345 5.0500174 35.85416997 5.06694031 38.30342102 C5.06357056 40.01065923 5.05871662 41.71789511 5.05244446 43.42512512 C5.04508056 46.99953601 5.05576253 50.57332126 5.07914734 54.1476593 C5.10763548 58.72458443 5.09122882 63.30004362 5.06128502 67.87691498 C5.04319859 71.40120955 5.04897609 74.92515777 5.06192398 78.44946289 C5.06525431 80.1367307 5.061184 81.82403017 5.04952621 83.51126099 C5.03679443 85.87186193 5.05622265 88.23010471 5.08403015 90.5905304 C5.073909 91.28470566 5.06378784 91.97888092 5.05335999 92.6940918 C5.13193116 96.30266948 5.70386652 98.10870195 7.79914856 101.07902527 C11.36873446 103.59703036 14.06843396 103.85566023 18.28764343 103.79414368 C19.03136703 103.80290527 19.77509064 103.81166687 20.54135132 103.82069397 C22.99058524 103.84263358 25.43800176 103.82815643 27.88725281 103.81123352 C29.59449102 103.81460327 31.30172689 103.81945721 33.00895691 103.82572937 C36.58336779 103.83309326 40.15715305 103.8224113 43.73149109 103.79902649 C48.30841621 103.77053835 52.8838754 103.786945 57.46074677 103.81688881 C60.98504133 103.83497523 64.50898955 103.82919773 68.03329468 103.81624985 C69.72056248 103.81291952 71.40786195 103.81698982 73.09509277 103.82864761 C75.45569372 103.8413794 77.8139365 103.82195118 80.17436218 103.79414368 C80.86853745 103.80426483 81.56271271 103.81438599 82.27792358 103.82481384 C85.88650126 103.74624267 87.69253374 103.17430731 90.66285706 101.07902527 C93.18086214 97.50943937 93.43949202 94.80973986 93.37797546 90.5905304 C93.39111786 89.47494499 93.39111786 89.47494499 93.40452576 88.33682251 C93.42646537 85.88758859 93.41198822 83.44017207 93.39506531 80.99092102 C93.39843505 79.28368281 93.40328899 77.57644694 93.40956116 75.86921692 C93.41692505 72.29480603 93.40624309 68.72102078 93.38285828 65.14668274 C93.35437014 60.56975762 93.37077679 55.99429842 93.4007206 51.41742706 C93.41880702 47.89313249 93.41302952 44.36918427 93.40008163 40.84487915 C93.39675131 39.15761134 93.40082161 37.47031187 93.4124794 35.78308105 C93.42521118 33.42248011 93.40578297 31.06423733 93.37797546 28.70381165 C93.38809662 28.00963638 93.39821777 27.31546112 93.40864563 26.60025024 C93.33007445 22.99167257 92.7581391 21.18564009 90.66285706 18.21531677 C87.09327115 15.69731168 84.39357165 15.43868181 80.17436218 15.50019836 C79.43063858 15.49143677 78.68691498 15.48267517 77.9206543 15.47364807 C75.47142038 15.45170846 73.02400386 15.46618561 70.57475281 15.48310852 C68.86751459 15.47973878 67.16027872 15.47488483 65.45304871 15.46861267 C61.87863782 15.46124878 58.30485256 15.47193074 54.73051453 15.49531555 C50.1535894 15.52380369 45.57813021 15.50739704 41.00125885 15.47745323 C37.47696428 15.45936681 33.95301606 15.46514431 30.42871094 15.47809219 C28.74144313 15.48142252 27.05414366 15.47735222 25.36691284 15.46569443 C23.0063119 15.45296264 20.64806912 15.47239086 18.28764343 15.50019836 C17.59346817 15.49007721 16.89929291 15.47995605 16.18408203 15.4695282 C11.03192587 15.5817084 8.68487351 16.95969132 5.73100281 21.14717102 Z " fill="#04CAFC" transform="translate(63.26899719238281,52.85282897949219)"/>
<path d="M0 0 C12.24259968 -0.49465049 12.24259968 -0.49465049 15.78125 1.81640625 C18 4 18 4 20.3125 7.1875 C23.14006649 10.14658121 23.32956341 10.32746325 27.0625 10.5625 C31 11 31 11 33.0625 13.5625 C33.701875 14.366875 34.34125 15.17125 35 16 C41.20425898 17.03404316 42.4234021 15.71773193 48 12 C48 41.37 48 70.74 48 101 C18.3 101 -11.4 101 -42 101 C-40.35 99.02 -38.7 97.04 -37 95 C-36.16616698 91.41408529 -36.16616698 91.41408529 -37 88 C-38.2065625 87.0409375 -38.2065625 87.0409375 -39.4375 86.0625 C-40.283125 85.381875 -41.12875 84.70125 -42 84 C-42.12964538 82.05531935 -42.25732058 80.11038613 -42.359375 78.1640625 C-43.52494556 74.22670829 -46.8509685 72.14052819 -49.96875 69.6640625 C-52 68 -52 68 -53 66 C-53.1393329 61.66396021 -53.04254111 57.33919329 -53 53 C-47.72 53 -42.44 53 -37 53 C-36.93941406 54.64871094 -36.87882812 56.29742187 -36.81640625 57.99609375 C-36.73202063 60.143239 -36.64737165 62.29037391 -36.5625 64.4375 C-36.52318359 65.52611328 -36.48386719 66.61472656 -36.44335938 67.73632812 C-36.40146484 68.77080078 -36.35957031 69.80527344 -36.31640625 70.87109375 C-36.27974854 71.82943115 -36.24309082 72.78776855 -36.20532227 73.77514648 C-36.24165576 75.97138925 -36.24165576 75.97138925 -35 77 C-31.7014248 77.20445714 -28.40469733 77.3195829 -25.1015625 77.42578125 C-21.36490562 78.11758045 -21.06635314 79.00083601 -19 82 C-16.83160009 82.59292122 -16.83160009 82.59292122 -14.5 82.4375 C-13.7265625 82.43621094 -12.953125 82.43492187 -12.15625 82.43359375 C-9.4859653 81.89663433 -8.58811702 81.19548466 -7 79 C-6.39005888 76.27449733 -6.49733484 73.74180997 -7 71 C-8.44148975 68.81452316 -8.44148975 68.81452316 -11 68 C-15.73611959 67.42026702 -15.73611959 67.42026702 -19.875 69.375 C-21.06481812 71.01178511 -21.06481812 71.01178511 -22 73 C-25.3 73 -28.6 73 -32 73 C-32 66.4 -32 59.8 -32 53 C-30.55367187 52.97421875 -29.10734375 52.9484375 -27.6171875 52.921875 C-25.70309548 52.86557818 -23.78903415 52.8082312 -21.875 52.75 C-20.92367187 52.73582031 -19.97234375 52.72164062 -18.9921875 52.70703125 C-13.21614543 52.50647423 -9.45437105 52.03465828 -5 48 C-0.28968793 42.79968902 -0.34962354 37.8088337 -0.25 31.125 C-0.20552734 29.66320312 -0.20552734 29.66320312 -0.16015625 28.171875 C-0.08985662 25.78168759 -0.04261749 23.3908412 0 21 C6.6 21 13.2 21 20 21 C20 24.3 20 27.6 20 31 C18.68 31.66 17.36 32.32 16 33 C14.47153339 36.05693322 14.76757555 38.62984547 15 42 C15.81452316 44.55851025 15.81452316 44.55851025 18 46 C20.74180997 46.50266516 23.27449733 46.60994112 26 46 C28.19548466 44.41188298 28.89663433 43.5140347 29.43359375 40.84375 C29.43488281 40.0703125 29.43617188 39.296875 29.4375 38.5 C29.46650391 37.33984375 29.46650391 37.33984375 29.49609375 36.15625 C29.21361675 33.81781842 29.21361675 33.81781842 27.015625 32.6328125 C25 31 25 31 24.42578125 27.8984375 C24.36970703 26.15433594 24.36970703 26.15433594 24.3125 24.375 C24.52546947 20.37027969 24.52546947 20.37027969 23 17 C21.29436222 16.84259395 19.58272756 16.74906608 17.87109375 16.68359375 C16.31938477 16.62075195 16.31938477 16.62075195 14.73632812 16.55664062 C13.64771484 16.51732422 12.55910156 16.47800781 11.4375 16.4375 C10.34501953 16.39431641 9.25253906 16.35113281 8.12695312 16.30664062 C5.41813232 16.20018042 2.70908349 16.09955193 0 16 C0 10.72 0 5.44 0 0 Z " fill="#414244" transform="translate(177,124)"/>
<path d="M0 0 C0 5.28 0 10.56 0 16 C-7.92 16.33 -15.84 16.66 -24 17 C-24.0825 19.248125 -24.165 21.49625 -24.25 23.8125 C-24.390625 27.64453125 -24.390625 27.64453125 -25 31 C-27.02734375 32.66796875 -27.02734375 32.66796875 -29 34 C-29.51922721 36.17403523 -29.51922721 36.17403523 -29.3125 38.5 C-29.28800781 39.2734375 -29.26351563 40.046875 -29.23828125 40.84375 C-29.05644612 43.18084889 -29.05644612 43.18084889 -28 46 C-21.95036492 46.53466703 -21.95036492 46.53466703 -16.4375 44.4375 C-14.42024303 41.01693383 -14.3730117 38.90126052 -15 35 C-15.825 34.401875 -16.65 33.80375 -17.5 33.1875 C-18.325 32.465625 -19.15 31.74375 -20 31 C-20 27.7 -20 24.4 -20 21 C-13.4 21 -6.8 21 0 21 C-0.00902344 22.4953125 -0.01804688 23.990625 -0.02734375 25.53125 C0.0008111 27.52085952 0.03085946 29.51044286 0.0625 31.5 C0.04606445 32.97339844 0.04606445 32.97339844 0.02929688 34.4765625 C0.18675439 41.22474154 1.54953461 44.72970635 6.30639648 49.55664062 C9.21574307 52.03610683 11.26183268 52.16570591 15.0078125 52.31640625 C15.99394531 52.35830078 16.98007813 52.40019531 17.99609375 52.44335938 C19.02863281 52.48267578 20.06117187 52.52199219 21.125 52.5625 C22.68541016 52.62727539 22.68541016 52.62727539 24.27734375 52.69335938 C26.8513983 52.79962768 29.42568131 52.90033527 32 53 C32 59.6 32 66.2 32 73 C28.7 73 25.4 73 22 73 C20.61767557 71.37373596 19.28062485 69.7074998 18 68 C14.50632008 67.19652536 11.25341365 67.37329318 8 69 C6.36897223 72.26205554 6.48018494 75.43555389 7 79 C7.83333333 81.16666667 7.83333333 81.16666667 10 82 C14.07480609 82.52427046 14.07480609 82.52427046 18 82 C18.60585937 81.34515625 19.21171875 80.6903125 19.8359375 80.015625 C22.76004126 77.29209154 24.75062154 77.44034936 28.6875 77.3125 C32.66068313 77.52131072 32.66068313 77.52131072 36 76 C36.15740605 74.29436222 36.25093392 72.58272756 36.31640625 70.87109375 C36.35830078 69.83662109 36.40019531 68.80214844 36.44335938 67.73632812 C36.48267578 66.64771484 36.52199219 65.55910156 36.5625 64.4375 C36.60568359 63.34501953 36.64886719 62.25253906 36.69335938 61.12695312 C36.79981958 58.41813232 36.90044807 55.70908349 37 53 C42.28 53 47.56 53 53 53 C54.21704159 64.44019091 54.21704159 64.44019091 50.80859375 68.80859375 C48.98671889 70.46979117 47.14151846 72.10578242 45.2734375 73.71484375 C42.85871362 76.14201466 42.34717385 77.04027299 42.1875 80.375 C42.0946875 82.169375 42.0946875 82.169375 42 84 C40.33729713 85.33827304 38.67083819 86.67189785 37 88 C35.96595684 94.20425898 37.28226807 95.4234021 41 101 C11.63 101 -17.74 101 -48 101 C-48 71.3 -48 41.6 -48 11 C-46.35 12.65 -44.7 14.3 -43 16 C-39.5 16.83333333 -39.5 16.83333333 -36 16 C-34.31237149 14.3545622 -32.6459651 12.68711423 -31 11 C-28.67284 10.62599214 -26.33882138 10.29235267 -24 10 C-20.2172809 7.53683407 -17.76476468 4.52745839 -15 1 C-10.73840618 -1.13079691 -4.59236298 -0.04502317 0 0 Z " fill="#414244" transform="translate(48,124)"/>
<path d="M0 0 C29.7 0 59.4 0 90 0 C90 29.37 90 58.74 90 89 C88.02 87.68 86.04 86.36 84 85 C80.41456334 84.24954494 80.41456334 84.24954494 77 85 C76.360625 85.804375 75.72125 86.60875 75.0625 87.4375 C74.381875 88.283125 73.70125 89.12875 73 90 C71.08477363 90.09906343 69.16949821 90.19733986 67.25390625 90.2890625 C63.95531855 91.32951824 62.54808355 93.46704202 60.3125 96.0625 C57.32470667 99.33928426 55.87575228 100.83609952 51.47265625 101.66015625 C47.875 101.625 47.875 101.625 42 101 C42 95.72 42 90.44 42 85 C43.64871094 84.93941406 45.29742187 84.87882812 46.99609375 84.81640625 C49.143239 84.73202063 51.29037391 84.64737165 53.4375 84.5625 C54.52611328 84.52318359 55.61472656 84.48386719 56.73632812 84.44335938 C58.28803711 84.38051758 58.28803711 84.38051758 59.87109375 84.31640625 C60.82943115 84.27974854 61.78776855 84.24309082 62.77514648 84.20532227 C64.97138925 84.24165576 64.97138925 84.24165576 66 83 C66.23481693 80.81707226 66.41363323 78.62796826 66.5625 76.4375 C66.68818359 74.64119141 66.68818359 74.64119141 66.81640625 72.80859375 C66.87699219 71.88175781 66.93757813 70.95492187 67 70 C67.99 69.67 68.98 69.34 70 69 C71.25231915 65.24304254 71.57284093 61.92805209 71 58 C69.55851025 55.81452316 69.55851025 55.81452316 67 55 C63.60155579 54.64226903 61.14126742 54.41095875 58.0625 56 C56.34616479 59.23074864 56.19347734 62.49306664 57 66 C57.825 66.61875 58.65 67.2375 59.5 67.875 C60.325 68.57625 61.15 69.2775 62 70 C62 73.3 62 76.6 62 80 C55.4 80 48.8 80 42 80 C41.99613281 77.73962891 41.99613281 77.73962891 41.9921875 75.43359375 C41.95465272 73.43486656 41.91550501 71.4361692 41.875 69.4375 C41.87757813 68.44685547 41.88015625 67.45621094 41.8828125 66.43554688 C41.71979314 60.30194356 40.92862588 56.75547244 36.57470703 52.32446289 C33.22659718 49.50841701 31.18198698 48.73463539 26.89453125 48.5859375 C25.91162109 48.54726563 24.92871094 48.50859375 23.91601562 48.46875 C22.37977539 48.42234375 22.37977539 48.42234375 20.8125 48.375 C19.77673828 48.33632813 18.74097656 48.29765625 17.67382812 48.2578125 C15.11617973 48.16352131 12.55811422 48.08067082 10 48 C10 41.4 10 34.8 10 28 C13.3 28 16.6 28 20 28 C22.1875 30.5 22.1875 30.5 24 33 C27.96569988 33.63734462 30.03280512 33.61999672 33.4375 31.4375 C35.58016848 28.09493717 35.49573337 25.89504791 35 22 C33.60414215 20.18523997 33.60414215 20.18523997 32 19 C32 18.34 32 17.68 32 17 C30.7625 17.061875 29.525 17.12375 28.25 17.1875 C27.55390625 17.22230469 26.8578125 17.25710937 26.140625 17.29296875 C23.73185534 17.8572155 23.73185534 17.8572155 22.1875 20.5 C20 23 20 23 16.546875 23.70703125 C13.03125 23.8046875 9.515625 23.90234375 6 24 C5.67 31.92 5.34 39.84 5 48 C-0.28 48 -5.56 48 -11 48 C-11.49541765 35.7384132 -11.49541765 35.7384132 -9.15234375 32.24609375 C-6.8020423 29.79341982 -4.43481239 27.36900665 -2 25 C-0.63392985 23.85086031 -0.63392985 23.85086031 -0.75 20.75 C0 17 0 17 2.5625 14.5 C5.31136787 12.14860069 5.31136787 12.14860069 5.625 8.5 C5.21183261 4.25884484 5.21183261 4.25884484 0 0 Z " fill="#414244" transform="translate(135,0)"/>
<path d="M0 0 C29.37 0 58.74 0 89 0 C87.68 1.65 86.36 3.3 85 5 C84.54206715 9.42668417 84.5084096 11.2626144 87 15 C87.99 15.33 88.98 15.66 90 16 C90.061875 17.19625 90.12375 18.3925 90.1875 19.625 C90.77236292 24.29566584 92.69759206 26.62253733 96 30 C96.928125 30.680625 97.85625 31.36125 98.8125 32.0625 C102.4610235 36.96194584 101.3013097 42.034068 101 48 C95.72 48 90.44 48 85 48 C84.93941406 46.35128906 84.87882812 44.70257813 84.81640625 43.00390625 C84.73202063 40.856761 84.64737165 38.70962609 84.5625 36.5625 C84.52318359 35.47388672 84.48386719 34.38527344 84.44335938 33.26367188 C84.40146484 32.22919922 84.35957031 31.19472656 84.31640625 30.12890625 C84.27974854 29.17056885 84.24309082 28.21223145 84.20532227 27.22485352 C84.24165576 25.02861075 84.24165576 25.02861075 83 24 C80.81707226 23.76518307 78.62796826 23.58636677 76.4375 23.4375 C75.23996094 23.35371094 74.04242188 23.26992188 72.80859375 23.18359375 C71.41833984 23.09271484 71.41833984 23.09271484 70 23 C69.505 21.515 69.505 21.515 69 20 C67.515 19.505 67.515 19.505 66 19 C66 18.34 66 17.68 66 17 C60.78737637 18.03913703 60.78737637 18.03913703 56 20.1875 C54.34837909 23.18106289 54.6487258 25.66289514 55 29 C55.81452316 31.55851025 55.81452316 31.55851025 58 33 C62.08180645 33.59581444 62.08180645 33.59581444 66 33 C66.61875 32.175 67.2375 31.35 67.875 30.5 C68.926875 29.2625 68.926875 29.2625 70 28 C73.3 28 76.6 28 80 28 C80 34.6 80 41.2 80 48 C78.48148437 48.02578125 76.96296875 48.0515625 75.3984375 48.078125 C73.3905968 48.1344196 71.38278541 48.19176663 69.375 48.25 C68.37597656 48.26417969 67.37695312 48.27835938 66.34765625 48.29296875 C60.4679816 48.48765996 56.52580327 48.85967524 52 53 C47.86770853 57.60807769 48.44398436 63.44078419 48.3125 69.3125 C48.27833984 70.33923828 48.24417969 71.36597656 48.20898438 72.42382812 C48.12677464 74.94884141 48.06170373 77.47440241 48 80 C41.4 80 34.8 80 28 80 C28 70 28 70 30.5 67.3125 C31.325 66.549375 32.15 65.78625 33 65 C33.75045506 61.41456334 33.75045506 61.41456334 33 58 C31.53958234 55.88329643 31.53958234 55.88329643 29 55 C24.35579816 54.48003727 24.35579816 54.48003727 20.125 56.125 C18.53882449 58.76862586 18.18774703 60.93346518 18 64 C19.12018899 67.36056696 19.94534099 67.96356066 23 70 C23.4765625 73.00390625 23.4765625 73.00390625 23.625 76.5625 C23.44632053 80.59983583 23.44632053 80.59983583 25 84 C26.70563778 84.15740605 28.41727244 84.25093392 30.12890625 84.31640625 C31.16337891 84.35830078 32.19785156 84.40019531 33.26367188 84.44335938 C34.35228516 84.48267578 35.44089844 84.52199219 36.5625 84.5625 C37.65498047 84.60568359 38.74746094 84.64886719 39.87304688 84.69335938 C42.58186768 84.79981958 45.29091651 84.90044807 48 85 C48 90.28 48 95.56 48 101 C35.82567568 101.61486486 35.82567568 101.61486486 32.0625 98.8125 C31.381875 97.884375 30.70125 96.95625 30 96 C26.61738643 92.69255562 24.44835079 90.80283288 19.75 90.4375 C18.5125 90.293125 17.275 90.14875 16 90 C14.625 88 14.625 88 14 86 C10.89951072 84.44975536 8.42105782 84.71007985 5 85 C3.35 86.32 1.7 87.64 0 89 C0 59.63 0 30.26 0 0 Z " fill="#414244" transform="translate(0,0)"/>
<path d="M0 0 C0.74051102 -0.00525696 1.48102203 -0.01051392 2.24397278 -0.01593018 C4.68321047 -0.02909485 7.12179122 -0.02040314 9.56103516 -0.01025391 C11.26347986 -0.0122761 12.96592373 -0.01518874 14.66836548 -0.01895142 C18.2342352 -0.02337034 21.79987921 -0.01695929 25.36572266 -0.00292969 C29.92419157 0.014136 34.48212953 0.00433504 39.04057884 -0.01364708 C42.55630448 -0.02451886 46.07190553 -0.0210226 49.58763504 -0.0132637 C51.26766651 -0.01126972 52.94770948 -0.01369268 54.62772751 -0.02070236 C56.98258897 -0.02837007 59.33660715 -0.0166382 61.69140625 0 C62.37839096 -0.00607269 63.06537567 -0.01214539 63.7731781 -0.0184021 C68.62084141 0.04466035 72.24466254 1.02486542 76.47509766 3.38818359 C79.89377937 7.31127752 79.91505805 11.30458902 79.89501953 16.29614258 C79.90348907 17.07727417 79.91195862 17.85840576 79.92068481 18.66320801 C79.94402222 21.23706487 79.94507781 23.81032283 79.94384766 26.38427734 C79.950951 28.17879982 79.95865025 29.97332004 79.96691895 31.76783752 C79.98035609 35.52619747 79.98193588 39.28434738 79.97607422 43.04272461 C79.9701775 47.85261467 80.00077166 52.66149557 80.0411911 57.47119045 C80.06707369 61.17647201 80.06994505 64.8815107 80.06629944 68.58687019 C80.06799003 70.35985921 80.0776268 72.13285951 80.09544373 73.90575981 C80.11764666 76.38813201 80.10792683 78.86846328 80.09033203 81.35083008 C80.10359528 82.07881302 80.11685852 82.80679596 80.13052368 83.55683899 C80.03726979 89.23560748 78.35803112 91.54485553 74.47509766 95.38818359 C71.43447606 96.90849439 68.2614693 96.57059454 64.92358398 96.59692383 C64.14449677 96.60670761 63.36540955 96.61649139 62.56271362 96.62657166 C59.97753613 96.65654896 57.39241059 96.67792021 54.80712891 96.69677734 C53.92406256 96.70334917 53.04099621 96.709921 52.13117027 96.71669197 C47.45473202 96.74929958 42.77831666 96.77374414 38.10180664 96.79321289 C34.2342808 96.81101125 30.36748612 96.84580512 26.50024414 96.89575195 C21.82942848 96.95600804 17.1592897 96.9866964 12.48810387 96.99638557 C10.71030494 97.00493432 8.9325238 97.02373829 7.15494728 97.0531292 C-8.50981658 97.29813697 -8.50981658 97.29813697 -13.1081543 93.53686523 C-16.59900138 88.98878413 -16.68102678 85.48870067 -16.7019043 79.98266602 C-16.70847549 79.23108719 -16.71504669 78.47950836 -16.72181702 77.70515442 C-16.74152702 75.21798602 -16.75320721 72.73087793 -16.76318359 70.24365234 C-16.76725912 69.3933526 -16.77133465 68.54305286 -16.77553368 67.66698647 C-16.79638422 63.16674671 -16.81069055 58.66653736 -16.82006836 54.16625977 C-16.83113313 49.52240595 -16.86553649 44.87903125 -16.90524006 40.23534679 C-16.93140535 36.66049824 -16.93976008 33.08576391 -16.94334984 29.51082802 C-16.94821572 27.79923579 -16.95982982 26.08764866 -16.97838783 24.37615013 C-17.00277911 21.97767697 -17.00181485 19.5804444 -16.99487305 17.18188477 C-17.00768311 16.47881195 -17.02049316 15.77573914 -17.03369141 15.05136108 C-16.98098172 10.03973646 -15.74371697 7.19527243 -12.52490234 3.38818359 C-8.56374209 0.17236903 -4.92879662 -0.0433135 0 0 Z M-11.52490234 10.38818359 C-12.02117636 13.11674849 -12.21154753 15.22382146 -12.171875 17.94482422 C-12.1806366 18.68854782 -12.18939819 19.43227142 -12.19842529 20.1985321 C-12.2203649 22.64776602 -12.20588775 25.09518255 -12.18896484 27.54443359 C-12.19233459 29.25167181 -12.19718853 30.95890768 -12.20346069 32.6661377 C-12.21082459 36.24054858 -12.20014263 39.81433384 -12.17675781 43.38867188 C-12.14826967 47.965597 -12.16467633 52.54105619 -12.19462013 57.11792755 C-12.21270656 60.64222212 -12.20692906 64.16617034 -12.19398117 67.69047546 C-12.19065084 69.37774327 -12.19472115 71.06504274 -12.20637894 72.75227356 C-12.21911072 75.11287451 -12.19968251 77.47111728 -12.171875 79.83154297 C-12.18199615 80.52571823 -12.19211731 81.21989349 -12.20254517 81.93510437 C-12.12397399 85.54368205 -11.55203863 87.34971452 -9.45675659 90.32003784 C-5.88717069 92.83804293 -3.18747119 93.09667281 1.03173828 93.03515625 C1.77546188 93.04391785 2.51918549 93.05267944 3.28544617 93.06170654 C5.73468009 93.08364615 8.18209661 93.069169 10.63134766 93.05224609 C12.33858587 93.05561584 14.04582174 93.06046978 15.75305176 93.06674194 C19.32746264 93.07410584 22.9012479 93.06342388 26.47558594 93.04003906 C31.05251106 93.01155092 35.62797025 93.02795758 40.20484161 93.05790138 C43.72913618 93.07598781 47.2530844 93.07021031 50.77738953 93.05726242 C52.46465733 93.05393209 54.1519568 93.0580024 55.83918762 93.06966019 C58.19978857 93.08239197 60.55803134 93.06296376 62.91845703 93.03515625 C63.61263229 93.0452774 64.30680756 93.05539856 65.02201843 93.06582642 C68.63059611 92.98725524 70.43662858 92.41531988 73.4069519 90.32003784 C75.92495699 86.75045194 76.18358687 84.05075244 76.12207031 79.83154297 C76.13521271 78.71595757 76.13521271 78.71595757 76.14862061 77.57783508 C76.17056022 75.12860116 76.15608307 72.68118464 76.13916016 70.23193359 C76.1425299 68.52469538 76.14738384 66.81745951 76.15365601 65.11022949 C76.1610199 61.53581861 76.15033794 57.96203335 76.12695312 54.38769531 C76.09846498 49.81077019 76.11487164 45.235311 76.14481544 40.65843964 C76.16290187 37.13414507 76.15712437 33.61019685 76.14417648 30.08589172 C76.14084616 28.39862392 76.14491646 26.71132445 76.15657425 25.02409363 C76.16930603 22.66349268 76.14987782 20.30524991 76.12207031 17.94482422 C76.13219147 17.25064896 76.14231262 16.55647369 76.15274048 15.84126282 C76.0741693 12.23268514 75.50223395 10.42665267 73.4069519 7.45632935 C69.837366 4.93832426 67.1376665 4.67969438 62.91845703 4.74121094 C62.17473343 4.73244934 61.43100983 4.72368774 60.66474915 4.71466064 C58.21551523 4.69272103 55.7680987 4.70719818 53.31884766 4.72412109 C51.61160944 4.72075135 49.90437357 4.71589741 48.19714355 4.70962524 C44.62273267 4.70226135 41.04894741 4.71294331 37.47460938 4.73632812 C32.89768425 4.76481627 28.32222506 4.74840961 23.7453537 4.71846581 C20.22105913 4.70037938 16.69711091 4.70615688 13.17280579 4.71910477 C11.48553798 4.72243509 9.79823851 4.71836479 8.11100769 4.706707 C5.75040674 4.69397522 3.39216397 4.71340343 1.03173828 4.74121094 C0.33756302 4.73108978 -0.35661224 4.72096863 -1.07182312 4.71054077 C-6.22397928 4.82272097 -8.57103165 6.20070389 -11.52490234 10.38818359 Z " fill="#018ECC" transform="translate(80.52490234375,63.61181640625)"/>
<path d="M0 0 C1.65 1.65 3.3 3.3 5 5 C8 5.83333333 8 5.83333333 11 5 C11.825 4.175 12.65 3.35 13.5 2.5 C16 0 16 0 18.8828125 -0.46484375 C23.02891157 0.15343418 23.84014099 1.6751273 26.375 4.9375 C30.24795892 9.14904582 32.85874303 10.62323319 38.41259766 11.06079102 C41.6219224 11.15393297 44.79140265 11.13535026 48 11 C48 15.29 48 19.58 48 24 C46.96101563 23.95617187 45.92203125 23.91234375 44.8515625 23.8671875 C36.35270443 23.71511771 36.35270443 23.71511771 28.88671875 27.29296875 C26.30036719 30.00113367 26.30036719 30.00113367 24.11328125 32.84765625 C22 35 22 35 19.23046875 35.30859375 C18.49441406 35.20675781 17.75835938 35.10492188 17 35 C16.67 34.01 16.34 33.02 16 32 C11.84546256 29.55615445 8.58989511 29.83166306 4 31 C2.68 32.32 1.36 33.64 0 35 C0 23.45 0 11.9 0 0 Z " fill="#414244" transform="translate(0,95)"/>
<path d="M0 0 C11.55 0 23.1 0 35 0 C33.35 1.98 31.7 3.96 30 6 C30.12550048 9.7022643 30.83460504 12.50381513 32 16 C32.99 16.33 33.98 16.66 35 17 C35.30859375 19.23046875 35.30859375 19.23046875 35 22 C32.84765625 24.11328125 32.84765625 24.11328125 30.0625 26.3125 C25.86820953 30.21100129 24.3775733 32.85500734 23.93920898 38.41479492 C23.84599588 41.62338143 23.86468076 44.79213804 24 48 C19.71 48 15.42 48 11 48 C11.04382813 46.96101563 11.08765625 45.92203125 11.1328125 44.8515625 C11.29397888 36.36321025 11.29397888 36.36321025 7.70703125 28.921875 C4.99998557 26.36184549 4.99998557 26.36184549 2.15234375 24.2109375 C0 22 0 22 -0.46484375 18.8828125 C0.163722 14.98464844 2.25754297 13.74245703 5 11 C5.83333333 8 5.83333333 8 5 5 C3.35 3.35 1.7 1.7 0 0 Z " fill="#414244" transform="translate(95,0)"/>
<path d="M0 0 C4.29 0 8.58 0 13 0 C12.95617187 1.03898438 12.91234375 2.07796875 12.8671875 3.1484375 C12.71511771 11.64729557 12.71511771 11.64729557 16.29296875 19.11328125 C19.00113367 21.69963281 19.00113367 21.69963281 21.84765625 23.88671875 C24 26 24 26 24.46484375 28.6171875 C24 31 24 31 21.5 33.4375 C18.77463034 35.77467575 18.77463034 35.77467575 18.375 38.9375 C18.92679355 42.87522379 18.92679355 42.87522379 24 48 C12.45 48 0.9 48 -11 48 C-9.35 46.02 -7.7 44.04 -6 42 C-5.46396389 39.55351547 -5.46396389 39.55351547 -5.9375 37.25 C-6.02902344 36.49203125 -6.12054688 35.7340625 -6.21484375 34.953125 C-6.8514548 32.80852231 -6.8514548 32.80852231 -9.06640625 31.734375 C-9.70449219 31.49203125 -10.34257813 31.2496875 -11 31 C-11.30859375 28.76953125 -11.30859375 28.76953125 -11 26 C-8.84765625 23.88671875 -8.84765625 23.88671875 -6.0625 21.6875 C-1.86820953 17.78899871 -0.3775733 15.14499266 0.06079102 9.58520508 C0.15400412 6.37661857 0.13531924 3.20786196 0 0 Z " fill="#414244" transform="translate(106,177)"/>
<path d="M0 0 C0.73605469 0.10183594 1.47210938 0.20367187 2.23046875 0.30859375 C2.59398437 1.26572266 2.59398437 1.26572266 2.96484375 2.2421875 C4.03899106 4.45713895 4.03899106 4.45713895 6.18359375 5.09375 C6.9415625 5.18527344 7.69953125 5.27679688 8.48046875 5.37109375 C9.228125 5.48582031 9.97578125 5.60054688 10.74609375 5.71875 C14.19239439 5.36522382 14.19239439 5.36522382 19.23046875 0.30859375 C19.23046875 11.85859375 19.23046875 23.40859375 19.23046875 35.30859375 C17.25046875 33.65859375 15.27046875 32.00859375 13.23046875 30.30859375 C10.18706748 29.47509424 10.18706748 29.47509424 7.23046875 30.30859375 C5.54335452 31.95455885 3.87590655 33.62096524 2.23046875 35.30859375 C-0.15234375 35.7734375 -0.15234375 35.7734375 -2.76953125 35.30859375 C-4.8828125 33.15625 -4.8828125 33.15625 -7.08203125 30.37109375 C-10.98053254 26.17680328 -13.62453859 24.68616705 -19.18432617 24.24780273 C-22.39291268 24.15458963 -25.56166929 24.17327451 -28.76953125 24.30859375 C-28.76953125 20.01859375 -28.76953125 15.72859375 -28.76953125 11.30859375 C-27.73054687 11.35242188 -26.6915625 11.39625 -25.62109375 11.44140625 C-17.12223568 11.59347604 -17.12223568 11.59347604 -9.65625 8.015625 C-7.06989844 5.30746008 -7.06989844 5.30746008 -4.8828125 2.4609375 C-2.76953125 0.30859375 -2.76953125 0.30859375 0 0 Z " fill="#414244" transform="translate(205.76953125,94.69140625)"/>
<path d="M0 0 C1.32 0 2.64 0 4 0 C3.37893227 5.61700965 1.39447379 10.39171272 -0.75 15.5625 C-1.4786249 17.34734606 -2.20648904 19.13250286 -2.93359375 20.91796875 C-3.2879248 21.78470215 -3.64225586 22.65143555 -4.00732422 23.54443359 C-5.71122663 27.75935009 -7.30454647 32.0143447 -8.89453125 36.2734375 C-10.10966662 39.27048516 -11.52037763 42.12554737 -13 45 C-14.32 45 -15.64 45 -17 45 C-16.37941094 39.44168061 -14.43959763 34.73974305 -12.3125 29.625 C-11.58568673 27.8482907 -10.86044755 26.07093672 -10.13671875 24.29296875 C-9.77626465 23.40786621 -9.41581055 22.52276367 -9.04443359 21.61083984 C-7.2355006 17.0889302 -5.55641276 12.51897903 -3.90356445 7.93798828 C-2.8249719 4.99354342 -1.75279568 2.62919352 0 0 Z " fill="#0C91CD" transform="translate(119,90)"/>
<path d="M0 0 C0.99 0.33 1.98 0.66 3 1 C2.91096553 3.93813755 2.36987295 5.6101104 0.33984375 7.75 C-0.95226412 8.94192456 -2.26593101 10.11096468 -3.6015625 11.25390625 C-5.22047866 12.88717307 -5.22047866 12.88717307 -4.93359375 14.99609375 C-3.47359749 18.12989325 -1.05014 19.95762254 1.50390625 22.21875 C3 24 3 24 3 28 C-1.35091823 27.50557747 -3.26177899 26.21609965 -6.25 23.0625 C-6.93578125 22.35222656 -7.6215625 21.64195313 -8.328125 20.91015625 C-10.39028352 18.55409196 -10.94709813 17.35912229 -11.40625 14.2421875 C-10.85950282 9.87872446 -8.61818571 7.9443915 -5.5 5.125 C-4.97535156 4.62742187 -4.45070313 4.12984375 -3.91015625 3.6171875 C-2.61995498 2.39736085 -1.31168268 1.19669751 0 0 Z " fill="#1293CE" transform="translate(94,98)"/>
<path d="M0 0 C4.51165938 0.48882988 6.61675749 2.02355592 9.8125 5.1875 C10.99779297 6.32251953 10.99779297 6.32251953 12.20703125 7.48046875 C14.45169632 10.63473666 14.60107847 12.20318765 14 16 C12.57421875 18.23046875 12.57421875 18.23046875 10.6875 20.1875 C10.07261719 20.84105469 9.45773438 21.49460937 8.82421875 22.16796875 C8.22222656 22.77253906 7.62023437 23.37710938 7 24 C6.51144531 24.57363281 6.02289063 25.14726563 5.51953125 25.73828125 C4 27 4 27 0 27 C0.08903447 24.06186245 0.63012705 22.3898896 2.66015625 20.25 C3.95226412 19.05807544 5.26593101 17.88903532 6.6015625 16.74609375 C8.22047866 15.11282693 8.22047866 15.11282693 7.93359375 13.00390625 C6.47359749 9.87010675 4.05014 8.04237746 1.49609375 5.78125 C0 4 0 4 0 0 Z " fill="#0D92CE" transform="translate(128,99)"/>
<path d="M0 0 C1.67542976 0.28604898 3.34385343 0.61781233 5 1 C5.625 2.875 5.625 2.875 6 5 C5.34 5.66 4.68 6.32 4 7 C0.875 6.625 0.875 6.625 -2 6 C-1.125 1.125 -1.125 1.125 0 0 Z " fill="#0FC5F6" transform="translate(7,129)"/>
<path d="M0 0 C1.32 0 2.64 0 4 0 C4.625 2.875 4.625 2.875 5 6 C4.34 6.66 3.68 7.32 3 8 C0.875 7.625 0.875 7.625 -1 7 C-1.625 4.625 -1.625 4.625 -2 2 C-1.34 1.34 -0.68 0.68 0 0 Z " fill="#0FC5F6" transform="translate(131,5)"/>
<path d="M0 0 C1.65 0 3.3 0 5 0 C5.33 1.65 5.66 3.3 6 5 C4.35 5.66 2.7 6.32 1 7 C0.01 6.01 -0.98 5.02 -2 4 C-1.34 2.68 -0.68 1.36 0 0 Z " fill="#12C7F7" transform="translate(197,59)"/>
<path d="M0 0 C1.2065625 0.0309375 1.2065625 0.0309375 2.4375 0.0625 C3.0625 2.4375 3.0625 2.4375 3.4375 5.0625 C2.7775 5.7225 2.1175 6.3825 1.4375 7.0625 C0.1175 7.0625 -1.2025 7.0625 -2.5625 7.0625 C-2.94383299 5.0710944 -3.27575582 3.06970923 -3.5625 1.0625 C-2.5625 0.0625 -2.5625 0.0625 0 0 Z " fill="#0FC8F9" transform="translate(92.5625,212.9375)"/>
<path d="M0 0 C2.00720923 0.28674418 4.0085944 0.61866701 6 1 C5.67 2.65 5.34 4.3 5 6 C3.34385343 6.38218767 1.67542976 6.71395102 0 7 C-1 6 -1 6 -1.125 3.5 C-1 1 -1 1 0 0 Z " fill="#0FC8F9" transform="translate(214,89)"/>
<path d="M0 0 C1.67542976 0.28604898 3.34385343 0.61781233 5 1 C5.625 2.875 5.625 2.875 6 5 C5.34 5.66 4.68 6.32 4 7 C1.375 6.625 1.375 6.625 -1 6 C-1.042721 4.33388095 -1.04063832 2.66617115 -1 1 C-0.67 0.67 -0.34 0.34 0 0 Z " fill="#10C9F9" transform="translate(214,129)"/>
<path d="M0 0 C-0.33 1.98 -0.66 3.96 -1 6 C-2.65 5.67 -4.3 5.34 -6 5 C-6.33 3.35 -6.66 1.7 -7 0 C-4.3333581 -1.33332095 -2.83319697 -0.67102033 0 0 Z " fill="#0DC8F9" transform="translate(12,90)"/>
<path d="M0 0 C1.65 0.33 3.3 0.66 5 1 C5.33 2.65 5.66 4.3 6 6 C4.02 6.33 2.04 6.66 0 7 C-1.125 2.25 -1.125 2.25 0 0 Z " fill="#0EC8F9" transform="translate(90,5)"/>
<path d="M0 0 C1.125 3.75 1.125 3.75 0 6 C-1.66611905 6.042721 -3.33382885 6.04063832 -5 6 C-6 5 -6 5 -6.0625 2.4375 C-6.041875 1.633125 -6.02125 0.82875 -6 0 C-3.50907189 -1.24546405 -2.58919267 -0.7767578 0 0 Z " fill="#12C9F9" transform="translate(202,160)"/>
<path d="M0 0 C1.65 0.33 3.3 0.66 5 1 C5.042721 2.66611905 5.04063832 4.33382885 5 6 C4 7 4 7 1.4375 7.0625 C0.2309375 7.0315625 0.2309375 7.0315625 -1 7 C-1.625 5.1875 -1.625 5.1875 -2 3 C-1.34 2.01 -0.68 1.02 0 0 Z " fill="#10C9FA" transform="translate(161,22)"/>
<path d="M0 0 C1.67542976 0.28604898 3.34385343 0.61781233 5 1 C5.625 2.875 5.625 2.875 6 5 C5.34 5.66 4.68 6.32 4 7 C1.875 6.625 1.875 6.625 0 6 C-0.38218767 4.34385343 -0.71395102 2.67542976 -1 1 C-0.67 0.67 -0.34 0.34 0 0 Z " fill="#0DCAFB" transform="translate(130,213)"/>
<path d="M0 0 C1.65 0 3.3 0 5 0 C5.33 1.65 5.66 3.3 6 5 C4.02 5.99 4.02 5.99 2 7 C1.01 6.34 0.02 5.68 -1 5 C-0.67 3.35 -0.34 1.7 0 0 Z " fill="#10C9F9" transform="translate(160,196)"/>
<path d="M0 0 C1.2065625 0.0309375 1.2065625 0.0309375 2.4375 0.0625 C3.125 1.875 3.125 1.875 3.4375 4.0625 C2.25 5.875 2.25 5.875 0.4375 7.0625 C-1.75 6.75 -1.75 6.75 -3.5625 6.0625 C-3.605221 4.39638095 -3.60313832 2.72867115 -3.5625 1.0625 C-2.5625 0.0625 -2.5625 0.0625 0 0 Z " fill="#10CAFA" transform="translate(62.5625,195.9375)"/>
<path d="M0 0 C1.32 0.66 2.64 1.32 4 2 C3.67 3.65 3.34 5.3 3 7 C1.35 7 -0.3 7 -2 7 C-2.33 5.35 -2.66 3.7 -3 2 C-2.01 1.34 -1.02 0.68 0 0 Z " fill="#12CAFA" transform="translate(25,159)"/>
<path d="M0 0 C1.65 0 3.3 0 5 0 C5.33 1.65 5.66 3.3 6 5 C4.02 5.99 4.02 5.99 2 7 C0.4375 5.75 0.4375 5.75 -1 4 C-0.6875 1.8125 -0.6875 1.8125 0 0 Z " fill="#12CBFB" transform="translate(23,59)"/>
<path d="M0 0 C0.625 1.875 0.625 1.875 1 4 C0.34 4.66 -0.32 5.32 -1 6 C-3.625 5.625 -3.625 5.625 -6 5 C-6 3.35 -6 1.7 -6 0 C-3.50907189 -1.24546405 -2.58919267 -0.7767578 0 0 Z " fill="#10CCFB" transform="translate(65,23)"/>
</svg>
