<?xml version="1.0" encoding="UTF-8"?>
<svg version="1.1" xmlns="http://www.w3.org/2000/svg" viewBox="22 20 180 200">
<path d="M0 0 C74.25 0 148.5 0 225 0 C225 74.25 225 148.5 225 225 C150.75 225 76.5 225 0 225 C0 150.75 0 76.5 0 0 Z " fill="transparent" transform="translate(0,0)"/>
<path d="M0 0 C0 1.32 0 2.64 0 4 C-0.58789307 4.01458252 -1.17578613 4.02916504 -1.78149414 4.04418945 C-18.50448243 4.50568196 -33.68641864 5.60796695 -49 13 C-50.35158203 13.62841797 -50.35158203 13.62841797 -51.73046875 14.26953125 C-71.29249858 24.06466018 -84.97513799 41.78312003 -92.125 62.21484375 C-98.34318391 84.00838256 -96.6263824 109.65702688 -85.54296875 129.625 C-72.87235922 150.51518526 -56.05175383 163.05891468 -33 170.5 C-9.67817419 176.03273102 14.74106001 171.45359796 35 159 C38.57891721 156.55939069 41.81028596 153.92670253 45 151 C45.75539062 150.33613281 46.51078125 149.67226562 47.2890625 148.98828125 C62.7051806 134.65817834 71.24282267 113.78045951 72.3515625 92.92578125 C73.00758179 69.86384145 66.32729239 48.6334556 50.6484375 31.41796875 C48.80602735 29.55928289 46.94307309 27.75247191 45 26 C45.99 25.01 46.98 24.02 48 23 C63.62838274 34.93047525 73.98072951 56.71682794 76.77294922 75.89794922 C78.08906082 88.08259531 77.66308664 100.26864926 74 112 C73.7215625 112.98871094 73.443125 113.97742188 73.15625 114.99609375 C69.64917247 126.62084644 63.80622035 136.75291188 56 146 C55.53078125 146.60199219 55.0615625 147.20398438 54.578125 147.82421875 C44.25046055 160.73379931 28.47895641 168.96743289 13 174 C12.05640625 174.3196875 11.1128125 174.639375 10.140625 174.96875 C-11.69081818 181.20630519 -35.64251149 177.00330314 -55.26953125 166.2421875 C-61.29982397 162.73325517 -66.70430163 158.52309649 -72 154 C-72.66257812 153.43925781 -73.32515625 152.87851563 -74.0078125 152.30078125 C-88.58925807 138.83837685 -99.11418796 117.33489704 -100.12646484 97.52514648 C-100.80734938 73.43180877 -96.92396705 51.94559267 -81 33 C-80.28972656 32.14019531 -79.57945313 31.28039062 -78.84765625 30.39453125 C-65.16096818 14.49488132 -45.74538515 2.89498546 -24.7265625 0.234375 C-16.49466126 -0.28335464 -8.24304406 -0.15197784 0 0 Z " fill="#A6A6A7" transform="translate(124,29)"/>
<path d="M0 0 C14.52 0 29.04 0 44 0 C44 9.24 44 18.48 44 28 C41.525 27.01 41.525 27.01 39 26 C32.58945287 25.23957648 26.43208303 25.28251323 20.75390625 28.58984375 C16.6613003 31.88033539 13.65522812 36.03431564 12 41 C11.93029948 43.39490986 11.91551997 45.79167691 11.9375 48.1875 C11.94652344 49.45980469 11.95554687 50.73210937 11.96484375 52.04296875 C11.97644531 53.01878906 11.98804687 53.99460938 12 55 C8.04 55 4.08 55 0 55 C0 36.85 0 18.7 0 0 Z " fill="#64A1D7" transform="translate(67,86)"/>
<path d="M0 0 C2.31 0.33 4.62 0.66 7 1 C7 2.65 7 4.3 7 6 C9.45087825 7.31970367 11.35961677 8.07192335 14.125 8.625 C17 10 17 10 17.828125 11.90625 C18.32314397 13.91461268 18.67063262 15.95792224 19 18 C17.68 18.33 16.36 18.66 15 19 C15.05220703 20.22976562 15.05220703 20.22976562 15.10546875 21.484375 C15.13253906 22.56203125 15.15960938 23.6396875 15.1875 24.75 C15.23970703 26.35101563 15.23970703 26.35101563 15.29296875 27.984375 C14.96503489 31.35990757 14.49258775 32.7165035 12 35 C9.84375 35.35546875 9.84375 35.35546875 7.5 35.1875 C4.47116508 35.00072185 2.95127399 35.016242 0 36 C-0.66 36.99 -1.32 37.98 -2 39 C-5.465 38.505 -5.465 38.505 -9 38 C-9.268125 37.071875 -9.53625 36.14375 -9.8125 35.1875 C-11.18050831 31.49494953 -11.18050831 31.49494953 -14 29 C-16.60611077 28.27802838 -16.60611077 28.27802838 -19 28 C-19.66 25.69 -20.32 23.38 -21 21 C-20.01 20.34 -19.02 19.68 -18 19 C-17.1704082 17.18722422 -17.1704082 17.18722422 -16.75 15.125 C-16.57984375 14.44695313 -16.4096875 13.76890625 -16.234375 13.0703125 C-15.87147712 10.97436154 -15.87147712 10.97436154 -16.55078125 8.88671875 C-16.69902344 8.26410156 -16.84726563 7.64148437 -17 7 C-15.4375 4.6875 -15.4375 4.6875 -13 3 C-10.125 3.3125 -10.125 3.3125 -7 4 C-3.73589643 3.62382706 -3.73589643 3.62382706 -1 3 C-0.67 2.01 -0.34 1.02 0 0 Z " fill="#FAFAFA" transform="translate(142,35)"/>
<path d="M0 0 C0.8971875 0.4021875 0.8971875 0.4021875 1.8125 0.8125 C2.1425 1.8025 2.4725 2.7925 2.8125 3.8125 C3.905625 3.8125 4.99875 3.8125 6.125 3.8125 C12.8125 3.8125 12.8125 3.8125 15.0625 5.875 C17.32208986 9.66788298 16.76705461 11.59655047 15.8125 15.8125 C15.8125 16.4725 15.8125 17.1325 15.8125 17.8125 C17.1325 18.1425 18.4525 18.4725 19.8125 18.8125 C19.125 22.1875 19.125 22.1875 17.8125 25.8125 C15.3125 27.125 15.3125 27.125 12.8125 27.8125 C10.45296906 30.17203094 10.32108587 31.59145617 9.8125 34.8125 C7.1725 35.1425 4.5325 35.4725 1.8125 35.8125 C1.4825 34.4925 1.1525 33.1725 0.8125 31.8125 C-3.32194898 31.66829023 -3.32194898 31.66829023 -7.3125 32.5625 C-9.1875 32.8125 -9.1875 32.8125 -11.5 31.5 C-14.10902307 27.34488919 -13.008708 23.48981516 -12.1875 18.8125 C-13.5075 18.4825 -14.8275 18.1525 -16.1875 17.8125 C-15.8575 15.1725 -15.5275 12.5325 -15.1875 9.8125 C-12.1875 8.8125 -9.1875 7.8125 -6.1875 6.8125 C-6.1875 5.1625 -6.1875 3.5125 -6.1875 1.8125 C-3.93528616 0.44508445 -2.66192242 -0.22816478 0 0 Z " fill="#222269" transform="translate(98.1875,114.1875)"/>
<path d="M0 0 C2.3125 -0.1875 2.3125 -0.1875 5 0 C5.474375 0.515625 5.94875 1.03125 6.4375 1.5625 C7.2109375 2.2740625 7.2109375 2.2740625 8 3 C8.99 2.835 9.98 2.67 11 2.5 C14 2 14 2 15.875 2.9375 C17.67836628 6.24367151 17.18323695 9.27418207 17 13 C17.66 13.33 18.32 13.66 19 14 C19.375 16.25 19.375 16.25 19 19 C17.03277992 20.38123963 15.03131672 21.71488126 13 23 C12.04768403 25.12119128 12.04768403 25.12119128 12 27 C10.02 27.33 8.04 27.66 6 28 C5.67 27.01 5.34 26.02 5 25 C3.7625 25.268125 2.525 25.53625 1.25 25.8125 C-0.953125 26.109375 -0.953125 26.109375 -3 26 C-5.5 23.5625 -5.5 23.5625 -7 21 C-6.67 20.67 -6.34 20.34 -6 20 C-5.66656449 17.54207971 -5.66656449 17.54207971 -6 15 C-6.99 14.34 -7.98 13.68 -9 13 C-8.8125 10.625 -8.8125 10.625 -8 8 C-7.21625 7.690625 -6.4325 7.38125 -5.625 7.0625 C-2.67868812 6.18237437 -2.67868812 6.18237437 -1.1875 2.875 C-0.795625 1.92625 -0.40375 0.9775 0 0 Z " fill="#11113D" transform="translate(161,15)"/>
<path d="M0 0 C13.53 0 27.06 0 41 0 C41 1.98 41 3.96 41 6 C29.12 6 17.24 6 5 6 C5 21.51 5 37.02 5 53 C3.35 53 1.7 53 0 53 C0 35.51 0 18.02 0 0 Z " fill="#64A1D7" transform="translate(56,75)"/>
<path d="M0 0 C2.31 0.33 4.62 0.66 7 1 C7 2.65 7 4.3 7 6 C9.45087825 7.31970367 11.35961677 8.07192335 14.125 8.625 C17 10 17 10 17.828125 11.90625 C18.32314397 13.91461268 18.67063262 15.95792224 19 18 C17.68 18.33 16.36 18.66 15 19 C15.05220703 20.22976562 15.05220703 20.22976562 15.10546875 21.484375 C15.13253906 22.56203125 15.15960938 23.6396875 15.1875 24.75 C15.23970703 26.35101563 15.23970703 26.35101563 15.29296875 27.984375 C14.96503489 31.35990757 14.49258775 32.7165035 12 35 C9.84375 35.35546875 9.84375 35.35546875 7.5 35.1875 C4.47116508 35.00072185 2.95127399 35.016242 0 36 C-0.66 36.99 -1.32 37.98 -2 39 C-5.465 38.505 -5.465 38.505 -9 38 C-9.268125 37.071875 -9.53625 36.14375 -9.8125 35.1875 C-11.18050831 31.49494953 -11.18050831 31.49494953 -14 29 C-16.60611077 28.27802838 -16.60611077 28.27802838 -19 28 C-19.66 25.69 -20.32 23.38 -21 21 C-20.01 20.34 -19.02 19.68 -18 19 C-17.1704082 17.18722422 -17.1704082 17.18722422 -16.75 15.125 C-16.57984375 14.44695313 -16.4096875 13.76890625 -16.234375 13.0703125 C-15.87147712 10.97436154 -15.87147712 10.97436154 -16.55078125 8.88671875 C-16.69902344 8.26410156 -16.84726563 7.64148437 -17 7 C-15.4375 4.6875 -15.4375 4.6875 -13 3 C-10.125 3.3125 -10.125 3.3125 -7 4 C-3.73589643 3.62382706 -3.73589643 3.62382706 -1 3 C-0.67 2.01 -0.34 1.02 0 0 Z M-13.4375 12.8125 C-14.77373427 18.00896659 -14.72173104 21.63386625 -12.25 26.3125 C-9.66712169 29.39760465 -7.68239692 31.636467 -3.66796875 32.50390625 C1.21934316 32.61935456 4.24410668 32.35170014 8.0625 29.125 C11.16104098 26.10665655 12.17257308 24.08037003 12.3125 19.75 C12.25272495 15.10249011 11.1258769 12.5482927 8 9 C4.58634901 6.15529084 1.52836771 5.40896334 -2.9375 5.578125 C-7.38758668 6.48837 -10.6686578 9.32135114 -13.4375 12.8125 Z " fill="#0D0D3B" transform="translate(142,35)"/>
<path d="M0 0 C3.1293173 0.74342897 4.94179824 2.18840477 7.12109375 4.50390625 C8.85741011 7.97653898 8.72299777 11.71583638 8.12109375 15.50390625 C5.9395023 18.25960072 4.24931881 19.93979372 1.12109375 21.50390625 C-2.78687105 21.94799316 -4.62438771 21.64095469 -8.12890625 19.75390625 C-11.74138634 16.79824072 -12.57603878 15.2075358 -13.37890625 10.69140625 C-12.76150308 6.75546105 -11.49003867 4.74960108 -8.79296875 1.8671875 C-5.87962404 -0.2078274 -3.49920473 -0.27734 0 0 Z " fill="#F2F2F5" transform="translate(101.87890625,121.49609375)"/>
<path d="M0 0 C5.17921126 -0.11498002 10.35397507 -0.21444858 15.53344727 -0.2746582 C17.29401676 -0.29976061 19.05448247 -0.33385028 20.81469727 -0.37719727 C23.34938179 -0.43804115 25.88268575 -0.46625113 28.41796875 -0.48828125 C29.59325386 -0.52699089 29.59325386 -0.52699089 30.7922821 -0.56648254 C34.79662325 -0.56852506 36.45912263 -0.43807048 39.66137695 2.15551758 C40.43312256 3.09419678 41.20486816 4.03287598 42 5 C42.53256912 5.41864822 43.06513824 5.83729645 43.61384583 6.26863098 C46.29042107 8.42229076 47.78634808 9.99997175 48.51678467 13.41888428 C48.6942692 16.39947763 48.67473514 19.32013397 48.5859375 22.3046875 C48.57744781 23.38380402 48.56895813 24.46292053 48.56021118 25.57473755 C48.52672087 29.00918935 48.45144418 32.44126222 48.375 35.875 C48.344895 38.20829934 48.31752014 40.54163561 48.29296875 42.875 C48.23205148 48.58497894 48.11462777 54.28983875 48 60 C32.49 60 16.98 60 1 60 C1 51.42 1 42.84 1 34 C1.33 34 1.66 34 2 34 C2 42.25 2 50.5 2 59 C16.85 59 31.7 59 47 59 C47 44.48 47 29.96 47 15 C43.04 15 39.08 15 35 15 C35 10.71 35 6.42 35 2 C24.11 2 13.22 2 2 2 C2 7.61 2 13.22 2 19 C1.34 19 0.68 19 0 19 C0 12.73 0 6.46 0 0 Z " fill="#323272" transform="translate(117,110)"/>
<path d="M0 0 C2.9375 2.125 2.9375 2.125 5 5 C5.06944397 8.95830645 4.5699479 11.14507816 2.375 14.4375 C-1.00237979 16.65946039 -3.03523594 16.62601538 -7 16 C-10.38677089 13.54999553 -11.78698584 12.13607554 -12.5625 8 C-11.87642343 4.34092496 -10.57265686 2.64832324 -8 0 C-4.99054157 -1.50472922 -3.20590237 -0.88005163 0 0 Z " fill="#F7F7F8" transform="translate(170,21)"/>
<path d="M0 0 C2.31 0.33 4.62 0.66 7 1 C7 2.65 7 4.3 7 6 C8.32 6.66 9.64 7.32 11 8 C11 9.32 11 10.64 11 12 C10.27296875 11.45859375 10.27296875 11.45859375 9.53125 10.90625 C4.40160941 7.35496036 1.23802157 6.09448074 -5 7 C-8.09631113 8.60549466 -10.21785188 9.95713583 -12.3125 12.75 C-13.34616985 16.13291951 -13.64811566 19.48115657 -14 23 C-14.33 23 -14.66 23 -15 23 C-15.06058594 22.18015625 -15.12117188 21.3603125 -15.18359375 20.515625 C-15.26738281 19.43796875 -15.35117188 18.3603125 -15.4375 17.25 C-15.51871094 16.18265625 -15.59992188 15.1153125 -15.68359375 14.015625 C-15.90353858 11.09962684 -15.90353858 11.09962684 -16.6328125 8.75390625 C-16.75398438 8.17511719 -16.87515625 7.59632812 -17 7 C-15.4375 4.6875 -15.4375 4.6875 -13 3 C-10.125 3.3125 -10.125 3.3125 -7 4 C-3.73589643 3.62382706 -3.73589643 3.62382706 -1 3 C-0.67 2.01 -0.34 1.02 0 0 Z " fill="#040434" transform="translate(142,35)"/>
<path d="M0 0 C14.52 0 29.04 0 44 0 C44 8.25 44 16.5 44 25 C43.67 25 43.34 25 43 25 C43 17.08 43 9.16 43 1 C33.43 1 23.86 1 14 1 C14 1.66 14 2.32 14 3 C8.50532201 4.88879556 7.31309372 3.36741015 1 1 C1 18.49 1 35.98 1 54 C6.445 53.505 6.445 53.505 12 53 C12 53.66 12 54.32 12 55 C8.04 55 4.08 55 0 55 C0 36.85 0 18.7 0 0 Z " fill="#599BD4" transform="translate(67,86)"/>
<path d="M0 0 C2.3125 -0.25 2.3125 -0.25 5 0 C6.8125 2 6.8125 2 8 4 C7.44570312 4.25394531 6.89140625 4.50789063 6.3203125 4.76953125 C5.23363281 5.28580078 5.23363281 5.28580078 4.125 5.8125 C3.40570313 6.14894531 2.68640625 6.48539063 1.9453125 6.83203125 C-0.30542806 7.99467097 -0.30542806 7.99467097 -2 11 C-2.50010524 13.95769177 -2.50010524 13.95769177 -2 17 C-0.20808968 19.29215045 -0.20808968 19.29215045 2 21 C2.66 21.66 3.32 22.32 4 23 C1.69 23.99 -0.62 24.98 -3 26 C-4.32 24.35 -5.64 22.7 -7 21 C-6.67 20.67 -6.34 20.34 -6 20 C-5.66656449 17.54207971 -5.66656449 17.54207971 -6 15 C-6.99 14.34 -7.98 13.68 -9 13 C-8.8125 10.625 -8.8125 10.625 -8 8 C-7.21625 7.690625 -6.4325 7.38125 -5.625 7.0625 C-2.67868812 6.18237437 -2.67868812 6.18237437 -1.1875 2.875 C-0.795625 1.92625 -0.40375 0.9775 0 0 Z " fill="#070735" transform="translate(161,15)"/>
<path d="M0 0 C2.31 1.98 4.62 3.96 7 6 C2.41015625 11.46875 2.41015625 11.46875 1 13 C0.67 13 0.34 13 0 13 C0 11.35 0 9.7 0 8 C-2.97 8 -5.94 8 -9 8 C-9 7.01 -9 6.02 -9 5 C-6.03 5 -3.06 5 0 5 C0 3.35 0 1.7 0 0 Z " fill="#27276A" transform="translate(101,126)"/>
<path d="M0 0 C0.78375 0.04125 1.5675 0.0825 2.375 0.125 C3.035 2.765 3.695 5.405 4.375 8.125 C3.055 8.455 1.735 8.785 0.375 9.125 C0.375 10.775 0.375 12.425 0.375 14.125 C-0.615 14.125 -1.605 14.125 -2.625 14.125 C-2.68558594 13.51011719 -2.74617187 12.89523438 -2.80859375 12.26171875 C-2.89238281 11.45347656 -2.97617188 10.64523438 -3.0625 9.8125 C-3.14371094 9.01199219 -3.22492188 8.21148437 -3.30859375 7.38671875 C-3.57765693 4.96412821 -3.57765693 4.96412821 -4.625 2.125 C-2.625 0.125 -2.625 0.125 0 0 Z " fill="#11113E" transform="translate(156.625,44.875)"/>
<path d="M0 0 C0.33 1.32 0.66 2.64 1 4 C-0.32 3.01 -1.64 2.02 -3 1 C-3 2.32 -3 3.64 -3 5 C-2.34 5.33 -1.68 5.66 -1 6 C-2.32 6 -3.64 6 -5 6 C-5.33 5.34 -5.66 4.68 -6 4 C-6.66 4 -7.32 4 -8 4 C-8 4.66 -8 5.32 -8 6 C-8.66 6 -9.32 6 -10 6 C-10 4.02 -10 2.04 -10 0 C-6.30458414 -0.95024979 -3.69541586 -0.95024979 0 0 Z " fill="#DDE9F5" transform="translate(82,90)"/>
<path d="M0 0 C6.75 5.625 6.75 5.625 9 9 C6.03 9 3.06 9 0 9 C0 6.03 0 3.06 0 0 Z " fill="#FEFEFE" transform="translate(154,114)"/>
<path d="M0 0 C2 1.1875 2 1.1875 4 3 C4.25 5.6875 4.25 5.6875 4 8 C2.35 8.66 0.7 9.32 -1 10 C-1.66 9.01 -2.32 8.02 -3 7 C-1.625 3.3125 -1.625 3.3125 0 0 Z " fill="#070735" transform="translate(176,26)"/>
<path d="M0 0 C2.97 0 5.94 0 9 0 C9 0.99 9 1.98 9 3 C6.03 3 3.06 3 0 3 C0 2.01 0 1.02 0 0 Z " fill="#0B0B60" transform="translate(92,131)"/>
<path d="M0 0 C0.66 0.99 1.32 1.98 2 3 C-1.78187881 4.83691257 -3.94568308 5.15837626 -8 4 C-5.33440687 2.22293791 -2.9719385 1.12451727 0 0 Z " fill="#030331" transform="translate(148,65)"/>
<path d="M0 0 C2.475 0.495 2.475 0.495 5 1 C4.67 2.65 4.34 4.3 4 6 C2.68 5.67 1.36 5.34 0 5 C0 3.35 0 1.7 0 0 Z " fill="#6DA6D9" transform="translate(129,126)"/>
<path d="M0 0 C1.32 0 2.64 0 4 0 C4 1.65 4 3.3 4 5 C2.68 5 1.36 5 0 5 C0 3.35 0 1.7 0 0 Z " fill="#67A3D8" transform="translate(123,134)"/>
<path d="M0 0 C1.32 0 2.64 0 4 0 C4 1.32 4 2.64 4 4 C3.34 4 2.68 4 2 4 C2 4.99 2 5.98 2 7 C1.34 7 0.68 7 0 7 C0 4.69 0 2.38 0 0 Z " fill="#E3ECF6" transform="translate(84,89)"/>
</svg>
