<?xml version="1.0" encoding="UTF-8"?>
<svg version="1.1" xmlns="http://www.w3.org/2000/svg" width="373" height="135">
<path d="M0 0 C123.09 0 246.18 0 373 0 C373 44.55 373 89.1 373 135 C249.91 135 126.82 135 0 135 C0 90.45 0 45.9 0 0 Z " fill="#414244" transform="translate(0,0)"/>
<path d="M0 0 C2.09715785 3.14573677 2.52004559 5.01456251 3.125 8.6875 C3.29257812 9.68136719 3.46015625 10.67523438 3.6328125 11.69921875 C3.75398438 12.45847656 3.87515625 13.21773437 4 14 C4.95712891 14.19916016 4.95712891 14.19916016 5.93359375 14.40234375 C6.75988281 14.57894531 7.58617187 14.75554688 8.4375 14.9375 C9.26121094 15.11152344 10.08492188 15.28554688 10.93359375 15.46484375 C13 16 13 16 14 17 C13.96018228 19.64022101 13.85110182 22.24150311 13.6875 24.875 C13.64189941 25.66986816 13.59629883 26.46473633 13.54931641 27.28369141 C13.1237706 34.15014811 12.42168532 40.97765247 11.57299805 47.80419922 C11.1349315 51.52955862 11.05492451 54.40412454 12 58 C12.03888349 60.33300933 12.0448635 62.66709801 12 65 C11.35417969 65.22558594 10.70835937 65.45117188 10.04296875 65.68359375 C7.75763398 66.82472112 7.75763398 66.82472112 7.42578125 69.34765625 C7.36970703 70.69150391 7.36970703 70.69150391 7.3125 72.0625 C7.06797583 76.93202417 7.06797583 76.93202417 6 78 C-1.7121533 78.60998428 -9.11826116 77.3384063 -16.67578125 75.97851562 C-17.50722656 75.83994141 -18.33867187 75.70136719 -19.1953125 75.55859375 C-19.92766113 75.42767334 -20.66000977 75.29675293 -21.41455078 75.16186523 C-27.7615964 74.76450062 -34.11685804 76.35214023 -40.296875 77.6640625 C-41.84758857 77.98470249 -43.39837189 78.3050053 -44.94921875 78.625 C-47.36165633 79.12613199 -49.77343773 79.62995554 -52.18408203 80.13964844 C-54.53263913 80.63473169 -56.88323321 81.11892592 -59.234375 81.6015625 C-60.31413605 81.83427353 -60.31413605 81.83427353 -61.41571045 82.07168579 C-68.17286455 83.44387651 -68.17286455 83.44387651 -71 82 C-73.42830147 78.66382695 -73.75954179 74.53760477 -74.40234375 70.55078125 C-74.5255751 69.81989792 -74.64880646 69.08901459 -74.77577209 68.33598328 C-75.16905418 65.99578476 -75.55353244 63.65424299 -75.9375 61.3125 C-76.31819937 59.02757493 -76.70071553 56.74295901 -77.08335876 54.45835876 C-77.33788388 52.93543304 -77.59110669 51.41228909 -77.84303284 49.88893127 C-78.48662697 46.00733093 -79.15063139 42.13090322 -79.85327148 38.25952148 C-79.99168961 37.49419601 -80.13010773 36.72887054 -80.27272034 35.94035339 C-80.53589398 34.49360388 -80.80230705 33.04743826 -81.07261658 31.602005 C-81.97478867 26.63717538 -82.27435073 22.02976336 -82 17 C-76.30601106 14.90429574 -71.04801071 13.54981916 -65 13 C-65.04125 12.05125 -65.0825 11.1025 -65.125 10.125 C-65 7 -65 7 -63 5 C-59.0910539 4.69341599 -55.66794346 4.88293407 -51.80029297 5.56079102 C-42.0558732 7.25801531 -33.99826225 6.43716651 -24.3125 4.1875 C-22.96989283 3.89551584 -21.62679169 3.60579374 -20.28320312 3.31835938 C-14.01787753 1.95780497 -14.01787753 1.95780497 -7.79370117 0.4230957 C-5.11141776 -0.20959753 -2.73903403 -0.23817687 0 0 Z " fill="#F9FDFD" transform="translate(301,21)"/>
<path d="M0 0 C1.27250107 -0.04312065 1.27250107 -0.04312065 2.57070923 -0.08711243 C3.48113983 -0.09470078 4.39157043 -0.10228912 5.32958984 -0.11010742 C6.27683929 -0.12579269 7.22408875 -0.14147797 8.20004272 -0.15763855 C10.20552422 -0.18225852 12.21116711 -0.19584443 14.21679688 -0.19921875 C17.26109902 -0.21541956 20.2983693 -0.30077739 23.34130859 -0.3894043 C39.64316064 -0.6218557 39.64316064 -0.6218557 45.68896484 4.77270508 C47.05305776 6.34819056 48.37720589 7.95889703 49.66552734 9.59692383 C50.17774338 9.98829529 50.68995941 10.37966675 51.21769714 10.78289795 C54.07791012 13.04665352 55.47764883 14.65900867 56.20690918 18.29957581 C56.41043122 21.71819912 56.41827684 25.08679778 56.35693359 28.51098633 C56.35555893 29.75818451 56.35418427 31.00538269 56.35276794 32.29037476 C56.34140767 35.5939015 56.30248363 38.89567634 56.25238037 42.1987915 C56.21993928 44.89384087 56.220974 47.58842907 56.22279453 50.28363991 C56.22178166 53.50538834 56.19526594 56.72685508 56.16943359 59.94848633 C56.16442589 61.75949326 56.16442589 61.75949326 56.15931702 63.60708618 C56.13060768 65.28935806 56.13060768 65.28935806 56.10131836 67.00561523 C56.08988297 67.99123444 56.07844757 68.97685364 56.06666565 69.99234009 C55.59861598 73.03137809 54.79309639 74.40171886 52.66552734 76.59692383 C49.70156086 77.58491265 47.72463142 77.73463808 44.63085938 77.75805664 C43.60614532 77.76766418 42.58143127 77.77727173 41.52566528 77.78717041 C40.41939789 77.79142029 39.31313049 77.79567017 38.17333984 77.80004883 C37.03524872 77.8057489 35.89715759 77.81144897 34.72457886 77.81732178 C32.31541881 77.82677262 29.90624582 77.83330609 27.49707031 77.8371582 C23.81210797 77.84686697 20.12770257 77.87789164 16.44287109 77.90942383 C14.10303066 77.9159536 11.76318623 77.92120417 9.42333984 77.92504883 C8.32112091 77.93739563 7.21890198 77.94974243 6.08328247 77.96246338 C5.0522641 77.95946228 4.02124573 77.95646118 2.95898438 77.95336914 C2.05536163 77.95701477 1.15173889 77.9606604 0.22073364 77.9644165 C-2.90010056 77.51557458 -4.7878757 76.42582668 -7.33447266 74.59692383 C-8.75111598 71.76363718 -8.48529853 69.35941869 -8.51147461 66.19116211 C-8.51804581 65.53405243 -8.524617 64.87694275 -8.53138733 64.19992065 C-8.55112048 62.02235809 -8.56278218 59.84486444 -8.57275391 57.66723633 C-8.57682943 56.92384884 -8.58090496 56.18046135 -8.58510399 55.41454697 C-8.60596373 51.48071317 -8.62026643 47.54691426 -8.62963867 43.61303711 C-8.64070959 39.5484855 -8.67511689 35.4844804 -8.71481037 31.42012215 C-8.7409441 28.29571509 -8.74932752 25.17143897 -8.75292015 22.04693222 C-8.75779373 20.54859598 -8.76942975 19.05026589 -8.78795815 17.55203629 C-8.81228503 15.45474043 -8.81139769 13.3588681 -8.80444336 11.26147461 C-8.8103096 10.06837677 -8.81617584 8.87527893 -8.82221985 7.64602661 C-8.33447266 4.59692383 -8.33447266 4.59692383 -6.57600403 2.21769714 C-4.11957606 0.44153958 -2.98872997 0.07350333 0 0 Z " fill="#F4F1F1" transform="translate(87.33447265625,26.403076171875)"/>
<path d="M0 0 C2.09715785 3.14573677 2.52004559 5.01456251 3.125 8.6875 C3.29257812 9.68136719 3.46015625 10.67523438 3.6328125 11.69921875 C3.75398438 12.45847656 3.87515625 13.21773437 4 14 C4.95712891 14.19916016 4.95712891 14.19916016 5.93359375 14.40234375 C6.75988281 14.57894531 7.58617187 14.75554688 8.4375 14.9375 C9.26121094 15.11152344 10.08492188 15.28554688 10.93359375 15.46484375 C13 16 13 16 14 17 C13.96018228 19.64022101 13.85110182 22.24150311 13.6875 24.875 C13.64189941 25.66986816 13.59629883 26.46473633 13.54931641 27.28369141 C13.1237706 34.15014811 12.42168532 40.97765247 11.57299805 47.80419922 C11.1349315 51.52955862 11.05492451 54.40412454 12 58 C12.03888349 60.33300933 12.0448635 62.66709801 12 65 C11.35417969 65.22558594 10.70835937 65.45117188 10.04296875 65.68359375 C7.75763398 66.82472112 7.75763398 66.82472112 7.42578125 69.34765625 C7.36970703 70.69150391 7.36970703 70.69150391 7.3125 72.0625 C7.06797583 76.93202417 7.06797583 76.93202417 6 78 C-1.7121533 78.60998428 -9.11826116 77.3384063 -16.67578125 75.97851562 C-17.50722656 75.83994141 -18.33867187 75.70136719 -19.1953125 75.55859375 C-19.92766113 75.42767334 -20.66000977 75.29675293 -21.41455078 75.16186523 C-27.7615964 74.76450062 -34.11685804 76.35214023 -40.296875 77.6640625 C-41.84758857 77.98470249 -43.39837189 78.3050053 -44.94921875 78.625 C-47.36165633 79.12613199 -49.77343773 79.62995554 -52.18408203 80.13964844 C-54.53263913 80.63473169 -56.88323321 81.11892592 -59.234375 81.6015625 C-60.31413605 81.83427353 -60.31413605 81.83427353 -61.41571045 82.07168579 C-68.17286455 83.44387651 -68.17286455 83.44387651 -71 82 C-73.42830147 78.66382695 -73.75954179 74.53760477 -74.40234375 70.55078125 C-74.5255751 69.81989792 -74.64880646 69.08901459 -74.77577209 68.33598328 C-75.16905418 65.99578476 -75.55353244 63.65424299 -75.9375 61.3125 C-76.31819937 59.02757493 -76.70071553 56.74295901 -77.08335876 54.45835876 C-77.33788388 52.93543304 -77.59110669 51.41228909 -77.84303284 49.88893127 C-78.48662697 46.00733093 -79.15063139 42.13090322 -79.85327148 38.25952148 C-79.99168961 37.49419601 -80.13010773 36.72887054 -80.27272034 35.94035339 C-80.53589398 34.49360388 -80.80230705 33.04743826 -81.07261658 31.602005 C-81.97478867 26.63717538 -82.27435073 22.02976336 -82 17 C-76.30601106 14.90429574 -71.04801071 13.54981916 -65 13 C-65.04125 12.05125 -65.0825 11.1025 -65.125 10.125 C-65 7 -65 7 -63 5 C-59.0910539 4.69341599 -55.66794346 4.88293407 -51.80029297 5.56079102 C-42.0558732 7.25801531 -33.99826225 6.43716651 -24.3125 4.1875 C-22.96989283 3.89551584 -21.62679169 3.60579374 -20.28320312 3.31835938 C-14.01787753 1.95780497 -14.01787753 1.95780497 -7.79370117 0.4230957 C-5.11141776 -0.20959753 -2.73903403 -0.23817687 0 0 Z M-59 12 C-59.86085435 17.85235956 -60.71514118 23.70562706 -61.56347656 29.55981445 C-61.85270806 31.54933245 -62.14370178 33.53859513 -62.43652344 35.52758789 C-62.85820711 38.39403283 -63.27344997 41.26134995 -63.6875 44.12890625 C-63.81874268 45.01147598 -63.94998535 45.89404572 -64.08520508 46.80335999 C-64.76984016 51.59279218 -65.1376551 56.1619968 -65 61 C-64.35562988 61.08040527 -63.71125977 61.16081055 -63.04736328 61.24365234 C-60.0727568 61.6170094 -57.09888936 61.99597489 -54.125 62.375 C-52.60519531 62.56449219 -52.60519531 62.56449219 -51.0546875 62.7578125 C-46.40024999 63.35453526 -41.79564674 63.99944046 -37.203125 64.96875 C-31.06406788 66.2506392 -24.86380756 67.04672907 -18.64794922 67.85986328 C-16.60712436 68.12734286 -14.56722783 68.40122836 -12.52734375 68.67578125 C-5.28724461 69.66083245 -5.28724461 69.66083245 2 70 C2.71850741 64.45067683 3.43035777 58.90055386 4.13623047 53.34960938 C4.37694451 51.46396219 4.61943067 49.57854029 4.86376953 47.69335938 C5.21600493 44.97323945 5.56171924 42.25235522 5.90625 39.53125 C6.0156189 38.69758911 6.12498779 37.86392822 6.2376709 37.00500488 C6.86886687 31.95924717 7.10211596 27.08537473 7 22 C-5.63744 19.87603568 -18.28295543 17.80561188 -30.93701172 15.78295898 C-32.92094805 15.46527199 -34.90466751 15.14622814 -36.88818359 14.82592773 C-39.79738065 14.35622103 -42.70719691 13.89054313 -45.6171875 13.42578125 C-46.50252167 13.28207596 -47.38785583 13.13837067 -48.30001831 12.99031067 C-49.12253082 12.85984848 -49.94504333 12.72938629 -50.79248047 12.5949707 C-51.51096161 12.47966507 -52.22944275 12.36435944 -52.96969604 12.24555969 C-55.32099345 11.91995185 -55.32099345 11.91995185 -59 12 Z " fill="#4AB3F7" transform="translate(301,21)"/>
<path d="M0 0 C5.03430791 1.65926304 8.3157385 5.89714005 11.96923828 9.59960938 C13.41882327 11.06305319 14.89076799 12.50091779 16.36621094 13.93823242 C17.28789062 14.8618457 18.20957031 15.78545898 19.15917969 16.73706055 C20.0019043 17.57906006 20.84462891 18.42105957 21.71289062 19.28857422 C24.03878527 22.36265672 24.7762006 24.01921613 24.67480469 27.8815918 C23.14597946 30.11957558 21.83211566 31.68610041 19.91699219 33.53393555 C19.41692657 34.03832657 18.91686096 34.54271759 18.40164185 35.06239319 C17.34232839 36.12208743 16.27426719 37.17309931 15.19824219 38.21582031 C13.55305539 39.81593016 11.94543171 41.44788556 10.33886719 43.08666992 C9.30447388 44.11284423 8.26807887 45.13700554 7.22949219 46.15893555 C6.50885086 46.89308937 6.50885086 46.89308937 5.77365112 47.64207458 C4.36962891 48.97900391 4.36962891 48.97900391 1.67480469 50.8815918 C-1.67871887 50.76297159 -2.99560127 50.12445057 -5.70019531 48.1315918 C-7.32519531 45.8815918 -7.32519531 45.8815918 -7.18066406 43.51049805 C-6.13651974 40.30178057 -4.71254364 38.8633942 -2.26269531 36.5690918 C-1.52921875 35.87170898 -0.79574219 35.17432617 -0.04003906 34.45581055 C0.52585938 33.93631836 1.09175781 33.41682617 1.67480469 32.8815918 C0.98854004 32.86700928 0.30227539 32.85242676 -0.40478516 32.83740234 C-3.50383432 32.76309029 -6.60178587 32.66637598 -9.70019531 32.5690918 C-10.78042969 32.5465332 -11.86066406 32.52397461 -12.97363281 32.50073242 C-14.52050781 32.44755859 -14.52050781 32.44755859 -16.09863281 32.39331055 C-17.52828369 32.35403442 -17.52828369 32.35403442 -18.98681641 32.31396484 C-19.75848145 32.17128174 -20.53014648 32.02859863 -21.32519531 31.8815918 C-23.78331157 28.19441742 -23.63637695 26.23813476 -23.32519531 21.8815918 C-22.33519531 20.3965918 -22.33519531 20.3965918 -21.32519531 18.8815918 C-18.98681641 18.44921875 -18.98681641 18.44921875 -16.09863281 18.36987305 C-14.55175781 18.31669922 -14.55175781 18.31669922 -12.97363281 18.26245117 C-11.89339844 18.23989258 -10.81316406 18.21733398 -9.70019531 18.1940918 C-8.06824219 18.14285156 -8.06824219 18.14285156 -6.40332031 18.09057617 C-3.71071468 18.00790846 -1.0184424 17.93882093 1.67480469 17.8815918 C1.01351562 17.28991211 0.35222656 16.69823242 -0.32910156 16.08862305 C-1.1734375 15.29842773 -2.01777344 14.50823242 -2.88769531 13.6940918 C-3.73460937 12.91678711 -4.58152344 12.13948242 -5.45410156 11.33862305 C-7.32519531 8.8815918 -7.32519531 8.8815918 -7.21191406 6.22924805 C-5.83049633 2.5718381 -4.19721582 -0.21373894 0 0 Z " fill="#090909" transform="translate(179.3251953125,41.118408203125)"/>
<path d="M0 0 C2.85984547 2.51632049 4.41468822 5.33885553 6.1875 8.6875 C6.71730469 9.68136719 7.24710937 10.67523438 7.79296875 11.69921875 C8.19128906 12.45847656 8.58960938 13.21773437 9 14 C10.98 12.35 12.96 10.7 15 9 C18.44419134 23.59681093 18.44419134 23.59681093 18 31 C6.18036494 30.27364479 -5.52368736 28.53020021 -17.25 26.9375 C-19.36324415 26.65271936 -21.47652513 26.36821184 -23.58984375 26.08398438 C-28.72699271 25.39247279 -33.86362836 24.69726086 -39 24 C-38.07343094 22.73728911 -37.14296883 21.47743448 -36.2109375 20.21875 C-35.69321777 19.51685547 -35.17549805 18.81496094 -34.64208984 18.09179688 C-32.31697758 15.12992327 -29.72485207 12.59509721 -27 10 C-22.02790438 11.76429199 -17.56561939 14.3939166 -13 17 C-12.7628125 16.45601562 -12.525625 15.91203125 -12.28125 15.3515625 C-10.66614779 12.38725905 -8.6554611 9.97135087 -6.5 7.375 C-5.7059375 6.41335937 -4.911875 5.45171875 -4.09375 4.4609375 C-2 2 -2 2 0 0 Z " fill="#48B3F9" transform="translate(279,55)"/>
<path d="M0 0 C1.27250107 -0.04312065 1.27250107 -0.04312065 2.57070923 -0.08711243 C3.48113983 -0.09470078 4.39157043 -0.10228912 5.32958984 -0.11010742 C6.27683929 -0.12579269 7.22408875 -0.14147797 8.20004272 -0.15763855 C10.20552422 -0.18225852 12.21116711 -0.19584443 14.21679688 -0.19921875 C17.26109902 -0.21541956 20.2983693 -0.30077739 23.34130859 -0.3894043 C39.64316064 -0.6218557 39.64316064 -0.6218557 45.68896484 4.77270508 C47.05305776 6.34819056 48.37720589 7.95889703 49.66552734 9.59692383 C50.17774338 9.98829529 50.68995941 10.37966675 51.21769714 10.78289795 C54.07791012 13.04665352 55.47764883 14.65900867 56.20690918 18.29957581 C56.41043122 21.71819912 56.41827684 25.08679778 56.35693359 28.51098633 C56.35555893 29.75818451 56.35418427 31.00538269 56.35276794 32.29037476 C56.34140767 35.5939015 56.30248363 38.89567634 56.25238037 42.1987915 C56.21993928 44.89384087 56.220974 47.58842907 56.22279453 50.28363991 C56.22178166 53.50538834 56.19526594 56.72685508 56.16943359 59.94848633 C56.16442589 61.75949326 56.16442589 61.75949326 56.15931702 63.60708618 C56.13060768 65.28935806 56.13060768 65.28935806 56.10131836 67.00561523 C56.08988297 67.99123444 56.07844757 68.97685364 56.06666565 69.99234009 C55.59861598 73.03137809 54.79309639 74.40171886 52.66552734 76.59692383 C49.70156086 77.58491265 47.72463142 77.73463808 44.63085938 77.75805664 C43.60614532 77.76766418 42.58143127 77.77727173 41.52566528 77.78717041 C40.41939789 77.79142029 39.31313049 77.79567017 38.17333984 77.80004883 C37.03524872 77.8057489 35.89715759 77.81144897 34.72457886 77.81732178 C32.31541881 77.82677262 29.90624582 77.83330609 27.49707031 77.8371582 C23.81210797 77.84686697 20.12770257 77.87789164 16.44287109 77.90942383 C14.10303066 77.9159536 11.76318623 77.92120417 9.42333984 77.92504883 C8.32112091 77.93739563 7.21890198 77.94974243 6.08328247 77.96246338 C5.0522641 77.95946228 4.02124573 77.95646118 2.95898438 77.95336914 C2.05536163 77.95701477 1.15173889 77.9606604 0.22073364 77.9644165 C-2.90010056 77.51557458 -4.7878757 76.42582668 -7.33447266 74.59692383 C-8.75111598 71.76363718 -8.48529853 69.35941869 -8.51147461 66.19116211 C-8.51804581 65.53405243 -8.524617 64.87694275 -8.53138733 64.19992065 C-8.55112048 62.02235809 -8.56278218 59.84486444 -8.57275391 57.66723633 C-8.57682943 56.92384884 -8.58090496 56.18046135 -8.58510399 55.41454697 C-8.60596373 51.48071317 -8.62026643 47.54691426 -8.62963867 43.61303711 C-8.64070959 39.5484855 -8.67511689 35.4844804 -8.71481037 31.42012215 C-8.7409441 28.29571509 -8.74932752 25.17143897 -8.75292015 22.04693222 C-8.75779373 20.54859598 -8.76942975 19.05026589 -8.78795815 17.55203629 C-8.81228503 15.45474043 -8.81139769 13.3588681 -8.80444336 11.26147461 C-8.8103096 10.06837677 -8.81617584 8.87527893 -8.82221985 7.64602661 C-8.33447266 4.59692383 -8.33447266 4.59692383 -6.57600403 2.21769714 C-4.11957606 0.44153958 -2.98872997 0.07350333 0 0 Z M-6.33447266 5.59692383 C-6.93693073 8.5368265 -6.93693073 8.5368265 -6.83618164 11.94848633 C-6.84556259 13.25994629 -6.85494354 14.57140625 -6.86460876 15.92260742 C-6.85413079 17.35571951 -6.84276182 18.78882532 -6.83056641 20.22192383 C-6.83072136 21.69018627 -6.83220975 23.15844914 -6.8349762 24.62670898 C-6.83636088 27.70355313 -6.82379144 30.77993151 -6.80102539 33.85668945 C-6.77263991 37.80135584 -6.77537684 41.74524826 -6.7881155 45.68997192 C-6.79506935 48.72174698 -6.78728689 51.75334302 -6.77485847 54.78509521 C-6.77034107 56.23955601 -6.77000971 57.694036 -6.77392387 59.14849854 C-6.77683285 61.1808183 -6.75818067 63.21313453 -6.73852539 65.24536133 C-6.73312241 66.40213379 -6.72771942 67.55890625 -6.72215271 68.75073242 C-6.54233099 71.56060461 -6.54233099 71.56060461 -5.13734436 73.46963501 C-2.68832205 75.00094501 -0.96722478 74.97781562 1.91552734 74.98510742 C2.98673828 74.9945639 4.05794922 75.00402039 5.16162109 75.01376343 C6.31791016 75.00769073 7.47419922 75.00161804 8.66552734 74.99536133 C10.44636719 74.9996666 10.44636719 74.9996666 12.26318359 75.00405884 C14.77490719 75.00610159 17.28664662 75.00055705 19.79833984 74.98803711 C23.65026306 74.97198743 27.50113689 74.9878797 31.35302734 75.00708008 C33.79052967 75.00509769 36.22803134 75.00125409 38.66552734 74.99536133 C40.39996094 75.00447037 40.39996094 75.00447037 42.16943359 75.01376343 C43.24064453 75.00430695 44.31185547 74.99485046 45.41552734 74.98510742 C46.35912109 74.98272064 47.30271484 74.98033386 48.27490234 74.97787476 C50.68548379 74.76500517 50.68548379 74.76500517 52.45748901 73.39561462 C54.06695499 70.99922408 54.12447284 69.30863336 54.24414062 66.4296875 C54.3164238 64.84609688 54.3164238 64.84609688 54.39016724 63.23051453 C54.52441792 58.36744954 54.6468909 53.50560485 54.71582031 48.64111328 C54.76525977 46.08884143 54.8468251 43.53697138 54.96191406 40.98681641 C56.04931205 24.33910621 56.04931205 24.33910621 49.29606628 9.71685791 C42.36839665 3.01579772 35.16183872 1.11290254 25.68353271 1.12876892 C22.94464516 1.22076395 20.21386083 1.37728108 17.47802734 1.53442383 C15.60511827 1.57905168 13.73205139 1.61750017 11.85888672 1.6496582 C8.45237683 1.74248803 5.04740177 1.83607422 1.64526367 2.03417969 C0.97102859 2.06974472 0.29679352 2.10530975 -0.39787292 2.14195251 C-3.0867824 2.77366626 -4.41688158 3.5941601 -6.33447266 5.59692383 Z " fill="#EB231E" transform="translate(87.33447265625,26.403076171875)"/>
<path d="M0 0 C1.6874269 0.00015917 3.37485866 0.00585622 5.06225586 0.01586914 C6.39189613 0.01799156 6.39189613 0.01799156 7.74839783 0.02015686 C10.59133215 0.02577324 13.43418892 0.03832848 16.27709961 0.05102539 C18.19962452 0.05603828 20.12215065 0.06060155 22.04467773 0.06469727 C26.7680151 0.07574798 31.49129419 0.09302356 36.21459961 0.11352539 C36.87459961 1.76352539 37.53459961 3.41352539 38.21459961 5.11352539 C33.92459961 5.11352539 29.63459961 5.11352539 25.21459961 5.11352539 C24.88459961 5.77352539 24.55459961 6.43352539 24.21459961 7.11352539 C22.93584961 6.96915039 21.65709961 6.82477539 20.33959961 6.67602539 C12.31942079 5.86473563 4.26308443 5.52559379 -3.78540039 5.11352539 C-4.34790039 3.17602539 -4.34790039 3.17602539 -4.78540039 1.11352539 C-3.78540039 0.11352539 -3.78540039 0.11352539 0 0 Z " fill="#F4F6F5" transform="translate(90.785400390625,29.886474609375)"/>
<path d="M0 0 C0.84056946 0.02032288 1.68113892 0.04064575 2.54718018 0.06158447 C3.44523376 0.10410339 4.34328735 0.14662231 5.26855469 0.19042969 C6.19512878 0.21828552 7.12170288 0.24614136 8.07635498 0.27484131 C11.03205738 0.36811632 13.98580699 0.48983577 16.94042969 0.61230469 C18.94557497 0.68058836 20.95078434 0.74701686 22.95605469 0.81152344 C27.86851565 0.97360945 32.77941715 1.16120992 37.69042969 1.36230469 C37.69042969 1.69230469 37.69042969 2.02230469 37.69042969 2.36230469 C36.49442139 2.38212402 35.29841309 2.40194336 34.06616211 2.42236328 C29.63235275 2.49838741 25.19887294 2.58710966 20.76538086 2.6796875 C18.84585065 2.71799046 16.92624834 2.75284102 15.0065918 2.78417969 C12.24859838 2.8298017 9.49110192 2.88780049 6.73339844 2.94824219 C5.44419746 2.965569 5.44419746 2.965569 4.12895203 2.98324585 C3.32834854 3.00311554 2.52774506 3.02298523 1.70288086 3.04345703 C0.99894699 3.0567807 0.29501312 3.07010437 -0.43025208 3.08383179 C-2.64054495 3.27474654 -2.64054495 3.27474654 -5.30957031 5.36230469 C-5.76365245 8.20956869 -5.76365245 8.20956869 -5.68188477 11.6003418 C-5.68811356 12.91187729 -5.69434235 14.22341278 -5.70075989 15.57469177 C-5.69207119 17.0130145 -5.68275314 18.45133355 -5.67285156 19.88964844 C-5.67233307 21.35933939 -5.67285036 22.82903105 -5.67436218 24.29872131 C-5.67427239 27.38146293 -5.66382977 30.46394341 -5.64575195 33.54663086 C-5.62308424 37.49904588 -5.62251624 41.45107851 -5.6292696 45.40354061 C-5.63261099 48.43957418 -5.62597599 51.47552053 -5.61614037 54.51153755 C-5.6122895 55.96879177 -5.61113968 57.42605569 -5.61272621 58.88331413 C-5.61309694 60.92052255 -5.59899871 62.95771814 -5.58422852 64.99487305 C-5.57962112 66.15466171 -5.57501373 67.31445038 -5.57026672 68.50938416 C-5.51973782 71.56345939 -5.51973782 71.56345939 -3.30957031 74.36230469 C-4.29957031 75.35230469 -4.29957031 75.35230469 -5.30957031 76.36230469 C-8.52554058 72.90492618 -8.69248294 70.37408941 -8.71362305 65.72949219 C-8.7204863 65.07209045 -8.72734955 64.41468872 -8.73442078 63.73736572 C-8.75268 61.57045727 -8.74885337 59.40427335 -8.74316406 57.23730469 C-8.74772594 55.72802495 -8.75303153 54.21874729 -8.75904846 52.70947266 C-8.7679775 49.54874219 -8.76555852 46.38826442 -8.75561523 43.22753906 C-8.74411851 39.17865703 -8.76434781 35.13064623 -8.79353237 31.08187866 C-8.81188378 27.96600819 -8.81160424 24.85034699 -8.80589485 21.73443604 C-8.80574154 20.24170712 -8.81179388 18.7489641 -8.82418633 17.25628662 C-8.83907792 15.16867477 -8.82843633 13.08267871 -8.8112793 10.99511719 C-8.81111313 9.80805176 -8.81094696 8.62098633 -8.81077576 7.39794922 C-7.95505616 2.2151234 -5.23172174 -0.18909838 0 0 Z " fill="#F70404" transform="translate(87.3095703125,26.6376953125)"/>
<path d="M0 0 C2.4375 1.5625 2.4375 1.5625 4 4 C3.93866496 7.4960972 3.65265114 9.93514814 1.8125 12.9375 C-0.95588471 14.56034621 -2.85545467 14.44922076 -6 14 C-8.375 12.375 -8.375 12.375 -10 10 C-10.61195145 6.3282913 -10.48706506 4.71186432 -8.375 1.625 C-5.28813568 -0.48706506 -3.6717087 -0.61195145 0 0 Z " fill="#4AB4F9" transform="translate(260,42)"/>
<path d="M0 0 C-0.44116363 9.79847636 -1.08566713 19.35399262 -3 29 C-3.33 29 -3.66 29 -4 29 C-4.6754914 25.45995797 -5.33880798 21.91773831 -6 18.375 C-6.19078125 17.37597656 -6.3815625 16.37695312 -6.578125 15.34765625 C-7.47527136 10.50947407 -8.27009288 5.94607582 -8 1 C-5.23735711 0.40267181 -2.83967231 0 0 0 Z " fill="#EFF9FC" transform="translate(234,42)"/>
<path d="M0 0 C6.875 0.875 6.875 0.875 8 2 C8.4626087 8.24521739 8.4626087 8.24521739 6.8125 10.9375 C5 12 5 12 0 12 C0 8.04 0 4.08 0 0 Z " fill="#292929" transform="translate(107,81)"/>
<path d="M0 0 C0.33 0 0.66 0 1 0 C1 4.62 1 9.24 1 14 C0.34 14 -0.32 14 -1 14 C-1.66 15.65 -2.32 17.3 -3 19 C-1.68 19.33 -0.36 19.66 1 20 C0.113125 20.185625 -0.77375 20.37125 -1.6875 20.5625 C-5.13998438 22.06074794 -5.61362717 22.56396598 -7.5 25.5625 C-9.4166746 28.57174156 -9.65575886 28.90257326 -13.3125 29.9375 C-14.199375 29.958125 -15.08625 29.97875 -16 30 C-15.278125 29.505 -14.55625 29.01 -13.8125 28.5 C-5.94184998 21.50386665 -1.74140434 10.20235803 0 0 Z " fill="#E82926" transform="translate(111,43)"/>
<path d="M0 0 C0.66 0.495 1.32 0.99 2 1.5 C4.96435169 2.98217584 5.96690252 3.16155472 9.125 3.0625 C13 3 13 3 16 5 C15.67 6.32 15.34 7.64 15 9 C9.72540751 8.54529375 5.48475372 8.06275864 1 5 C0.125 2.3125 0.125 2.3125 0 0 Z " fill="#ECACAC" transform="translate(112,57)"/>
<path d="M0 0 C0.84064499 0.02024734 1.68128998 0.04049469 2.54740906 0.06135559 C3.45062393 0.09871323 4.35383881 0.13607086 5.28442383 0.17456055 C6.67640739 0.21422188 6.67640739 0.21422188 8.09651184 0.25468445 C11.06214385 0.34249575 14.02655799 0.45162825 16.99145508 0.5612793 C19.00117698 0.62453304 21.01094307 0.68639926 23.02075195 0.74682617 C27.94914355 0.89804459 32.87654847 1.06838889 37.80395508 1.2487793 C37.80395508 1.5787793 37.80395508 1.9087793 37.80395508 2.2487793 C36.0335083 2.25494263 36.0335083 2.25494263 34.22729492 2.26123047 C29.83232441 2.28306457 25.43824373 2.33739839 21.04370117 2.40136719 C19.14469963 2.42450995 17.24557042 2.43893416 15.34643555 2.44433594 C12.61011538 2.4536529 9.87579293 2.4947016 7.13989258 2.54174805 C5.87391739 2.53584908 5.87391739 2.53584908 4.58236694 2.52983093 C-1.36883214 2.6758871 -4.01185467 3.99652937 -8.19604492 8.2487793 C-7.45410552 2.75842774 -5.85745422 -0.19348948 0 0 Z " fill="#E50E00" transform="translate(87.196044921875,26.751220703125)"/>
<path d="M0 0 C1.98 0 3.96 0 6 0 C7 1 7 1 7.0625 3.5625 C7.041875 4.366875 7.02125 5.17125 7 6 C5.35 6.33 3.7 6.66 2 7 C2 8.65 2 10.3 2 12 C1.34 12 0.68 12 0 12 C0 8.04 0 4.08 0 0 Z " fill="#505050" transform="translate(98,81)"/>
<path d="M0 0 C5.36891879 0.49869404 10.69235173 1.02227532 16 2 C12.7188698 4.18742014 10.66915644 4.54442806 6.8125 5.125 C5.72582031 5.29257813 4.63914063 5.46015625 3.51953125 5.6328125 C2.68808594 5.75398438 1.85664063 5.87515625 1 6 C0.67 4.02 0.34 2.04 0 0 Z " fill="#E6F5FB" transform="translate(234,89)"/>
<path d="M0 0 C13.86 0 27.72 0 42 0 C42.495 1.485 42.495 1.485 43 3 C42.01 2.67 41.02 2.34 40 2 C38.66548737 1.88764839 37.32645611 1.82424351 35.98754883 1.79467773 C34.7866436 1.7647599 34.7866436 1.7647599 33.56147766 1.73423767 C32.70201035 1.71752518 31.84254303 1.70081268 30.95703125 1.68359375 C30.0734343 1.66281265 29.18983734 1.64203156 28.27946472 1.62062073 C25.45722215 1.55524246 22.63488665 1.49629472 19.8125 1.4375 C17.89907894 1.39430363 15.98566727 1.35068898 14.07226562 1.30664062 C9.38160563 1.19957305 4.69085217 1.09827248 0 1 C0 0.67 0 0.34 0 0 Z " fill="#F70101" transform="translate(85,27)"/>
<path d="M0 0 C0 1.65 0 3.3 0 5 C-6.93 4.505 -6.93 4.505 -14 4 C-14 3.34 -14 2.68 -14 2 C-12.04200486 1.66468585 -10.08359226 1.33180857 -8.125 1 C-6.48917969 0.7215625 -6.48917969 0.7215625 -4.8203125 0.4375 C-2 0 -2 0 0 0 Z " fill="#E3F4FB" transform="translate(297,29)"/>
<path d="M0 0 C2.31 0 4.62 0 7 0 C7 0.66 7 1.32 7 2 C5.35 2 3.7 2 2 2 C2 2.99 2 3.98 2 5 C3.32 5 4.64 5 6 5 C6 5.66 6 6.32 6 7 C4.68 7 3.36 7 2 7 C2 8.65 2 10.3 2 12 C1.34 12 0.68 12 0 12 C0 8.04 0 4.08 0 0 Z " fill="#383838" transform="translate(117,81)"/>
<path d="M0 0 C0.66 0.33 1.32 0.66 2 1 C1.52949219 1.53109375 1.05898437 2.0621875 0.57421875 2.609375 C-0.04839844 3.31578125 -0.67101562 4.0221875 -1.3125 4.75 C-1.92738281 5.44609375 -2.54226562 6.1421875 -3.17578125 6.859375 C-5.02549662 8.94764769 -5.02549662 8.94764769 -6.48046875 11.203125 C-8.24895344 13.29439225 -9.33231653 13.63204366 -12 14 C-8.34161026 8.88863277 -4.55388068 4.33702922 0 0 Z " fill="#5DB1E6" transform="translate(252,65)"/>
<path d="M0 0 C1.32 0 2.64 0 4 0 C3.88541307 1.43836751 3.75790884 2.87570966 3.625 4.3125 C3.55539063 5.11300781 3.48578125 5.91351563 3.4140625 6.73828125 C3 9 3 9 1 12 C-0.3271261 8.0186217 -0.06915913 4.14954773 0 0 Z " fill="#E79B9A" transform="translate(107,42)"/>
<path d="M0 0 C6.625 -0.25 6.625 -0.25 10 2 C9.67 3.32 9.34 4.64 9 6 C2.84765625 5.4140625 2.84765625 5.4140625 1 5 C0.67 4.34 0.34 3.68 0 3 C2.31 3.33 4.62 3.66 7 4 C6.67 3.34 6.34 2.68 6 2 C2.97065509 1.34227572 2.97065509 1.34227572 0 1 C0 0.67 0 0.34 0 0 Z " fill="#E55958" transform="translate(118,60)"/>
<path d="M0 0 C1.32 0.33 2.64 0.66 4 1 C4 2.98 4 4.96 4 7 C2.68 7.33 1.36 7.66 0 8 C0 5.36 0 2.72 0 0 Z " fill="#F5F5F5" transform="translate(109,83)"/>
<path d="M0 0 C-1.28207359 2.86001033 -2.49151236 5.07039412 -5 7 C-6.32 7 -7.64 7 -9 7 C-7.4576387 2.93377477 -4.5679954 0 0 0 Z " fill="#E7ABAA" transform="translate(103,65)"/>
<path d="M0 0 C0.99 0.33 1.98 0.66 3 1 C2.06862408 2.29608947 1.1296434 3.58671632 0.1875 4.875 C-0.33457031 5.59429687 -0.85664062 6.31359375 -1.39453125 7.0546875 C-3 9 -3 9 -6 11 C-8.1875 10.625 -8.1875 10.625 -10 10 C-9.278125 9.649375 -8.55625 9.29875 -7.8125 8.9375 C-4.16423256 6.4242491 -2.43472709 3.68687246 0 0 Z " fill="#E61E1B" transform="translate(105,62)"/>
<path d="M0 0 C2.33524782 2.25740623 4.18705073 4.2805761 6 7 C3.36 6.67 0.72 6.34 -2 6 C-1.125 1.125 -1.125 1.125 0 0 Z " fill="#F7E3E2" transform="translate(110,56)"/>
<path d="M0 0 C3.7952131 1.49097658 5.61042731 3.75700849 8 7 C7.01 7.33 6.02 7.66 5 8 C3.02 5.69 1.04 3.38 -1 1 C-0.67 0.67 -0.34 0.34 0 0 Z " fill="#EB2524" transform="translate(128,29)"/>
<path d="M0 0 C0.99 0.33 1.98 0.66 3 1 C2.34 3.31 1.68 5.62 1 8 C-1 7 -1 7 -1.75 5.125 C-2 3 -2 3 0 0 Z " fill="#F5ECEB" transform="translate(104,55)"/>
<path d="M0 0 C-0.598125 0.268125 -1.19625 0.53625 -1.8125 0.8125 C-4.06604393 2.03585242 -5.42858036 2.97960332 -7 5 C-7.72197162 7.60611077 -7.72197162 7.60611077 -8 10 C-8.33 10 -8.66 10 -9 10 C-9.32523926 6.42236811 -9.42956587 4.60457419 -7.3125 1.625 C-4.61209763 -0.27258004 -3.22939919 -0.35882213 0 0 Z " fill="#60AFE3" transform="translate(259,42)"/>
<path d="M0 0 C0 3 0 3 -1.3125 4.38671875 C-2.875 5.59114583 -4.4375 6.79557292 -6 8 C-5.62403791 5.21788056 -5.32681541 3.4120716 -3.5625 1.1875 C-2 0 -2 0 0 0 Z " fill="#EF1814" transform="translate(85,27)"/>
</svg>
