<?xml version="1.0" encoding="UTF-8"?>
<svg version="1.1" xmlns="http://www.w3.org/2000/svg" width="400" height="277">
<path d="M0 0 C6.13551691 4.23265282 10.5943667 9.48118792 12 17 C12.47919954 24.56582351 12.82929062 31.29874141 9 38 C15.17704049 43.21896891 21.45191216 48.10755234 28.07128906 52.75292969 C37.24376915 59.23375617 46.09464157 66.15972612 55 73 C55.68707031 72.65066406 56.37414062 72.30132812 57.08203125 71.94140625 C57.98308594 71.48636719 58.88414062 71.03132813 59.8125 70.5625 C60.70582031 70.11003906 61.59914062 69.65757813 62.51953125 69.19140625 C69.02743415 66.06556313 76.63865766 65.85743277 83.609375 67.68359375 C89.37924607 70.08107466 95.60346186 73.65827255 98.08813477 79.60375977 C98.38905029 80.39451904 98.68996582 81.18527832 99 82 C114.26616817 78.56628844 129.53227233 75.13229245 144.7983036 71.6979723 C151.88910652 70.10279773 158.97992912 68.50771076 166.07080078 66.9128418 C172.262608 65.5201889 178.45437552 64.12735967 184.64609849 62.73433226 C187.91418058 61.99907808 191.18228629 61.26392931 194.45042801 60.5289402 C196.93150105 59.97094833 199.41254582 59.41283068 201.89356041 58.85457897 C204.25506457 58.3232709 206.61664601 57.7923062 208.97831154 57.26171589 C214.5054417 56.01854945 220.03002955 54.7657215 225.54998779 53.49105835 C226.57182852 53.25586581 227.59366924 53.02067327 228.64647484 52.77835369 C230.55190414 52.33906924 232.45672391 51.89712907 234.3608036 51.45203114 C235.61419816 51.16340214 235.61419816 51.16340214 236.89291382 50.86894226 C237.61813421 50.70016917 238.34335461 50.53139608 239.09055138 50.35750866 C241 50 241 50 244 50 C244.01417969 49.3709375 244.02835937 48.741875 244.04296875 48.09375 C244.52892575 39.3727919 247.46266097 34.21072481 253.6875 28.1875 C259.36459993 23.50469441 266.47917544 21.30836748 273.8671875 21.65234375 C281.63685298 22.91882768 288.8559694 25.91825549 294 32 C298.93030302 39.26706123 300.93523239 46.23050211 300 55 C298.17597969 63.16742854 294.71207973 68.9600108 288 74 C282.48270828 77.34639858 278.4582501 78.07150222 272 78 C271.76309448 79.09027496 271.52618896 80.18054993 271.28210449 81.30386353 C269.05739374 91.46974506 266.66087878 101.57915836 264.12129211 111.67057419 C262.87362568 116.64579292 261.65111815 121.6272778 260.42350006 126.60747337 C259.35014548 130.95580952 258.26811431 135.30166624 257.16894531 139.64355469 C256.09360465 143.89342749 255.04104725 148.14835854 254.00401306 152.40773392 C253.6071719 154.01976247 253.20200872 155.62976627 252.78834534 157.23756027 C252.21538282 159.46925329 251.67182984 161.7062181 251.13476562 163.94677734 C250.81817993 165.21597015 250.50159424 166.48516296 250.17541504 167.79281616 C249.64645156 171.05904139 249.64645156 171.05904139 251.77282715 173.29629517 C252.50779419 173.85851776 253.24276123 174.42074036 254 175 C259.46634188 180.05636624 263.62478199 185.57778772 264.2734375 193.22265625 C264.52401376 202.69636657 263.6775214 209.7440218 257.16796875 217.05859375 C250.83980784 223.06223359 245.15996005 225.1252895 236.5 225.375 C227.18602834 225.09601007 221.78172081 222.65669483 214.984375 216.234375 C209.62241303 210.19689026 207.93917289 202.95618534 208 195 C208.30003191 192.66215133 208.62727992 190.3273666 209 188 C207.95585937 187.36835938 206.91171875 186.73671875 205.8359375 186.0859375 C194.40088001 179.14548555 183.09698294 172.01288719 171.82763672 164.80712891 C167.15967697 161.82385848 162.48620871 158.84925301 157.8125 155.875 C156.89976318 155.29403564 155.98702637 154.71307129 155.04663086 154.11450195 C145.23307644 147.8709467 135.39723066 141.66282852 125.55761719 135.46044922 C123.91313983 134.42379824 122.26925666 133.38620406 120.62597656 132.34765625 C119.01727011 131.33488631 117.40469824 130.32822703 115.78808594 129.328125 C112.10157626 127.03538951 108.5432496 124.70450396 105.1171875 122.03515625 C101.86991201 119.56414632 98.86816924 117.42191469 95 116 C90.26822343 117.04786748 86.95187579 119.29608498 83 122 C76.9694885 124.07440527 70.92481889 123.32225356 65 121.375 C62.49918154 120.70047834 62.49918154 120.70047834 60 121 C56.30962188 123.77556263 53.77387804 127.34063356 51 131 C49.51689179 132.68171574 48.01706146 134.34884819 46.5 136 C45.7575 136.825 45.015 137.65 44.25 138.5 C28.5 156 28.5 156 26.2421875 158.5078125 C24.76707382 160.14739879 23.29308348 161.78799655 21.8203125 163.4296875 C17.69902232 168.0203061 13.55126212 172.58447107 9.375 177.125 C5.81746901 180.99367822 2.31710425 184.90334125 -1.125 188.875 C-3.54550108 191.61823456 -6.0220241 194.30882906 -8.5 197 C-12.11362129 200.92494118 -15.68719793 204.87541177 -19.16015625 208.92578125 C-20.62989446 210.58274726 -22.14902571 212.19585645 -23.68359375 213.79296875 C-24.14886475 214.2820874 -24.61413574 214.77120605 -25.09350586 215.27514648 C-26.43929182 216.68634124 -27.79749817 218.08565988 -29.15625 219.484375 C-31.21757486 221.74363031 -31.21757486 221.74363031 -30.90625 223.953125 C-30.45765625 224.96632812 -30.45765625 224.96632812 -30 226 C-27.07040906 233.96276034 -26.34182688 243.02185641 -29.6875 251 C-33.83847522 258.78307853 -39.46846028 263.90247302 -47.921875 266.6171875 C-57.49971308 268.38152609 -65.24112163 266.96243681 -73.19140625 261.4921875 C-79.98340167 256.11362759 -82.78634908 250.06422921 -83.9375 241.5625 C-84.39829028 233.31435392 -82.07737239 226.24738619 -76.87890625 219.82421875 C-69.69664451 212.85100413 -62.47708402 210.83930113 -52.80859375 210.80078125 C-50.13428698 210.99047478 -48.28477291 211.53556879 -45.8125 212.5 C-42.12745873 213.41171348 -42.12745873 213.41171348 -39.9765625 211.6328125 C-37.83313487 209.52223433 -35.91044571 207.32288409 -34 205 C-32.9187114 203.76903422 -31.8354126 202.53983096 -30.75 201.3125 C-30.18796875 200.65894531 -29.6259375 200.00539062 -29.046875 199.33203125 C-26.41833259 196.33729877 -23.71071714 193.42025929 -21 190.5 C-17.21346531 186.4171984 -13.48232181 182.30229393 -9.83984375 178.08984375 C-6.96015095 174.81885511 -3.99645747 171.62496909 -1.04443359 168.41943359 C1.48754824 165.66508903 3.99042801 162.8924879 6.4375 160.0625 C10.06144644 155.87967989 13.83255746 151.83728193 17.59521484 147.77978516 C20.84615512 144.26787256 24.02984313 140.70998582 27.16015625 137.08984375 C30.03333684 133.8262522 32.98993154 130.63922412 35.93579102 127.44140625 C39.20552215 123.88535394 42.41229541 120.28320658 45.5625 116.62109375 C46.98550816 115.0163427 48.46784521 113.5002349 50 112 C49.505 110.845 49.01 109.69 48.5 108.5 C45.73024415 100.29525154 46.19869576 90.39285042 48 82 C47.28589966 81.4738208 47.28589966 81.4738208 46.55737305 80.93701172 C45.88230713 80.43959473 45.20724121 79.94217773 44.51171875 79.4296875 C43.75157471 78.86958984 42.99143066 78.30949219 42.20825195 77.73242188 C40.51013988 76.48116409 38.81206113 75.2298611 37.11401367 73.97851562 C32.67313194 70.70598587 28.23173899 67.43415543 23.7890625 64.1640625 C22.95415283 63.54934082 22.11924316 62.93461914 21.2590332 62.30126953 C19.6718394 61.13269196 18.08444885 59.96438156 16.49682617 58.79638672 C15.76181885 58.2551416 15.02681152 57.71389648 14.26953125 57.15625 C13.55909668 56.63812744 12.84866211 56.12000488 12.11669922 55.58618164 C10.66570051 54.49885308 9.24092037 53.37590028 7.84033203 52.22436523 C7.1492334 51.66434814 6.45813477 51.10433105 5.74609375 50.52734375 C5.13822021 50.01679443 4.53034668 49.50624512 3.90405273 48.98022461 C1.98468263 47.76507484 1.98468263 47.76507484 -0.47338867 48.3125 C-2.74354245 49.06037264 -4.8338821 49.9943024 -7 51 C-15.48614622 53.53760489 -23.15869273 51.80184595 -31 48 C-37.23691571 44.24847176 -40.64163649 38.80108978 -43 32 C-44.80619666 23.51205624 -44.1218567 16.39859636 -39.8125 8.875 C-30.852701 -4.45990553 -13.97981882 -8.83655867 0 0 Z M237.92585754 64.03607178 C236.9015715 64.26588745 235.87728546 64.49570313 234.82196045 64.73248291 C233.70355774 64.98801941 232.58515503 65.24355591 231.43286133 65.50683594 C229.65878151 65.90684814 229.65878151 65.90684814 227.84886169 66.31494141 C224.60353396 67.04759726 221.35911813 67.78407325 218.11505342 68.52228832 C214.70438945 69.29749993 211.29264709 70.06793655 207.88102722 70.83892822 C202.13789715 72.13751652 196.39548485 73.43923786 190.65356445 74.74316406 C182.61318421 76.56903865 174.57152923 78.38924624 166.52960551 80.2083087 C160.23432125 81.63251792 153.93940499 83.05835262 147.64453125 84.484375 C146.98012472 84.63486644 146.3157182 84.78535788 145.63117814 84.94040966 C131.0742366 88.23797037 116.51966627 91.54139205 102 95 C101.67 97.97 101.34 100.94 101 104 C112.14799957 111.25119562 123.35160267 118.40778091 134.60595703 125.49267578 C138.50990201 127.95065623 142.41151977 130.41231762 146.3125 132.875 C147.47628174 133.60964478 147.47628174 133.60964478 148.66357422 134.35913086 C155.72035783 138.8170724 162.76105338 143.30013754 169.80126953 147.78417969 C174.18052468 150.57244644 178.56144293 153.35796933 182.94921875 156.1328125 C183.7373999 156.63184082 184.52558105 157.13086914 185.33764648 157.64501953 C186.89171022 158.62379713 188.44977759 159.59624944 190.01196289 160.56201172 C194.11994684 163.11245184 198.08668309 165.76163723 201.984375 168.625 C210.00404275 174.99740958 210.00404275 174.99740958 219.54296875 176.484375 C222.63755499 174.98067172 222.63755499 174.98067172 225.1640625 172.9296875 C227.9297217 171.04782022 229.47943719 170.52993715 232.67724609 169.87939453 C233.48696869 169.71118195 234.29669128 169.54296936 235.13095093 169.36965942 C235.74773712 169.24767181 236.36452332 169.1256842 237 169 C239.8724672 157.1878603 242.74126032 145.37483503 245.60533142 133.56065655 C246.93526715 128.07523231 248.26647931 122.59012435 249.60058594 117.10571289 C250.88738034 111.81559573 252.17085133 106.52468251 253.45199585 101.23319435 C253.94201721 99.21184226 254.43324712 97.19078275 254.9256897 95.17001915 C255.61379219 92.34546889 256.2976384 89.51992048 256.98046875 86.6940918 C257.28904312 85.43389473 257.28904312 85.43389473 257.60385132 84.14823914 C258.35301317 81.03274314 259 78.21681216 259 75 C257.36309604 73.52122481 257.36309604 73.52122481 255.25 72.1875 C252.44040216 70.21385645 250.48965705 68.59223763 248.75 65.625 C248.1725 64.75875 247.595 63.8925 247 63 C243.62368127 63 241.16873973 63.30153423 237.92585754 64.03607178 Z " fill="#2D282A" transform="translate(94,7)"/>
<path d="M0 0 C5.99634155 4.68994906 9.7489151 11.2163683 10.91796875 18.71484375 C11.84796932 26.7951766 10.06452331 34.46735024 5.1875 41.05078125 C0.17621179 46.4321646 -5.41078397 50.32285097 -12.875 50.94921875 C-15.29365124 50.96286417 -17.67087127 50.89605828 -20.08203125 50.71484375 C-20.30117188 51.65199219 -20.5203125 52.58914062 -20.74609375 53.5546875 C-23.55319384 65.53407041 -26.42316092 77.49809178 -29.29980469 89.4609375 C-30.31358633 93.67806663 -31.32599318 97.89552396 -32.3371582 102.11328125 C-32.83133966 104.17099387 -33.32725393 106.22829116 -33.82495117 108.28515625 C-35.15321166 113.78440701 -36.44390504 119.28952984 -37.6875 124.80859375 C-37.95240234 125.96423828 -38.21730469 127.11988281 -38.49023438 128.31054688 C-39.00086858 130.5412121 -39.50125742 132.77425311 -39.99023438 135.00976562 C-40.22033203 136.00556641 -40.45042969 137.00136719 -40.6875 138.02734375 C-40.88496826 138.91035156 -41.08243652 139.79335937 -41.28588867 140.703125 C-41.54861572 141.36699219 -41.81134277 142.03085938 -42.08203125 142.71484375 C-45.21552857 143.75934286 -46.07171381 143.6490802 -49.08203125 142.71484375 C-48.44740552 136.75755056 -47.32956801 131.08954987 -45.89453125 125.27734375 C-45.67531006 124.37266357 -45.45608887 123.4679834 -45.23022461 122.53588867 C-44.76001895 120.59577419 -44.28804558 118.65608741 -43.81445312 116.71679688 C-42.57980268 111.65637626 -41.36197527 106.59192679 -40.14453125 101.52734375 C-39.89574219 100.49472412 -39.64695312 99.46210449 -39.390625 98.39819336 C-37.25330177 89.49884524 -35.1937665 80.58227865 -33.17407227 71.65551758 C-31.81900487 65.71494387 -30.32933438 59.84255869 -28.6394043 53.98779297 C-27.96294926 51.6192798 -27.96294926 51.6192798 -28.08203125 48.71484375 C-28.78328125 48.48796875 -29.48453125 48.26109375 -30.20703125 48.02734375 C-35.65765582 45.53901514 -39.34969922 42.02771159 -42.08203125 36.71484375 C-48.7828794 37.41406323 -55.23435197 38.76522651 -61.79956055 40.25927734 C-62.95027542 40.5179509 -64.1009903 40.77662445 -65.28657532 41.0431366 C-68.42387023 41.74917231 -71.56038046 42.45857336 -74.69656348 43.16952848 C-77.99703351 43.91688919 -81.29847525 44.65993308 -84.59980774 45.4034729 C-90.14742325 46.65354435 -95.69441693 47.9063419 -101.2409668 49.16113281 C-109.02239942 50.92151907 -116.80487131 52.67727358 -124.58759439 54.43194461 C-135.63159461 56.92212015 -146.67504756 59.41472015 -157.7175293 61.91162109 C-159.31170181 62.2717907 -159.31170181 62.2717907 -160.93807983 62.63923645 C-161.95408768 62.86909744 -162.97009552 63.09895844 -164.01689148 63.33578491 C-165.00271902 63.55815197 -165.98854656 63.78051903 -167.00424767 64.00962448 C-169.20505044 64.51389922 -171.40299249 65.03072487 -173.59891701 65.55583572 C-174.75586256 65.83112484 -175.91280811 66.10641396 -177.10481262 66.39004517 C-178.15339856 66.64318796 -179.2019845 66.89633076 -180.28234577 67.15714455 C-183.08203125 67.71484375 -183.08203125 67.71484375 -187.08203125 67.71484375 C-187.74203125 63.42484375 -188.40203125 59.13484375 -189.08203125 54.71484375 C-176.60424359 51.87080236 -164.12631508 49.02737976 -151.64822388 46.18467045 C-145.84923956 44.86355008 -140.05029752 43.54224483 -134.25146484 42.22045898 C-120.96582147 39.19224515 -107.67937902 36.16757931 -94.39160156 33.14874268 C-90.22922933 32.20307575 -86.06713332 31.25620771 -81.90527344 30.30828857 C-77.13544731 29.22209786 -72.36490253 28.139124 -67.59375 27.05877495 C-65.85163314 26.66377541 -64.10976579 26.26767367 -62.36816406 25.87040901 C-60.00001888 25.33043746 -57.63100736 24.79444988 -55.26171875 24.25952148 C-54.57069061 24.10099386 -53.87966248 23.94246624 -53.16769409 23.77913475 C-50.39549933 23.15708745 -47.9351408 22.71484375 -45.08203125 22.71484375 C-45.06785156 22.08578125 -45.05367187 21.45671875 -45.0390625 20.80859375 C-44.5531055 12.08763565 -41.61937028 6.92556856 -35.39453125 0.90234375 C-24.83869734 -7.80472829 -11.2437189 -6.94030679 0 0 Z " fill="#292626" transform="translate(383.08203125,34.28515625)"/>
<path d="M0 0 C4.20021864 2.45413757 6.74013526 4.82895289 9.4375 8.875 C9.82808594 9.46023437 10.21867187 10.04546875 10.62109375 10.6484375 C13.89859592 16.20544811 14.53065797 21.5430927 13.4375 27.875 C10.73738148 35.84724775 6.94943414 41.85126649 -0.5625 45.875 C-6.81399214 48.86574707 -14.38558002 49.16738035 -21.01171875 47.1171875 C-29.76653303 42.88152497 -34.21048198 36.92544866 -37.5625 27.875 C-38.84480377 20.65687071 -37.31118788 14.10375059 -33.34375 8 C-25.12026764 -2.59915504 -12.34433923 -5.67471117 0 0 Z " fill="#FAFAFA" transform="translate(180.5625,79.125)"/>
<path d="M0 0 C6.86073114 3.97610555 10.93612294 8.96723587 13.0859375 16.62109375 C14.57396449 23.85388069 13.76078533 29.05825789 10.18359375 35.57421875 C7.53025238 39.44234291 4.34913166 42.21112521 0.5625 44.9375 C-0.324375 45.576875 -1.21125 46.21625 -2.125 46.875 C-8.79937919 49.01583861 -16.52112665 49.27370239 -22.9375 46.1875 C-24.12371091 45.46881037 -25.29324786 44.72127175 -26.4375 43.9375 C-27.324375 43.380625 -28.21125 42.82375 -29.125 42.25 C-34.59287395 36.78212605 -37.48749866 29.98753166 -37.8125 22.3125 C-37.71045082 15.38336088 -35.14868973 9.94931446 -30.53515625 4.82421875 C-22.1416313 -2.95711052 -10.55711011 -4.85531236 0 0 Z " fill="#FCFCFC" transform="translate(90.4375,8.0625)"/>
<path d="M0 0 C5.1826504 4.24035033 9.72043839 10.31198209 11 17 C11.68507908 24.94691727 9.56449559 31.97999916 4.6875 38.375 C-2.25122034 45.15235475 -9.22274525 46.4351825 -18.671875 46.33984375 C-25.26323778 45.66678206 -29.87790372 42.46700319 -34.375 37.75 C-38.97810029 31.82990158 -40.67621793 24.98894028 -40.41015625 17.55078125 C-39.27051853 10.46332 -35.56147191 4.50338621 -29.87109375 0.18359375 C-20.42003796 -5.79484029 -9.54885 -5.89554504 0 0 Z " fill="#FBFBFB" transform="translate(53,225)"/>
<path d="M0 0 C6.80951931 3.49868406 12.29924699 9.02948455 15.328125 16.1015625 C17.52075996 23.24844226 16.98935205 28.52085356 13.890625 35.3515625 C10.05690467 42.46614988 5.06419524 46.64387669 -2.609375 49.1640625 C-12.04295024 50.08353755 -18.75242391 49.30564366 -26.296875 43.4765625 C-31.35206155 38.92121462 -34.16352434 32.80262422 -34.8125 26.05078125 C-34.98552466 17.93304087 -32.14990156 11.11552325 -26.609375 5.1640625 C-18.73311375 -0.81634721 -9.70934824 -3.11047983 0 0 Z " fill="#FBFBFB" transform="translate(339.609375,179.8359375)"/>
<path d="M0 0 C5.33319409 3.77411418 9.74647197 9.06042071 11.19140625 15.55078125 C12.05093283 22.92360927 11.92784274 29.204517 7.81640625 35.546875 C2.87728289 41.63766895 -2.27051915 46.01139867 -10.2265625 46.95703125 C-18.74229968 47.1688216 -25.27008165 46.56474854 -31.80859375 40.55078125 C-38.55797032 32.2938595 -39.43829333 26.13686289 -38.80859375 15.55078125 C-37.51546335 8.87158477 -32.27360259 2.92507713 -26.7734375 -0.84375 C-17.9800159 -5.36015347 -8.50167564 -4.84445402 0 0 Z " fill="#FCFCFC" transform="translate(379.80859375,35.44921875)"/>
<path d="M0 0 C0.99 0.33 1.98 0.66 3 1 C1.69977312 8.6206707 0.09203554 16.11817757 -1.75 23.625 C-2.2853184 25.82808561 -2.8204698 28.0312118 -3.35546875 30.234375 C-3.62794434 31.35263672 -3.90041992 32.47089844 -4.18115234 33.62304688 C-4.98022627 36.91845252 -5.76782771 40.21635548 -6.55078125 43.515625 C-9.01193239 53.87682604 -11.54536159 64.20524253 -14.30566406 74.4909668 C-16.11208395 81.27992126 -17.6177585 88.11126797 -19 95 C-17.02 95 -15.04 95 -13 95 C-4.98829805 63.19666396 -4.98829805 63.19666396 2.52734375 31.2734375 C2.79264893 30.10828613 3.0579541 28.94313477 3.33129883 27.74267578 C3.84453046 25.48420399 4.35375798 23.2248169 4.8581543 20.96435547 C6.25119379 14.82963306 7.90265698 8.93212995 10 3 C10.99 3 11.98 3 13 3 C10.55087259 14.27125415 7.93616425 25.48527162 5.12129211 36.67057419 C3.87362568 41.64579292 2.65111815 46.6272778 1.42350006 51.60747337 C0.35014548 55.95580952 -0.73188569 60.30166624 -1.83105469 64.64355469 C-2.90639535 68.89342749 -3.95895275 73.14835854 -4.99598694 77.40773392 C-5.3928281 79.01976247 -5.79799128 80.62976627 -6.21165466 82.23756027 C-6.78461718 84.46925329 -7.32817016 86.7062181 -7.86523438 88.94677734 C-8.18182007 90.21597015 -8.49840576 91.48516296 -8.82458496 92.79281616 C-9.35354844 96.05904139 -9.35354844 96.05904139 -7.22717285 98.29629517 C-6.49220581 98.85851776 -5.75723877 99.42074036 -5 100 C0.46634188 105.05636624 4.62478199 110.57778772 5.2734375 118.22265625 C5.52401376 127.69636657 4.6775214 134.7440218 -1.83203125 142.05859375 C-8.16019216 148.06223359 -13.84003995 150.1252895 -22.5 150.375 C-31.81397166 150.09601007 -37.21827919 147.65669483 -44.015625 141.234375 C-49.37758697 135.19689026 -51.06082711 127.95618534 -51 120 C-50.69996809 117.66215133 -50.37272008 115.3273666 -50 113 C-51.56621094 112.05253906 -51.56621094 112.05253906 -53.1640625 111.0859375 C-64.59911999 104.14548555 -75.90301706 97.01288719 -87.17236328 89.80712891 C-91.84032303 86.82385848 -96.51379129 83.84925301 -101.1875 80.875 C-102.10023682 80.29403564 -103.01297363 79.71307129 -103.95336914 79.11450195 C-113.76692356 72.8709467 -123.60276934 66.66282852 -133.44238281 60.46044922 C-134.25803711 59.94627441 -135.07369141 59.43209961 -135.9140625 58.90234375 C-136.72681641 58.39002197 -137.53957031 57.8777002 -138.37695312 57.34985352 C-140.75584809 55.84825953 -143.13195398 54.34232972 -145.5078125 52.8359375 C-148.42733444 50.98627908 -151.35925138 49.15963853 -154.3046875 47.3515625 C-155.59896776 46.54689016 -156.89323914 45.74220355 -158.1875 44.9375 C-159.07949097 44.40056519 -159.07949097 44.40056519 -159.98950195 43.8527832 C-161.60546875 42.83984375 -161.60546875 42.83984375 -164 41 C-164 40.01 -164 39.02 -164 38 C-159.29537739 39.65074478 -155.27587597 42.13641704 -151.0625 44.75 C-149.89255493 45.47038452 -149.89255493 45.47038452 -148.69897461 46.20532227 C-139.63605055 51.80686771 -130.66381515 57.55183382 -121.68554688 63.28759766 C-117.56900794 65.91245258 -113.44162334 68.52000075 -109.3125 71.125 C-108.15439819 71.85577759 -108.15439819 71.85577759 -106.97290039 72.60131836 C-105.42422235 73.57839666 -103.87547591 74.55536657 -102.32666016 75.53222656 C-99.1770612 77.5191509 -96.02855158 79.50779756 -92.88012695 81.49658203 C-91.29932765 82.49510107 -89.71843641 83.49347459 -88.13745117 84.49169922 C-84.1031728 87.03900666 -80.07011031 89.58820791 -76.0390625 92.140625 C-61.80164348 101.56142999 -61.80164348 101.56142999 -47 110 C-46.34 108.35 -45.68 106.7 -45 105 C-51.26358925 100.45287511 -57.70145573 96.25684109 -64.27612305 92.18164062 C-70.1497262 88.53972341 -75.98551803 84.84100642 -81.8125 81.125 C-94.76188087 72.8735754 -107.7316293 64.65652128 -120.76000977 56.53027344 C-123.79781665 54.63416491 -126.83264349 52.73335624 -129.8671875 50.83203125 C-134.02725047 48.22649005 -138.20088904 45.64450606 -142.3828125 43.07421875 C-144.40125896 41.82066231 -146.41949625 40.56676899 -148.4375 39.3125 C-149.38536377 38.7364502 -150.33322754 38.16040039 -151.30981445 37.56689453 C-152.17566162 37.02532715 -153.04150879 36.48375977 -153.93359375 35.92578125 C-154.69728271 35.45567627 -155.46097168 34.98557129 -156.24780273 34.5012207 C-158.2993264 32.74354772 -158.64342063 31.63557123 -159 29 C-155.67469301 30.25340454 -152.70507464 31.66728776 -149.69140625 33.546875 C-148.87333496 34.05484619 -148.05526367 34.56281738 -147.21240234 35.08618164 C-146.33793457 35.6352417 -145.4634668 36.18430176 -144.5625 36.75 C-143.64162598 37.32419678 -142.72075195 37.89839355 -141.77197266 38.48999023 C-133.26507253 43.80590303 -124.8029833 49.19241167 -116.34765625 54.58984375 C-111.34508956 57.78279886 -106.33156164 60.95805012 -101.3125 64.125 C-100.54019043 64.61234619 -99.76788086 65.09969238 -98.97216797 65.60180664 C-97.42373014 66.57871597 -95.87522781 67.55552305 -94.32666016 68.53222656 C-90.38339756 71.01983356 -86.44178256 73.51004871 -82.5 76 C-77.6566592 79.05924239 -72.81308906 82.11811979 -67.96875 85.17578125 C-67.14318604 85.6980127 -66.31762207 86.22024414 -65.46704102 86.75830078 C-63.84127562 87.78250885 -62.21162336 88.80057674 -60.57788086 89.81201172 C-57.1894365 91.91865842 -53.89261359 94.01209312 -50.78515625 96.51953125 C-48.15728234 98.55170347 -46.19017867 100.06891867 -43 101 C-39.56921321 99.99434784 -36.91910153 98.52728998 -33.8828125 96.6484375 C-29.83198532 94.33211085 -26.608781 94.15362603 -22 94 C-21.87488037 92.85489456 -21.74976074 91.70978912 -21.62084961 90.52998352 C-21.0654835 86.1079279 -20.12551281 81.84546203 -19.06640625 77.52026367 C-18.8727951 76.71436798 -18.67918396 75.90847229 -18.47970581 75.07815552 C-17.8448595 72.44038748 -17.20378723 69.80417759 -16.5625 67.16796875 C-16.11757393 65.32579256 -15.6729993 63.48353145 -15.22875977 61.64118958 C-14.30002497 57.7934279 -13.36844989 53.9463697 -12.43457031 50.09985352 C-11.2368963 45.16666956 -10.04420293 40.23229928 -8.85334778 35.29746532 C-7.71645699 30.58721562 -6.57705847 25.87757363 -5.4375 21.16796875 C-5.22022247 20.26903585 -5.00294495 19.37010296 -4.77908325 18.44392967 C-4.16530845 15.90653525 -3.54974632 13.3695816 -2.93359375 10.83276367 C-2.7517453 10.08000656 -2.56989685 9.32724945 -2.38253784 8.55168152 C-1.67816627 5.65845726 -0.94218009 2.82654027 0 0 Z M-37 101 C-37.886875 101.5775 -38.77375 102.155 -39.6875 102.75 C-45.01500793 107.93352122 -48.08694322 113.72765222 -48.25 121.1875 C-48.10028572 129.48983742 -45.4501079 135.32441206 -39.76953125 141.33984375 C-33.67459801 147.05804823 -27.45817249 147.41619706 -19.3984375 147.34375 C-12.70590568 146.66680425 -7.9240504 143.84039604 -3.125 139.25 C1.3176965 132.45528771 4.34598751 126.25631512 3 118 C0.72277503 109.2279677 -3.89447082 103.24322126 -11.625 98.5625 C-19.94907824 94.8215232 -29.59381627 95.90935342 -37 101 Z " fill="#2E2A2B" transform="translate(353,82)"/>
<path d="M0 0 C0.99 0.495 0.99 0.495 2 1 C0.33923167 5.1468882 -2.65979449 8.06719325 -5.6875 11.25 C-6.78462792 12.41984774 -7.88098677 13.59041724 -8.9765625 14.76171875 C-9.50282227 15.32294434 -10.02908203 15.88416992 -10.57128906 16.46240234 C-12.27483021 18.29577592 -13.92728263 20.16804085 -15.5625 22.0625 C-18.47797917 25.43419107 -21.48075642 28.72142867 -24.5 32 C-27.53890177 35.30026876 -30.561561 38.60949347 -33.5 42 C-36.86322638 45.87817013 -40.33335671 49.65527811 -43.80810547 53.43310547 C-48.24223628 58.25584891 -52.6251824 63.1234112 -57 68 C-58.49971128 69.66692647 -59.99971321 71.33359149 -61.5 73 C-62.2425 73.825 -62.985 74.65 -63.75 75.5 C-66 78 -68.25 80.5 -70.5 83 C-71.60794922 84.23169922 -71.60794922 84.23169922 -72.73828125 85.48828125 C-74.27562686 87.19555798 -75.81475555 88.90123044 -77.35546875 90.60546875 C-81.63916046 95.34838369 -85.86696092 100.12513339 -90 105 C-88.35 106.32 -86.7 107.64 -85 109 C-77.6964721 101.10741544 -77.6964721 101.10741544 -70.5625 93.0625 C-66.93855356 88.87967989 -63.16744254 84.83728193 -59.40478516 80.77978516 C-56.15384488 77.26787256 -52.97015687 73.70998582 -49.83984375 70.08984375 C-46.96015095 66.81885511 -43.99645747 63.62496909 -41.04443359 60.41943359 C-38.51245176 57.66508903 -36.00957199 54.8924879 -33.5625 52.0625 C-29.93855356 47.87967989 -26.16744254 43.83728193 -22.40478516 39.77978516 C-19.15384488 36.26787256 -15.97015687 32.70998582 -12.83984375 29.08984375 C-10.43329879 26.3562948 -7.96697933 23.67884932 -5.5 21 C-1.26001992 16.39570322 2.91387967 11.74157308 7 7 C7.99 7.33 8.98 7.66 10 8 C6.02397762 13.53027742 1.76692747 18.579779 -2.9375 23.5 C-4.18319247 24.81815972 -5.42799597 26.13716014 -6.671875 27.45703125 C-7.54682617 28.38443115 -7.54682617 28.38443115 -8.43945312 29.33056641 C-10.77027568 31.82402145 -13.00448256 34.39381645 -15.23046875 36.98046875 C-17.60884382 39.69486149 -20.05507182 42.34574017 -22.5 45 C-25.51930769 48.2785105 -28.5220225 51.56581086 -31.4375 54.9375 C-35.06144644 59.12032011 -38.83255746 63.16271807 -42.59521484 67.22021484 C-45.84615512 70.73212744 -49.02984313 74.29001418 -52.16015625 77.91015625 C-54.56670191 80.64370599 -57.03304949 83.32112354 -59.5 86 C-63.11364693 89.92491665 -66.68719874 93.87541272 -70.16015625 97.92578125 C-71.62989446 99.58274726 -73.14902571 101.19585645 -74.68359375 102.79296875 C-75.38150024 103.52664673 -75.38150024 103.52664673 -76.09350586 104.27514648 C-77.43929182 105.68634124 -78.79749817 107.08565988 -80.15625 108.484375 C-82.21757486 110.74363031 -82.21757486 110.74363031 -81.90625 112.953125 C-81.45765625 113.96632812 -81.45765625 113.96632812 -81 115 C-78.07040906 122.96276034 -77.34182688 132.02185641 -80.6875 140 C-84.83847522 147.78307853 -90.46846028 152.90247302 -98.921875 155.6171875 C-108.49971308 157.38152609 -116.24112163 155.96243681 -124.19140625 150.4921875 C-130.98340167 145.11362759 -133.78634908 139.06422921 -134.9375 130.5625 C-135.39829028 122.31435392 -133.07737239 115.24738619 -127.87890625 108.82421875 C-120.69664451 101.85100413 -113.47708402 99.83930113 -103.80859375 99.80078125 C-101.13428698 99.99047478 -99.28477291 100.53556879 -96.8125 101.5 C-93.12745873 102.41171348 -93.12745873 102.41171348 -90.9765625 100.6328125 C-88.83313487 98.52223433 -86.91044571 96.32288409 -85 94 C-83.9187114 92.76903422 -82.8354126 91.53983096 -81.75 90.3125 C-81.18796875 89.65894531 -80.6259375 89.00539063 -80.046875 88.33203125 C-77.41833259 85.33729877 -74.71071714 82.42025929 -72 79.5 C-68.21346531 75.4171984 -64.48232181 71.30229393 -60.83984375 67.08984375 C-57.96015095 63.81885511 -54.99645747 60.62496909 -52.04443359 57.41943359 C-49.51245176 54.66508903 -47.00957199 51.8924879 -44.5625 49.0625 C-40.93855356 44.87967989 -37.16744254 40.83728193 -33.40478516 36.77978516 C-30.15384488 33.26787256 -26.97015687 29.70998582 -23.83984375 26.08984375 C-20.96598095 22.8254773 -18.00876328 19.63761012 -15.06201172 16.43920898 C-11.79333841 12.88465414 -8.5998707 9.27388927 -5.4375 5.625 C-3.70450364 3.66596063 -1.88660743 1.81114313 0 0 Z M-127 112 C-131.39452995 118.42533546 -133.10008446 124.27468781 -132 132 C-130.51517145 139.8971855 -126.52083163 145.47275774 -120.22265625 150.38671875 C-113.75152466 154.28581495 -105.80905785 154.01654881 -98.59765625 152.4921875 C-91.43119392 150.09878166 -87.51392627 146.40429956 -84.1875 139.875 C-81.25559594 133.63165737 -79.76787018 128.20073277 -81.75390625 121.4296875 C-85.18172132 112.42327144 -89.35294971 108.1403924 -98 104 C-108.62938376 100.45687208 -119.73456627 103.62358975 -127 112 Z " fill="#2C2829" transform="translate(145,118)"/>
<path d="M0 0 C0 2.31 0 4.62 0 7 C-9.78766873 9.67884837 -19.59119799 12.11629924 -29.5 14.3125 C-30.84447342 14.61295757 -32.18887268 14.91374715 -33.53320312 15.21484375 C-36.31091637 15.83671801 -39.08893487 16.45720027 -41.8671875 17.07666016 C-48.41446388 18.53777659 -54.95691728 20.02023492 -61.5 21.5 C-64.08331188 22.08342834 -66.66664526 22.66676149 -69.25 23.25 C-71.168125 23.683125 -71.168125 23.683125 -73.125 24.125 C-78.9375 25.4375 -78.9375 25.4375 -84.75 26.75 C-86.03092529 27.03931396 -87.31185059 27.32862793 -88.6315918 27.62670898 C-91.19282601 28.20490619 -93.75418505 28.78255074 -96.31567383 29.35961914 C-102.38120304 30.72680946 -108.44520223 32.09969763 -114.50497437 33.49215698 C-117.37407582 34.15108346 -120.24389169 34.80686672 -123.11376953 35.46240234 C-124.48441115 35.77642031 -125.85469926 36.09198573 -127.22460938 36.40917969 C-129.12149933 36.84829192 -131.01970773 37.28169691 -132.91796875 37.71484375 C-133.99844482 37.96355225 -135.0789209 38.21226074 -136.19213867 38.46850586 C-139 39 -139 39 -143 39 C-143.33 36.69 -143.66 34.38 -144 32 C-135.54421129 30.0206976 -127.0870228 28.04745121 -118.62890625 26.078125 C-115.53493235 25.35772726 -112.44120599 24.63627941 -109.34765625 23.9140625 C-90.78602762 19.58254612 -72.2092258 15.36032637 -53.56832886 11.3828125 C-39.52846171 8.38312131 -25.5751718 5.09463578 -11.64257812 1.62915039 C-7.620269 0.67151083 -4.15992682 0 0 0 Z " fill="#3572D4" transform="translate(339,60)"/>
<path d="M0 0 C1.65 1.32 3.3 2.64 5 4 C3.33923167 8.1468882 0.34020551 11.06719325 -2.6875 14.25 C-3.78462792 15.41984774 -4.88098677 16.59041724 -5.9765625 17.76171875 C-6.50282227 18.32294434 -7.02908203 18.88416992 -7.57128906 19.46240234 C-9.27483021 21.29577592 -10.92728263 23.16804085 -12.5625 25.0625 C-15.94644936 28.97596711 -19.4512877 32.77534997 -22.95556641 36.58056641 C-25.48754824 39.33491097 -27.99042801 42.1075121 -30.4375 44.9375 C-34.06144644 49.12032011 -37.83255746 53.16271807 -41.59521484 57.22021484 C-44.84615512 60.73212744 -48.02984313 64.29001418 -51.16015625 67.91015625 C-54.03984905 71.18114489 -57.00354253 74.37503091 -59.95556641 77.58056641 C-62.48754824 80.33491097 -64.99042801 83.1075121 -67.4375 85.9375 C-70.60026798 89.58272412 -73.85452046 93.1391463 -77.125 96.6875 C-77.62829834 97.23462646 -78.13159668 97.78175293 -78.65014648 98.34545898 C-81.69597271 101.64004691 -84.80690975 104.8478468 -88 108 C-89.65 106.35 -91.3 104.7 -93 103 C-92.23816406 102.17757812 -91.47632813 101.35515625 -90.69140625 100.5078125 C-84.4085048 93.7179452 -78.17179017 86.89127026 -72 80 C-70.50043381 78.332943 -69.00042947 76.66628005 -67.5 75 C-66.7575 74.175 -66.015 73.35 -65.25 72.5 C-58.5 65 -58.5 65 -56.2421875 62.4921875 C-54.76707382 60.85260121 -53.29308348 59.21200345 -51.8203125 57.5703125 C-47.69902232 52.9796939 -43.55126212 48.41552893 -39.375 43.875 C-35.81746901 40.00632178 -32.31710425 36.09665875 -28.875 32.125 C-26.45449858 29.38176506 -23.97795822 26.69118757 -21.5 24 C-17.86771343 20.05431088 -14.28296557 16.07542744 -10.76953125 12.0234375 C-7.22749258 7.97315928 -3.60747906 3.99194962 0 0 Z " fill="#E2CE1D" transform="translate(147,120)"/>
<path d="M0 0 C3.32530699 1.25340454 6.29492536 2.66728776 9.30859375 4.546875 C10.12666504 5.05484619 10.94473633 5.56281738 11.78759766 6.08618164 C12.66206543 6.6352417 13.5365332 7.18430176 14.4375 7.75 C15.35837402 8.32419678 16.27924805 8.89839355 17.22802734 9.48999023 C25.73492747 14.80590303 34.1970167 20.19241167 42.65234375 25.58984375 C47.65491044 28.78279886 52.66843836 31.95805012 57.6875 35.125 C58.45980957 35.61234619 59.23211914 36.09969238 60.02783203 36.60180664 C61.57626986 37.57871597 63.12477219 38.55552305 64.67333984 39.53222656 C68.61660244 42.01983356 72.55821744 44.51004871 76.5 47 C81.3433408 50.05924239 86.18691094 53.11811979 91.03125 56.17578125 C99.36369745 61.43564378 107.69369857 66.69889976 116 72 C115.01 73.98 114.02 75.96 113 78 C107.73990336 76.54837643 103.78405583 74.12822119 99.3125 71.125 C97.79234136 70.12267391 96.27148258 69.12140903 94.75 68.12109375 C93.574375 67.34548096 93.574375 67.34548096 92.375 66.55419922 C88.55051091 64.05145482 84.68220693 61.619516 80.8125 59.1875 C73.86267587 54.81086346 66.92666035 50.41320652 60 46 C49.20448675 39.1238829 38.38535053 32.28568777 27.55761719 25.46044922 C17.34130105 19.02025467 7.14425326 12.5532207 -3 6 C-2.01 4.02 -1.02 2.04 0 0 Z " fill="#E31A22" transform="translate(193,114)"/>
<path d="M0 0 C6.13551691 4.23265282 10.5943667 9.48118792 12 17 C12.47919954 24.56582351 12.82929062 31.29874141 9 38 C14.64083094 42.76592655 20.33793912 47.3091162 26.375 51.5625 C32.78470219 56.08563901 39.0992035 60.7303888 45.375 65.4375 C46.32165527 66.13625244 47.26831055 66.83500488 48.24365234 67.55493164 C49.11973145 68.21614014 49.99581055 68.87734863 50.8984375 69.55859375 C51.68911621 70.14954834 52.47979492 70.74050293 53.29443359 71.34936523 C54.13868896 72.16642944 54.13868896 72.16642944 55 73 C55 73.99 55 74.98 55 76 C49.33461446 72.96950391 44.45087215 69.3787573 39.4375 65.375 C32.75360793 60.10265577 25.97483165 55.0337497 19.015625 50.1328125 C15.28560097 47.49473851 11.63712663 44.76421624 8 42 C6.68 42.66 5.36 43.32 4 44 C8.10236626 48.38725281 12.63511454 51.80799737 17.5 55.3125 C19.18581691 56.54300994 20.87067469 57.77483472 22.5546875 59.0078125 C23.43608398 59.65266602 24.31748047 60.29751953 25.22558594 60.96191406 C30.04938592 64.5054799 34.84435788 68.08597874 39.625 71.6875 C40.54345703 72.37046143 41.46191406 73.05342285 42.40820312 73.75708008 C43.25576172 74.39798584 44.10332031 75.0388916 44.9765625 75.69921875 C45.73018066 76.26471436 46.48379883 76.83020996 47.26025391 77.4128418 C49 79 49 79 50 82 C46.30274608 80.67853252 43.50136253 79.06692831 40.41015625 76.65625 C39.54994873 75.99157715 38.68974121 75.3269043 37.8034668 74.64208984 C36.89894775 73.9352002 35.99442871 73.22831055 35.0625 72.5 C33.17574156 71.04263502 31.28771817 69.58690624 29.3984375 68.1328125 C28.47772461 67.42415039 27.55701172 66.71548828 26.60839844 65.98535156 C22.63403716 62.96031357 18.58957028 60.04128548 14.48583984 57.19458008 C11.36622537 55.02484518 8.53015976 52.70258764 5.6875 50.1875 C3.38249316 48.41289258 2.58077475 47.93212983 -0.33984375 48.2734375 C-2.66062056 49.03323801 -4.78752232 49.97277822 -7 51 C-15.48614622 53.53760489 -23.15869273 51.80184595 -31 48 C-37.23691571 44.24847176 -40.64163649 38.80108978 -43 32 C-44.80619666 23.51205624 -44.1218567 16.39859636 -39.8125 8.875 C-30.852701 -4.45990553 -13.97981882 -8.83655867 0 0 Z M-37 9 C-40.94612482 14.95787473 -41.93289422 20.96916307 -41 28 C-39.2403304 35.49889966 -35.38414519 41.7067584 -28.875 45.875 C-22.48895213 49.62711373 -16.27419509 49.72741951 -9 49 C-0.72371402 46.34861497 4.78131571 39.93637535 8.9375 32.5625 C11.42421579 24.22468822 9.95711048 17.65302555 6 10 C2.28062311 4.20214779 -2.50278214 1.05730579 -9 -1 C-20.54396651 -2.45155451 -29.19887789 0.28508051 -37 9 Z " fill="#2C2729" transform="translate(94,7)"/>
<path d="M0 0 C1.98 0 3.96 0 6 0 C6.25960611 5.62232653 5.3531465 10.23585139 3.8125 15.625 C3.34680436 17.32232715 2.88333922 19.02026754 2.421875 20.71875 C2.06512695 22.02779297 2.06512695 22.02779297 1.70117188 23.36328125 C0.57494772 27.59838602 -0.43504397 31.85917779 -1.4375 36.125 C-1.64076904 36.98754395 -1.84403809 37.85008789 -2.0534668 38.73876953 C-2.47855329 40.54353429 -2.90326817 42.34838661 -3.32763672 44.15332031 C-4.78498733 50.32351208 -6.27025949 56.48713407 -7.76269531 62.64892578 C-9.01455022 67.82998979 -10.23488169 73.0144583 -11.38671875 78.21875 C-11.60650391 79.19392578 -11.82628906 80.16910156 -12.05273438 81.17382812 C-12.4671852 83.01909073 -12.87131013 84.86671151 -13.26367188 86.71679688 C-13.74443606 88.83584459 -14.35963532 90.92360156 -15 93 C-18.13349732 94.04449911 -18.98968256 93.93423645 -22 93 C-21.36537427 87.04270681 -20.24753676 81.37470612 -18.8125 75.5625 C-18.59327881 74.65781982 -18.37405762 73.75313965 -18.14819336 72.82104492 C-17.6779877 70.88093044 -17.20601433 68.94124366 -16.73242188 67.00195312 C-15.49777124 61.94153173 -14.28013966 56.87703657 -13.0625 51.8125 C-12.81298584 50.77843018 -12.56347168 49.74436035 -12.30639648 48.67895508 C-10.70310649 42.01097094 -9.16020624 35.33127746 -7.64477539 28.64282227 C-5.44912543 18.96538885 -3.23288619 9.39438692 0 0 Z " fill="#40CA56" transform="translate(356,84)"/>
<path d="M0 0 C0 0.99 0 1.98 0 3 C-14.07472909 6.69145335 -28.20948361 9.96556493 -42.4375 13 C-53.93119203 15.45213615 -65.38851438 17.98753871 -76.80566406 20.77905273 C-87.68417833 23.4321955 -98.60888414 25.87349723 -109.53515625 28.3203125 C-114.25626718 29.37806429 -118.97240611 30.45359176 -123.68359375 31.5546875 C-124.69526611 31.78986084 -125.70693848 32.02503418 -126.74926758 32.26733398 C-128.60560613 32.69993856 -130.46099362 33.13665448 -132.31518555 33.57836914 C-136.28132674 34.49857026 -139.89567008 35.27641406 -144 35 C-144 34.01 -144 33.02 -144 32 C-131.52221234 29.15595861 -119.04428383 26.31253601 -106.56619263 23.4698267 C-100.76720831 22.14870633 -94.96826627 20.82740108 -89.16943359 19.50561523 C-75.88379022 16.4774014 -62.59734777 13.45273556 -49.30957031 10.43389893 C-45.14719808 9.488232 -40.98510207 8.54136396 -36.82324219 7.59344482 C-32.05341606 6.50725411 -27.28287128 5.42428025 -22.51171875 4.3439312 C-20.76960189 3.94893166 -19.02773454 3.55282992 -17.28613281 3.15556526 C-14.91798763 2.61559371 -12.54897611 2.07960613 -10.1796875 1.54467773 C-9.48865936 1.38615011 -8.79763123 1.22762249 -8.08566284 1.064291 C-5.31346808 0.4422437 -2.85310955 0 0 0 Z " fill="#07050A" transform="translate(338,57)"/>
<path d="M0 0 C0 0.66 0 1.32 0 2 C-13.806764 5.13897552 -27.61358911 8.27768217 -41.42047977 11.4161005 C-47.83511537 12.87420703 -54.24973312 14.33239193 -60.66430664 15.79077148 C-63.16748033 16.3598639 -65.67065416 16.9289557 -68.17382812 17.49804688 C-69.40265905 17.77743292 -70.63148998 18.05681896 -71.89755821 18.34467125 C-77.97987156 19.72740478 -84.06234827 21.10941251 -90.14517212 22.48989868 C-92.47845626 23.01946284 -94.81173877 23.54903422 -97.14501953 24.07861328 C-98.26259958 24.33224955 -99.38017963 24.58588581 -100.53162575 24.84720802 C-106.33953387 26.16607525 -112.14625043 27.48989982 -117.95088673 28.82309437 C-120.91321619 29.50326453 -123.87619471 30.18057546 -126.83929253 30.85738945 C-128.73545103 31.29183536 -130.63057337 31.73079615 -132.52565002 32.16993713 C-133.61603073 32.41864059 -134.70641144 32.66734406 -135.82983398 32.92358398 C-137.20291969 33.23996071 -137.20291969 33.23996071 -138.60374451 33.56272888 C-141 34 -141 34 -145 34 C-144.67 33.01 -144.34 32.02 -144 31 C-141.6608786 30.19461794 -139.47927166 29.60236736 -137.07421875 29.078125 C-136.35900558 28.91129211 -135.64379242 28.74445923 -134.90690613 28.5725708 C-133.3805902 28.21777179 -131.85294889 27.86863522 -130.32415771 27.5246582 C-128.08699059 27.01963736 -125.85487331 26.49691906 -123.62353516 25.96679688 C-119.02407247 24.87607008 -114.41887469 23.81110408 -109.8125 22.75 C-108.97906067 22.55746643 -108.14562134 22.36493286 -107.28692627 22.16656494 C-94.06957311 19.11606996 -80.82477528 16.21247575 -67.55908203 13.38061523 C-57.10605661 11.14606758 -46.69725879 8.78430239 -36.3125 6.25 C-35.1354248 5.96302246 -33.95834961 5.67604492 -32.74560547 5.38037109 C-30.52384832 4.83788226 -28.30216473 4.29509204 -26.08056641 3.75195312 C-21.55812667 2.64804487 -17.03433958 1.55403715 -12.5 0.5 C-11.79399658 0.32758789 -11.08799316 0.15517578 -10.3605957 -0.02246094 C-6.58841603 -0.88386562 -3.73307197 -1.09120565 0 0 Z " fill="#060408" transform="translate(341,68)"/>
<path d="M0 0 C0.99 0.33 1.98 0.66 3 1 C-0.97602238 6.53027742 -5.23307253 11.579779 -9.9375 16.5 C-11.18319247 17.81815972 -12.42799597 19.13716014 -13.671875 20.45703125 C-14.54682617 21.38443115 -14.54682617 21.38443115 -15.43945312 22.33056641 C-17.77027568 24.82402145 -20.00448256 27.39381645 -22.23046875 29.98046875 C-24.60884382 32.69486149 -27.05507182 35.34574017 -29.5 38 C-32.51930769 41.2785105 -35.5220225 44.56581086 -38.4375 47.9375 C-42.06144644 52.12032011 -45.83255746 56.16271807 -49.59521484 60.22021484 C-52.84615512 63.73212744 -56.02984313 67.29001418 -59.16015625 70.91015625 C-61.56670156 73.64370559 -64.03303196 76.32114006 -66.5 79 C-69.53890177 82.30026876 -72.561561 85.60949347 -75.5 89 C-78.57263321 92.5286688 -81.67890416 96.02544295 -84.8125 99.5 C-85.29332031 100.04140625 -85.77414063 100.5828125 -86.26953125 101.140625 C-87.47171773 102.46576237 -88.73169255 103.73800254 -90 105 C-90.66 105 -91.32 105 -92 105 C-91.43207085 101.11323488 -89.6485179 99.19824651 -87 96.375 C-86.18273437 95.49328125 -85.36546875 94.6115625 -84.5234375 93.703125 C-83.69070312 92.81109375 -82.85796875 91.9190625 -82 91 C-80.53822203 89.37809794 -79.07982409 87.75314249 -77.625 86.125 C-74.23222809 82.35261725 -70.80961124 78.60918892 -67.375 74.875 C-63.81746901 71.00632178 -60.31710425 67.09665875 -56.875 63.125 C-53.98080664 59.84491419 -51.00781108 56.63731943 -48.04467773 53.41967773 C-45.51259884 50.66526572 -43.00964732 47.89257501 -40.5625 45.0625 C-36.93855356 40.87967989 -33.16744254 36.83728193 -29.40478516 32.77978516 C-26.15384488 29.26787256 -22.97015687 25.70998582 -19.83984375 22.08984375 C-17.43329879 19.3562948 -14.96697933 16.67884932 -12.5 14 C-8.26001992 9.39570322 -4.08612033 4.74157308 0 0 Z " fill="#0D0701" transform="translate(152,125)"/>
<path d="M0 0 C0.99 0.495 0.99 0.495 2 1 C0.33923167 5.1468882 -2.65979449 8.06719325 -5.6875 11.25 C-6.78462792 12.41984774 -7.88098677 13.59041724 -8.9765625 14.76171875 C-9.50282227 15.32294434 -10.02908203 15.88416992 -10.57128906 16.46240234 C-12.27483021 18.29577592 -13.92728263 20.16804085 -15.5625 22.0625 C-18.47797917 25.43419107 -21.48075642 28.72142867 -24.5 32 C-27.53890177 35.30026876 -30.561561 38.60949347 -33.5 42 C-36.86322638 45.87817013 -40.33335671 49.65527811 -43.80810547 53.43310547 C-48.24223628 58.25584891 -52.6251824 63.1234112 -57 68 C-58.49971128 69.66692647 -59.99971321 71.33359149 -61.5 73 C-62.2425 73.825 -62.985 74.65 -63.75 75.5 C-67.125 79.25 -67.125 79.25 -70.5 83 C-71.60794922 84.23169922 -71.60794922 84.23169922 -72.73828125 85.48828125 C-74.27562686 87.19555798 -75.81475555 88.90123044 -77.35546875 90.60546875 C-81.63916046 95.34838369 -85.86696092 100.12513339 -90 105 C-90.99 104.67 -91.98 104.34 -93 104 C-91.59837957 100.85387907 -89.93203803 98.65010321 -87.55078125 96.171875 C-86.86693359 95.45386719 -86.18308594 94.73585938 -85.47851562 93.99609375 C-84.76373047 93.25488281 -84.04894531 92.51367188 -83.3125 91.75 C-78.63589342 86.86968582 -74.03528426 81.95892107 -69.61010742 76.84863281 C-67.28992093 74.18472802 -64.89733557 71.5947632 -62.5 69 C-59.46031004 65.70047223 -56.43841941 62.39048393 -53.5 59 C-50.13677362 55.12182987 -46.66664329 51.34472189 -43.19189453 47.56689453 C-38.75776372 42.74415109 -34.3748176 37.8765888 -30 33 C-28.50028872 31.33307353 -27.00028679 29.66640851 -25.5 28 C-24.7575 27.175 -24.015 26.35 -23.25 25.5 C-16.5 18 -16.5 18 -14.2734375 15.52734375 C-12.69360312 13.77106739 -11.11561032 12.01313343 -9.5390625 10.25390625 C-8.74242187 9.36574219 -7.94578125 8.47757813 -7.125 7.5625 C-6.40570313 6.75941406 -5.68640625 5.95632812 -4.9453125 5.12890625 C-3.33761943 3.36948311 -1.70343512 1.66593812 0 0 Z " fill="#0C0701" transform="translate(145,118)"/>
<path d="M0 0 C3.32530699 1.25340454 6.29492536 2.66728776 9.30859375 4.546875 C10.12666504 5.05484619 10.94473633 5.56281738 11.78759766 6.08618164 C12.66206543 6.6352417 13.5365332 7.18430176 14.4375 7.75 C15.35837402 8.32419678 16.27924805 8.89839355 17.22802734 9.48999023 C25.73492747 14.80590303 34.1970167 20.19241167 42.65234375 25.58984375 C47.65491044 28.78279886 52.66843836 31.95805012 57.6875 35.125 C58.45980957 35.61234619 59.23211914 36.09969238 60.02783203 36.60180664 C61.57626986 37.57871597 63.12477219 38.55552305 64.67333984 39.53222656 C69.40378785 42.51642944 74.13232009 45.5036694 78.86035156 48.49169922 C82.90271392 51.04595753 86.94736168 53.59647333 90.99609375 56.140625 C99.74617924 61.64386661 108.445823 67.1947701 117 73 C116.67 73.66 116.34 74.32 116 75 C112.84726336 74.36706256 110.54712106 73.28255536 107.82421875 71.5859375 C107.00800049 71.07981934 106.19178223 70.57370117 105.35083008 70.05224609 C104.47193115 69.49875488 103.59303223 68.94526367 102.6875 68.375 C101.30437622 67.51189209 101.30437622 67.51189209 99.89331055 66.63134766 C91.99022595 61.67653993 84.18573456 56.57431897 76.38842773 51.45532227 C69.85200085 47.1749723 63.24784216 43.03400588 56.56347656 38.98950195 C48.78106753 34.27868303 41.10263268 29.40789772 33.421875 24.53369141 C30.95116202 22.96907256 28.47624387 21.41131746 26 19.85546875 C22.03554718 17.36426077 18.07810552 14.86234613 14.12695312 12.35009766 C12.75526536 11.47940972 11.38169968 10.61166985 10.00585938 9.74755859 C8.26822841 8.65448864 6.53996558 7.54656534 4.8125 6.4375 C3.87019531 5.83808594 2.92789063 5.23867187 1.95703125 4.62109375 C1.31121094 4.08613281 0.66539062 3.55117187 0 3 C0 2.01 0 1.02 0 0 Z " fill="#0D0101" transform="translate(194,111)"/>
<path d="M0 0 C4.70462261 1.65074478 8.72412403 4.13641704 12.9375 6.75 C13.71746338 7.23025635 14.49742676 7.7105127 15.30102539 8.20532227 C24.36394945 13.80686771 33.33618485 19.55183382 42.31445312 25.28759766 C46.43099206 27.91245258 50.55837666 30.52000075 54.6875 33.125 C55.45956787 33.61218506 56.23163574 34.09937012 57.02709961 34.60131836 C58.57577765 35.57839666 60.12452409 36.55536657 61.67333984 37.53222656 C66.40516638 40.51729909 71.13481301 43.50582498 75.86474609 46.49389648 C80.70275173 49.54997827 85.54247065 52.60332255 90.38354492 55.65454102 C92.76031145 57.15456283 95.13419385 58.65906604 97.5078125 60.1640625 C100.42733444 62.01372092 103.35925138 63.84036147 106.3046875 65.6484375 C107.59896776 66.45310984 108.89323914 67.25779645 110.1875 68.0625 C110.78216064 68.42045654 111.37682129 68.77841309 111.98950195 69.1472168 C113.60546875 70.16015625 113.60546875 70.16015625 116 72 C116 72.99 116 73.98 116 75 C110.73990336 73.54837643 106.78405583 71.12822119 102.3125 68.125 C100.79234136 67.12267391 99.27148258 66.12140903 97.75 65.12109375 C96.574375 64.34548096 96.574375 64.34548096 95.375 63.55419922 C91.55051091 61.05145482 87.68220693 58.619516 83.8125 56.1875 C76.86267587 51.81086346 69.92666035 47.41320652 63 43 C52.20448675 36.1238829 41.38535053 29.28568777 30.55761719 22.46044922 C29.74196289 21.94627441 28.92630859 21.43209961 28.0859375 20.90234375 C27.27318359 20.39002197 26.46042969 19.8777002 25.62304688 19.34985352 C23.24415191 17.84825953 20.86804602 16.34232972 18.4921875 14.8359375 C15.57266556 12.98627908 12.64074862 11.15963853 9.6953125 9.3515625 C8.40103224 8.54689016 7.10676086 7.74220355 5.8125 6.9375 C5.21783936 6.57954346 4.62317871 6.22158691 4.01049805 5.8527832 C2.39453125 4.83984375 2.39453125 4.83984375 0 3 C0 2.01 0 1.02 0 0 Z " fill="#0C0001" transform="translate(189,120)"/>
<path d="M0 0 C4.19700391 1.43461224 7.16583664 3.49362181 10.625 6.25 C16.21550397 10.64830224 21.89206834 14.91404065 27.625 19.125 C28.43767334 19.72231934 29.25034668 20.31963867 30.08764648 20.93505859 C36.0450395 25.30844331 42.01270426 29.66761971 48 34 C47.34 35.65 46.68 37.3 46 39 C42.44160141 38.38503677 40.33454244 36.9625664 37.5078125 34.75390625 C36.21290894 33.75230469 36.21290894 33.75230469 34.8918457 32.73046875 C33.97878662 32.01503906 33.06572754 31.29960938 32.125 30.5625 C30.22656048 29.09337058 28.32681874 27.62592238 26.42578125 26.16015625 C25.03480225 25.08725342 25.03480225 25.08725342 23.61572266 23.99267578 C20.2345463 21.41687203 16.79183666 18.9407804 13.3125 16.5 C7.69381506 12.55028844 2.29805258 8.370283 -3 4 C-2.01 2.68 -1.02 1.36 0 0 Z " fill="#9C1DDF" transform="translate(100,48)"/>
<path d="M0 0 C0.99 0 1.98 0 3 0 C-0.58650836 16.29079997 -4.35917027 32.53364871 -8.21381474 48.76290989 C-9.25102497 53.1301785 -10.28286848 57.4985755 -11.30297852 61.86987305 C-12.3011813 66.14679751 -13.31192342 70.42057057 -14.33184624 74.69236565 C-14.71628581 76.31208968 -15.09621419 77.93289131 -15.47154427 79.55475044 C-15.99249102 81.80202081 -16.52943421 84.04486965 -17.07055664 86.28735352 C-17.37159805 87.56320816 -17.67263947 88.83906281 -17.98280334 90.15357971 C-18.31847824 91.09289841 -18.65415314 92.0322171 -19 93 C-20.485 93.495 -20.485 93.495 -22 94 C-21.39798955 87.66938488 -20.38705295 81.62507392 -18.9375 75.4375 C-18.61749023 74.04821289 -18.61749023 74.04821289 -18.29101562 72.63085938 C-15.97199723 62.67652138 -13.45807322 52.76988175 -10.95410156 42.86083984 C-8.70325856 33.9339702 -6.5662423 24.98851094 -4.63476562 15.98632812 C-3.43882383 10.51853517 -1.87183356 5.27473705 0 0 Z " fill="#080A04" transform="translate(363,85)"/>
<path d="M0 0 C0.99 0.33 1.98 0.66 3 1 C1.69977312 8.6206707 0.09203554 16.11817757 -1.75 23.625 C-2.2853184 25.82808561 -2.8204698 28.0312118 -3.35546875 30.234375 C-3.62794434 31.35263672 -3.90041992 32.47089844 -4.18115234 33.62304688 C-4.98022627 36.91845252 -5.76782771 40.21635548 -6.55078125 43.515625 C-9.19961699 54.66866241 -11.94131789 65.78501669 -14.90234375 76.859375 C-16.14313645 81.50565655 -17.29412038 86.17271993 -18.421875 90.84765625 C-19 93 -19 93 -20 95 C-20.66 95 -21.32 95 -22 95 C-21.42432886 88.98302263 -20.50936654 83.27099698 -19.06640625 77.40673828 C-18.8727951 76.60069656 -18.67918396 75.79465485 -18.47970581 74.96418762 C-17.84593636 72.3315839 -17.20434829 69.70095709 -16.5625 67.0703125 C-16.11747383 65.22958981 -15.67290097 63.38875747 -15.22875977 61.54782104 C-14.30069665 57.70586882 -13.36909376 53.86479991 -12.43457031 50.02441406 C-11.23610235 45.09929701 -10.04359706 40.17276219 -8.85334778 35.24565315 C-7.7166256 30.54091402 -6.5772777 25.83681219 -5.4375 21.1328125 C-5.22022247 20.23539463 -5.00294495 19.33797676 -4.77908325 18.41336441 C-4.16535414 15.88085676 -3.54979525 13.3488016 -2.93359375 10.81689453 C-2.7517453 10.06570847 -2.56989685 9.3145224 -2.38253784 8.54057312 C-1.67766317 5.65133813 -0.94098673 2.8229602 0 0 Z " fill="#080A04" transform="translate(353,82)"/>
<path d="M0 0 C4.50153448 0.90250664 7.50514448 3.42309643 11.0625 6.1875 C12.49274488 7.28092271 13.92376846 8.37332741 15.35546875 9.46484375 C16.4854126 10.32891846 16.4854126 10.32891846 17.63818359 11.21044922 C21.68054625 14.27335167 25.78196529 17.25538314 29.875 20.25 C45.89774936 32.0333233 45.89774936 32.0333233 49 35 C49 35.66 49 36.32 49 37 C45.30274608 35.67853252 42.50136253 34.06692831 39.41015625 31.65625 C38.5500293 30.99165771 37.68990234 30.32706543 36.80371094 29.64233398 C35.89911133 28.93536377 34.99451172 28.22839355 34.0625 27.5 C27.86115262 22.70887623 21.65787132 17.94985627 15.25 13.4375 C11.33870182 10.67215457 7.44473129 7.89140651 3.625 5 C2.91601562 4.46375 2.20703125 3.9275 1.4765625 3.375 C0.98929687 2.92125 0.50203125 2.4675 0 2 C0 1.34 0 0.68 0 0 Z " fill="#0B0108" transform="translate(95,52)"/>
<path d="M0 0 C4.50153448 0.90250664 7.50514448 3.42309643 11.0625 6.1875 C12.49274488 7.28092271 13.92376846 8.37332741 15.35546875 9.46484375 C16.4854126 10.32891846 16.4854126 10.32891846 17.63818359 11.21044922 C21.68053471 14.27334292 25.78158746 17.25591712 29.875 20.25 C36.37663911 25.01965043 42.78677404 29.85691836 49 35 C48.34 35.66 47.68 36.32 47 37 C45.83723958 36.14322917 44.67447917 35.28645833 43.51171875 34.4296875 C42.75165527 33.86967041 41.9915918 33.30965332 41.20849609 32.73266602 C39.50948862 31.48070515 37.81059782 30.22858595 36.11181641 28.97631836 C31.68529628 25.71362213 27.25704416 22.45334445 22.82421875 19.19921875 C21.9938208 18.58900879 21.16342285 17.97879883 20.30786133 17.35009766 C18.73421315 16.19382551 17.15987735 15.03848837 15.5847168 13.88427734 C13.38279328 12.26537992 11.18951832 10.63563093 9 9 C8.15727539 8.37464355 7.31455078 7.74928711 6.44628906 7.10498047 C5.6209668 6.48123535 4.79564453 5.85749023 3.9453125 5.21484375 C3.19008301 4.64757568 2.43485352 4.08030762 1.65673828 3.49584961 C1.11001465 3.00221924 0.56329102 2.50858887 0 2 C0 1.34 0 0.68 0 0 Z " fill="#0B0109" transform="translate(101,46)"/>
<path d="M0 0 C0.99 0 1.98 0 3 0 C3 3.96 3 7.92 3 12 C3.66 12 4.32 12 5 12 C5 12.66 5 13.32 5 14 C4.34 14 3.68 14 3 14 C3 15.65 3 17.3 3 19 C2.34 19 1.68 19 1 19 C1 17.35 1 15.7 1 14 C-1.97 14 -4.94 14 -8 14 C-7.01742974 10.06971894 -5.89717271 8.0288315 -3.625 4.75 C-3.01914062 3.85796875 -2.41328125 2.9659375 -1.7890625 2.046875 C-0.90347656 1.03367188 -0.90347656 1.03367188 0 0 Z " fill="#393939" transform="translate(38,235)"/>
<path d="M0 0 C0.33 0 0.66 0 1 0 C1.00257813 0.75023437 1.00515625 1.50046875 1.0078125 2.2734375 C1.30630038 10.17341666 2.73899873 15.95521691 8 22 C14.89610383 28.11188986 22.02146714 28.97185413 31 29 C31 29.33 31 29.66 31 30 C28.62554052 30.25073809 26.25301023 30.47597287 23.875 30.6875 C23.20984375 30.76033203 22.5446875 30.83316406 21.859375 30.90820312 C15.51689295 31.4367433 12.01118613 29.3955169 6.9375 25.875 C3.17677336 22.50228484 0.47504254 18.86626183 -1 14 C-1.11024523 9.25945519 -0.67367028 4.68901195 0 0 Z " fill="#393839" transform="translate(340,53)"/>
<path d="M0 0 C0.33 0.66 0.66 1.32 1 2 C2.32 2 3.64 2 5 2 C4.67 2.99 4.34 3.98 4 5 C2.7315625 4.93039063 2.7315625 4.93039063 1.4375 4.859375 C-5.65100743 4.63383158 -11.178666 4.67202484 -17 9 C-18.68528688 10.64783606 -20.35697047 12.31002677 -22 14 C-22.99 14 -23.98 14 -25 14 C-23.05140357 9.21708149 -20.13046395 6.04712138 -15.47265625 3.7578125 C-9.87094408 1.5294222 -5.8677269 0.43527283 0 2 C0 1.34 0 0.68 0 0 Z " fill="#272524" transform="translate(333,175)"/>
<path d="M0 0 C2.97 0 5.94 0 9 0 C9 0.99 9 1.98 9 3 C6.36 3 3.72 3 1 3 C1 4.32 1 5.64 1 7 C1.94875 7.12375 2.8975 7.2475 3.875 7.375 C7 8 7 8 9 10 C9.32339354 13.03989923 9.45670212 15.14368353 8 17.875 C4.74686316 19.70488947 1.68609891 19.18128355 -2 19 C-2 18.34 -2 17.68 -2 17 C1.465 16.505 1.465 16.505 5 16 C5.33 14.35 5.66 12.7 6 11 C3.69 10.34 1.38 9.68 -1 9 C-0.67 6.03 -0.34 3.06 0 0 Z " fill="#222222" transform="translate(325,193)"/>
<path d="M0 0 C3.375 -0.125 3.375 -0.125 7 0 C9 2 9 2 9.125 4.4375 C9.08375 5.283125 9.0425 6.12875 9 7 C8.88831192 10.02559518 8.88831192 10.02559518 9.6875 13 C10 16 10 16 9.0625 17.875 C5.75632849 19.67836628 2.72581793 19.18323695 -1 19 C-0.505 17.515 -0.505 17.515 0 16 C1.98 16 3.96 16 6 16 C6.33 14.35 6.66 12.7 7 11 C4.03 10.505 4.03 10.505 1 10 C1 9.34 1 8.68 1 8 C2.65 7.34 4.3 6.68 6 6 C6 5.01 6 4.02 6 3 C3.69 3 1.38 3 -1 3 C-0.67 2.01 -0.34 1.02 0 0 Z " fill="#252525" transform="translate(360,46)"/>
<path d="M0 0 C5.625 -0.25 5.625 -0.25 9 2 C9.71357546 5.33001884 9.45323844 7.26956355 7.65234375 10.171875 C6.15554195 12.16761074 4.61853572 14.10207419 3 16 C5.31 16.33 7.62 16.66 10 17 C10 17.66 10 18.32 10 19 C6.04 19 2.08 19 -2 19 C-0.33866858 15.67733717 0.72001029 14.10032196 3.1875 11.5625 C5.7399991 8.80108873 5.7399991 8.80108873 5.875 5.0625 C5.58625 4.381875 5.2975 3.70125 5 3 C3.02 3 1.04 3 -1 3 C-0.67 2.01 -0.34 1.02 0 0 Z " fill="#202020" transform="translate(163,91)"/>
<path d="M0 0 C0 6.27 0 12.54 0 19 C-0.99 19 -1.98 19 -3 19 C-3 13.72 -3 8.44 -3 3 C-3.99 3.33 -4.98 3.66 -6 4 C-5.67 3.01 -5.34 2.02 -5 1 C-3 0 -3 0 0 0 Z " fill="#292929" transform="translate(79,20)"/>
<path d="M0 0 C0.66 0 1.32 0 2 0 C2 3.63 2 7.26 2 11 C2.66 11 3.32 11 4 11 C4 11.66 4 12.32 4 13 C3.34 13 2.68 13 2 13 C2 14.65 2 16.3 2 18 C1.34 18 0.68 18 0 18 C-0.33 16.35 -0.66 14.7 -1 13 C-3.31 12.67 -5.62 12.34 -8 12 C-8 11.67 -8 11.34 -8 11 C-5.36 11 -2.72 11 0 11 C-0.08378906 10.28972656 -0.16757812 9.57945312 -0.25390625 8.84765625 C-0.40666016 7.46900391 -0.40666016 7.46900391 -0.5625 6.0625 C-0.66691406 5.14597656 -0.77132812 4.22945312 -0.87890625 3.28515625 C-0.91886719 2.53105469 -0.95882812 1.77695313 -1 1 C-0.67 0.67 -0.34 0.34 0 0 Z " fill="#030303" transform="translate(39,236)"/>
<path d="M0 0 C5.625 -0.25 5.625 -0.25 9 2 C9.1875 5.125 9.1875 5.125 9 8 C8.01 8 7.02 8 6 8 C5.67 6.35 5.34 4.7 5 3 C3.02 3 1.04 3 -1 3 C-0.67 2.01 -0.34 1.02 0 0 Z " fill="#141414" transform="translate(163,91)"/>
<path d="M0 0 C0.66 0 1.32 0 2 0 C1.42655063 2.86724686 1.1385485 3.8614515 -1 6 C-3.68839385 6.26991906 -6.29141936 6.08737357 -9 6 C-8.67 5.01 -8.34 4.02 -8 3 C-6.576875 3.0928125 -6.576875 3.0928125 -5.125 3.1875 C-3.578125 3.0946875 -3.578125 3.0946875 -2 3 C-1.34 2.01 -0.68 1.02 0 0 Z " fill="#181818" transform="translate(368,59)"/>
<path d="M0 0 C3.375 -0.125 3.375 -0.125 7 0 C9 2 9 2 9 6 C8.34 6 7.68 6 7 6 C6.67 5.01 6.34 4.02 6 3 C3.69 3 1.38 3 -1 3 C-0.67 2.01 -0.34 1.02 0 0 Z " fill="#1B1B1B" transform="translate(360,46)"/>
<path d="M0 0 C0.99 0.33 1.98 0.66 3 1 C2 2.5 2 2.5 0 4 C-2.71846235 4.27345479 -5.25677199 4.13491285 -8 4 C-8 3.34 -8 2.68 -8 2 C-6.865625 1.855625 -5.73125 1.71125 -4.5625 1.5625 C-1.19222799 1.38828522 -1.19222799 1.38828522 0 0 Z " fill="#1B1B1B" transform="translate(331,208)"/>
<path d="M0 0 C0.33 0 0.66 0 1 0 C1 2.31 1 4.62 1 7 C-0.65 7 -2.3 7 -4 7 C-2.79618552 4.50638429 -1.54571278 2.31856917 0 0 Z " fill="#E7E7E7" transform="translate(37,240)"/>
</svg>
