<?xml version="1.0" encoding="UTF-8"?>
<svg version="1.1" xmlns="http://www.w3.org/2000/svg" width="225" height="225">
<path d="M0 0 C74.25 0 148.5 0 225 0 C225 74.25 225 148.5 225 225 C150.75 225 76.5 225 0 225 C0 150.75 0 76.5 0 0 Z " fill="#FEFEFE" transform="translate(0,0)"/>
<path d="M0 0 C0.495 2.97 0.495 2.97 1 6 C0.3709375 6.21914062 -0.258125 6.43828125 -0.90625 6.6640625 C-12.6407971 11.01150013 -21.45730942 18.18420356 -26.875 29.625 C-31.5288771 40.13474894 -31.7977891 53.22490301 -27.875 64 C-25.85754034 68.65923347 -23.46063523 72.57941829 -20.13671875 76.4140625 C-19 78 -19 78 -19 81 C-20.98 81.99 -20.98 81.99 -23 83 C-28.22876713 76.32443809 -32.40410116 70.10193691 -35 62 C-35.4125 60.7625 -35.825 59.525 -36.25 58.25 C-39.43778451 43.87598986 -35.58446641 31.05869719 -28.02734375 18.8203125 C-22.5284255 11.17056496 -10.25776704 0 0 0 Z " fill="#0F80B5" transform="translate(92,70)"/>
<path d="M0 0 C3.92175565 2.11171458 6.64691003 4.22553488 9 8 C9.74700572 12.5040051 9.52328795 16.70555085 7.8125 20.9375 C4.4975101 24.70972989 1.61089274 26.18940599 -3.375 26.5625 C-8.00398271 26.42316607 -10.37880357 24.70737165 -13.6875 21.60546875 C-16.2584681 18.46062384 -16.33926901 15.00779288 -16.28125 11.0625 C-15.6737801 6.60772073 -13.0596518 3.85917713 -9.6875 1.125 C-6.16108808 -0.35117243 -3.79611 -0.46618895 0 0 Z " fill="#078DC3" transform="translate(115,57)"/>
<path d="M0 0 C1.11375 0.185625 1.11375 0.185625 2.25 0.375 C1.12569908 8.48704463 -5.35958496 14.65101466 -11.4453125 19.7421875 C-21.00744695 26.51671665 -30.9354647 29.7675304 -42.5625 29.75 C-43.88556152 29.75193359 -43.88556152 29.75193359 -45.23535156 29.75390625 C-51.69819809 29.64885814 -57.09846367 28.70643194 -62.75 25.375 C-62.09 23.725 -61.43 22.075 -60.75 20.375 C-60.05777344 20.5915625 -59.36554688 20.808125 -58.65234375 21.03125 C-44.26615007 25.12534464 -31.98115912 24.45123257 -18.75 17.29296875 C-16.382457 15.80733552 -14.47507461 14.10007461 -12.5 12.125 C-11.9225 11.5475 -11.345 10.97 -10.75 10.375 C-10.09 10.375 -9.43 10.375 -8.75 10.375 C-8.5025 9.83875 -8.255 9.3025 -8 8.75 C-3.65721649 0.49871134 -3.65721649 0.49871134 0 0 Z " fill="#1A4588" transform="translate(146.75,137.625)"/>
<path d="M0 0 C5 0 5 0 6.73046875 1.71484375 C7.21128906 2.44832031 7.69210938 3.18179688 8.1875 3.9375 C10.11162944 7.00584213 10.11162944 7.00584213 13 9 C13.268125 8.443125 13.53625 7.88625 13.8125 7.3125 C14.4003125 6.1678125 14.4003125 6.1678125 15 5 C15.61875 3.63875 15.61875 3.63875 16.25 2.25 C17.11625 1.13625 17.11625 1.13625 18 0 C19.98 0 21.96 0 24 0 C24 7.26 24 14.52 24 22 C22.68 22 21.36 22 20 22 C19.67 17.05 19.34 12.1 19 7 C16.69 9.97 14.38 12.94 12 16 C9.35247996 13.42215154 7.05567935 11.08351902 5 8 C4.67 12.62 4.34 17.24 4 22 C2.68 22 1.36 22 0 22 C0 14.74 0 7.48 0 0 Z " fill="#0A0A0A" transform="translate(160,109)"/>
<path d="M0 0 C0.21914062 0.51949219 0.43828125 1.03898437 0.6640625 1.57421875 C3.57803586 7.98259106 7.064177 11.39360628 13.3125 14.8125 C19.23686954 16.72034782 24.9726024 16.55545744 31 15 C31.495 17.475 31.495 17.475 32 20 C26.83227924 23.44514717 21.01244815 22.68944395 15 22 C6.53445723 19.39902132 0.28682254 14.80814106 -4 7 C-4.9375 3.4375 -4.9375 3.4375 -5 1 C-2 0 -2 0 0 0 Z " fill="#1C5796" transform="translate(83,124)"/>
<path d="M0 0 C0.78503906 0.48146484 0.78503906 0.48146484 1.5859375 0.97265625 C1.2559375 2.62265625 0.9259375 4.27265625 0.5859375 5.97265625 C0.03421875 5.81410156 -0.5175 5.65554687 -1.0859375 5.4921875 C-7.81899428 3.98967651 -14.57709768 4.15305608 -20.625 7.625 C-24.29070237 10.38628235 -27.35850751 13.86154627 -29.4140625 17.97265625 C-31.0640625 17.64265625 -32.7140625 17.31265625 -34.4140625 16.97265625 C-33.58189667 11.05503254 -30.75261192 7.91390261 -26.4140625 3.97265625 C-19.09189504 -1.44731112 -8.63617565 -3.67526569 0 0 Z " fill="#137DB2" transform="translate(113.4140625,91.02734375)"/>
<path d="M0 0 C3.77418226 2.03225199 7.00521325 4.1277669 9 8 C8.58974359 12.41025641 8.58974359 12.41025641 7 14 C4.0625 14.1875 4.0625 14.1875 1 14 C0.34 13.34 -0.32 12.68 -1 12 C-3.06874034 11.3574765 -3.06874034 11.3574765 -5 11 C-5 10.34 -5 9.68 -5 9 C-7.31 9.33 -9.62 9.66 -12 10 C-12.66 8.35 -13.32 6.7 -14 5 C-8.96835596 0.89523776 -6.64516785 -0.55376399 0 0 Z " fill="#0B99CA" transform="translate(115,57)"/>
<path d="M0 0 C0.66 0 1.32 0 2 0 C2.13535156 1.06476563 2.27070312 2.12953125 2.41015625 3.2265625 C4.19836468 15.77162178 7.68165439 26.12767774 16 36 C15.01 36.99 14.02 37.98 13 39 C7.89195082 37.29731694 5.70213076 32.46867182 3 28 C-0.46384379 20.82415645 -2.45588883 14.92650583 -1 7 C-1 5.906875 -1 4.81375 -1 3.6875 C-1 1 -1 1 0 0 Z " fill="#185393" transform="translate(58,114)"/>
<path d="M0 0 C1.65 0 3.3 0 5 0 C6.98 4.95 8.96 9.9 11 15 C13.00384991 11.99422513 14.26119742 9.15022736 15.625 5.8125 C16.07101563 4.72582031 16.51703125 3.63914062 16.9765625 2.51953125 C17.31429687 1.68808594 17.65203125 0.85664062 18 0 C19.65 0 21.3 0 23 0 C22.06460476 2.52163182 21.12674545 5.04230241 20.1875 7.5625 C19.79594727 8.61920898 19.79594727 8.61920898 19.39648438 9.69726562 C17.71921959 14.1906787 15.92278185 18.60589494 14 23 C12.35 23 10.7 23 9 23 C6.03 15.41 3.06 7.82 0 0 Z " fill="#0E0E0E" transform="translate(96,109)"/>
<path d="M0 0 C0.99 0 1.98 0 3 0 C3.96444294 2.55431251 4.15162886 3.63980148 3.07421875 6.19921875 C2.61660156 7.02035156 2.15898438 7.84148437 1.6875 8.6875 C-1.95203684 16.12833088 -2.36044257 23.85757482 -3 32 C-3.33 32 -3.66 32 -4 32 C-4 29.36 -4 26.72 -4 24 C-4.66 24.33 -5.32 24.66 -6 25 C-5.95875 26.2375 -5.9175 27.475 -5.875 28.75 C-5.86341709 32.01637962 -6.1431298 34.2146947 -8 37 C-11.19311696 27.42064912 -9.00878835 16.97451327 -5 8 C-2.08347859 2.22063549 -2.08347859 2.22063549 0 0 Z " fill="#2B71A7" transform="translate(64,90)"/>
<path d="M0 0 C9.20563222 3.19086039 14.83639932 11.52872942 19 20 C19.66015625 22.296875 19.66015625 22.296875 20 24 C17.375 24.625 17.375 24.625 14 24 C12.18943887 21.65852245 10.84799551 19.2099761 9.4375 16.609375 C6.55606609 11.37894606 2.80021769 7.565876 -2 4 C-1.34 2.68 -0.68 1.36 0 0 Z " fill="#0887BD" transform="translate(131,77)"/>
<path d="M0 0 C1.32 0 2.64 0 4 0 C4 6.27 4 12.54 4 19 C7.96 19 11.92 19 16 19 C16 20.32 16 21.64 16 23 C10.72 23 5.44 23 0 23 C0 15.41 0 7.82 0 0 Z " fill="#1A1A1A" transform="translate(131,109)"/>
<path d="M0 0 C1.11375 0.185625 1.11375 0.185625 2.25 0.375 C0.97912344 9.54461568 -6.8887 15.83249533 -13.75 21.375 C-14.74 20.715 -15.73 20.055 -16.75 19.375 C-16.27794881 15.12653925 -13.86122478 13.10680712 -10.75 10.375 C-10.09 10.375 -9.43 10.375 -8.75 10.375 C-8.37875 9.570625 -8.37875 9.570625 -8 8.75 C-3.65721649 0.49871134 -3.65721649 0.49871134 0 0 Z " fill="#225A97" transform="translate(146.75,137.625)"/>
<path d="M0 0 C2.875 0.6875 2.875 0.6875 3.875 1.6875 C4.125 5.125 4.125 5.125 3.875 8.6875 C0.65126323 10.83665785 -0.39203674 11.07036803 -4.125 10.6875 C-6.125 8.6875 -6.125 8.6875 -6.4375 5.1875 C-6.334375 4.0325 -6.23125 2.8775 -6.125 1.6875 C-3.125 -0.3125 -3.125 -0.3125 0 0 Z " fill="#1A4488" transform="translate(79.125,151.3125)"/>
<path d="M0 0 C3 0.25 3 0.25 5 2.25 C5.36487512 5.09602594 5.40199375 6.6364306 3.8125 9.0625 C1.3864306 10.65199375 -0.15397406 10.61487512 -3 10.25 C-5 8.25 -5 8.25 -5.25 5.25 C-4.90584825 1.120179 -4.129821 0.34415175 0 0 Z " fill="#1965A0" transform="translate(79,111.75)"/>
<path d="M0 0 C0.99 0 1.98 0 3 0 C4.06635417 2.73374433 4.04593279 3.86646543 3.07421875 6.69140625 C2.38779297 8.11259766 2.38779297 8.11259766 1.6875 9.5625 C1.23761719 10.51253906 0.78773437 11.46257812 0.32421875 12.44140625 C-1 15 -1 15 -3 18 C-6.16605166 12.88560886 -6.16605166 12.88560886 -5.4375 9 C-3.86864469 5.72586718 -2.24558808 2.85802119 0 0 Z " fill="#1371A9" transform="translate(64,90)"/>
<path d="M0 0 C4.22510673 1.50896669 5.71822849 4.27310654 8 8 C8.99 9.485 8.99 9.485 10 11 C9.01 11.99 8.02 12.98 7 14 C3.20379845 12.73459948 2.51321812 11.21781569 0.3125 7.9375 C-0.31011719 7.01839844 -0.93273438 6.09929687 -1.57421875 5.15234375 C-2.04472656 4.44207031 -2.51523437 3.73179687 -3 3 C-2.01 2.01 -1.02 1.02 0 0 Z " fill="#1F5393" transform="translate(64,139)"/>
<path d="M0 0 C3.33511388 2.9901021 5.21521119 5.89498574 7 10 C7 10.66 7 11.32 7 12 C5.02 12 3.04 12 1 12 C-0.98 8.37 -2.96 4.74 -5 1 C-2.525 1.495 -2.525 1.495 0 2 C0 1.34 0 0.68 0 0 Z " fill="#1381B5" transform="translate(144,89)"/>
<path d="M0 0 C0.33 1.98 0.66 3.96 1 6 C-2.63 7.32 -6.26 8.64 -10 10 C-10.33 8.02 -10.66 6.04 -11 4 C-9.5437455 3.32880451 -8.08492133 2.66318193 -6.625 2 C-5.81289062 1.62875 -5.00078125 1.2575 -4.1640625 0.875 C-2 0 -2 0 0 0 Z " fill="#0F89BE" transform="translate(92,70)"/>
<path d="M0 0 C-0.0625 1.75 -0.0625 1.75 -1 4 C-3.92397611 6.34687556 -6.63364045 8.14013944 -10.4375 7.75 C-10.953125 7.5025 -11.46875 7.255 -12 7 C-11.67 6.01 -11.34 5.02 -11 4 C-11.66 3.67 -12.32 3.34 -13 3 C-11.5903653 2.29819469 -10.17192359 1.61406042 -8.75 0.9375 C-7.96109375 0.55464844 -7.1721875 0.17179688 -6.359375 -0.22265625 C-3.74006478 -1.08564091 -2.55144824 -0.93045933 0 0 Z " fill="#184E91" transform="translate(132,156)"/>
<path d="M0 0 C0.928125 0.0825 1.85625 0.165 2.8125 0.25 C2.19795304 4.24455527 0.10603263 6.99466336 -2.1875 10.25 C-3.8375 9.92 -5.4875 9.59 -7.1875 9.25 C-6.4759674 4.1269653 -5.64653175 0.44286524 0 0 Z " fill="#1475AC" transform="translate(86.1875,98.75)"/>
<path d="M0 0 C0.33 1.65 0.66 3.3 1 5 C-3.21084037 7.80722691 -5.11554218 6.94537893 -10 6 C-10.33 5.34 -10.66 4.68 -11 4 C-10.2575 3.71125 -9.515 3.4225 -8.75 3.125 C-6.06092912 2.071251 -6.06092912 2.071251 -3.8125 0.875 C-2 0 -2 0 0 0 Z " fill="#245C99" transform="translate(114,139)"/>
<path d="M0 0 C0.66 0 1.32 0 2 0 C2.66 4.62 3.32 9.24 4 14 C3.01 14.495 3.01 14.495 2 15 C2 14.34 2 13.68 2 13 C0.68 13.33 -0.64 13.66 -2 14 C-1.835 12.96875 -1.67 11.9375 -1.5 10.875 C-0.92801612 7.09331243 -0.92801612 7.09331243 -1 3.625 C-1 1 -1 1 0 0 Z " fill="#165A9B" transform="translate(58,114)"/>
<path d="M0 0 C3.91402949 1.26941497 5.79072873 2.51167694 8 6 C5.33333333 6 2.66666667 6 0 6 C-0.66 4.68 -1.32 3.36 -2 2 C-1.34 1.34 -0.68 0.68 0 0 Z " fill="#108EC0" transform="translate(131,77)"/>
<path d="M0 0 C-0.33 0.99 -0.66 1.98 -1 3 C-1.66 3 -2.32 3 -3 3 C-3.33 3.66 -3.66 4.32 -4 5 C-4.763125 4.690625 -5.52625 4.38125 -6.3125 4.0625 C-8.18789677 3.32106407 -10.08684652 2.63771783 -12 2 C-4.71428571 -1.57142857 -4.71428571 -1.57142857 0 0 Z " fill="#1C84B7" transform="translate(102,91)"/>
<path d="M0 0 C0.66 0 1.32 0 2 0 C2.22262606 2.08185451 2.42757926 4.16560426 2.625 6.25 C2.74101563 7.41015625 2.85703125 8.5703125 2.9765625 9.765625 C2.99955595 12.93872091 2.69705154 14.38317244 1 17 C-0.18681726 13.43954823 -0.09689832 10.56191663 -0.0625 6.8125 C-0.05347656 5.54019531 -0.04445312 4.26789063 -0.03515625 2.95703125 C-0.02355469 1.98121094 -0.01195312 1.00539063 0 0 Z " fill="#3D73A7" transform="translate(55,110)"/>
<path d="M0 0 C3.3 0 6.6 0 10 0 C8.68 0.33 7.36 0.66 6 1 C6 1.99 6 2.98 6 4 C6.99 4.33 7.98 4.66 9 5 C5.7 5 2.4 5 -1 5 C-0.01 3.68 0.98 2.36 2 1 C1.34 0.67 0.68 0.34 0 0 Z " fill="#0776AE" transform="translate(100,90)"/>
<path d="M0 0 C1.65 0.33 3.3 0.66 5 1 C4.67 2.65 4.34 4.3 4 6 C2.35 5.67 0.7 5.34 -1 5 C-0.67 3.35 -0.34 1.7 0 0 Z " fill="#0C7CB2" transform="translate(118,94)"/>
<path d="M0 0 C2.6875 -0.3125 2.6875 -0.3125 5 0 C4.67 1.65 4.34 3.3 4 5 C1.69 5 -0.62 5 -3 5 C-1.8125 2.5 -1.8125 2.5 0 0 Z " fill="#2567A1" transform="translate(144,138)"/>
<path d="M0 0 C0.66 0.66 1.32 1.32 2 2 C1.1875 4.4375 1.1875 4.4375 0 7 C-0.99 7.33 -1.98 7.66 -3 8 C-4 5 -4 5 -3.1875 2.875 C-2 1 -2 1 0 0 Z " fill="#135294" transform="translate(140,146)"/>
<path d="M0 0 C1.32 0.66 2.64 1.32 4 2 C4 2.99 4 3.98 4 5 C0.25 6.125 0.25 6.125 -2 5 C-1.125 1.125 -1.125 1.125 0 0 Z " fill="#2D669F" transform="translate(118,136)"/>
<path d="M0 0 C0.33 0.66 0.66 1.32 1 2 C0.67 2.66 0.34 3.32 0 4 C1.32 3.34 2.64 2.68 4 2 C4 2.99 4 3.98 4 5 C3.01 5.66 2.02 6.32 1 7 C0.01 6.34 -0.98 5.68 -2 5 C-2 2 -2 2 0 0 Z " fill="#1F86B8" transform="translate(71,81)"/>
<path d="M0 0 C2.475 0.495 2.475 0.495 5 1 C5 1.99 5 2.98 5 4 C3.02 4.99 3.02 4.99 1 6 C0.67 4.68 0.34 3.36 0 2 C0.99 1.67 1.98 1.34 3 1 C2.01 0.67 1.02 0.34 0 0 Z " fill="#265490" transform="translate(68,147)"/>
<path d="M0 0 C2.0625 0.4375 2.0625 0.4375 4 1 C4.33 2.65 4.66 4.3 5 6 C3.35 5.67 1.7 5.34 0 5 C-0.5625 3.0625 -0.5625 3.0625 -1 1 C-0.67 0.67 -0.34 0.34 0 0 Z " fill="#0E4589" transform="translate(66,144)"/>
<path d="M0 0 C0.33 1.98 0.66 3.96 1 6 C-0.32 6 -1.64 6 -3 6 C-3 4.68 -3 3.36 -3 2 C-3.66 1.67 -4.32 1.34 -5 1 C-2 0 -2 0 0 0 Z " fill="#2E97C3" transform="translate(92,70)"/>
<path d="M0 0 C0.99 0.33 1.98 0.66 3 1 C2.67 1.33 2.34 1.66 2 2 C2.66 2.33 3.32 2.66 4 3 C4 3.99 4 4.98 4 6 C2.35 5.67 0.7 5.34 -1 5 C-0.67 3.35 -0.34 1.7 0 0 Z " fill="#2475AA" transform="translate(80,103)"/>
</svg>
