<?xml version="1.0" encoding="UTF-8"?>
<svg version="1.1" xmlns="http://www.w3.org/2000/svg" width="801" height="240">
<path d="M0 0 C264.33 0 528.66 0 801 0 C801 79.2 801 158.4 801 240 C536.67 240 272.34 240 0 240 C0 160.8 0 81.6 0 0 Z " fill="#FEFEFE" transform="translate(0,0)"/>
<path d="M0 0 C0.86004639 0.217771 1.72009277 0.43554199 2.60620117 0.65991211 C10.75743235 2.74915828 18.83913008 5.06868942 26.921875 7.40625 C35.86761964 9.98980868 44.86898254 12.33927387 53.91015625 14.56469727 C63.62224899 16.9580076 73.24323254 19.58925028 82.84765625 22.3828125 C88.15466728 23.91103125 93.48443349 25.35939095 98.8125 26.8125 C98.8125 70.3725 98.8125 113.9325 98.8125 158.8125 C84.2125 164.42788462 84.2125 164.42788462 78.875 166.3125 C77.71484375 166.72371094 76.5546875 167.13492188 75.359375 167.55859375 C74.18890625 167.97238281 73.0184375 168.38617188 71.8125 168.8125 C62.62318706 172.08445234 53.44444785 175.38317753 44.28515625 178.73828125 C37.87429091 181.08089821 31.44327684 183.36275911 25.00146484 185.61865234 C20.85932139 187.07342068 16.73943292 188.5769395 12.63208008 190.12719727 C9.32784101 191.37166246 6.00645766 192.56806861 2.68359375 193.76171875 C0.75010755 194.46934839 -1.17448352 195.20171423 -3.08984375 195.95703125 C-4.49943359 196.50423828 -4.49943359 196.50423828 -5.9375 197.0625 C-6.77796875 197.39765625 -7.6184375 197.7328125 -8.484375 198.078125 C-14.80916082 199.79641941 -19.84196094 198.5488109 -25.75 196.125 C-27.16888303 195.5680215 -28.5881613 195.01204888 -30.0078125 194.45703125 C-30.71196289 194.17811035 -31.41611328 193.89918945 -32.14160156 193.61181641 C-35.11451593 192.45032218 -38.11684366 191.37890184 -41.125 190.3125 C-42.25035156 189.91289062 -43.37570313 189.51328125 -44.53515625 189.1015625 C-47.20925583 188.15776265 -49.88372054 187.21503954 -52.55859375 186.2734375 C-53.68116577 185.87801758 -53.68116577 185.87801758 -54.82641602 185.47460938 C-56.26798465 184.96717218 -57.70985683 184.4605961 -59.15209961 183.95507812 C-63.24492545 182.51605928 -67.31538256 181.02707178 -71.37451172 179.49560547 C-79.1343416 176.57182362 -86.9592579 173.82028099 -94.76953125 171.03515625 C-98.69402371 169.63130923 -102.61229422 168.21119445 -106.52734375 166.78125 C-108.37186544 166.10952991 -110.21836796 165.44323386 -112.06640625 164.78125 C-113.01386719 164.4409375 -113.96132812 164.100625 -114.9375 163.75 C-115.77796875 163.44964844 -116.6184375 163.14929688 -117.484375 162.83984375 C-120.75783672 161.59573908 -123.96874019 160.19196849 -127.1875 158.8125 C-127.1875 115.2525 -127.1875 71.6925 -127.1875 26.8125 C-108.02455357 21.17633929 -108.02455357 21.17633929 -100.4375 19.375 C-93.47074505 17.67831966 -86.57191318 15.81673403 -79.6875 13.8125 C-72.88521968 11.83300376 -66.06987228 9.9925826 -59.1875 8.3125 C-52.12056651 6.58625829 -45.11552407 4.70121332 -38.125 2.6875 C-37.23852783 2.43347412 -36.35205566 2.17944824 -35.4387207 1.91772461 C-31.84964951 0.88533584 -28.2698621 -0.16192343 -24.703125 -1.26953125 C-23.76984375 -1.55183594 -22.8365625 -1.83414062 -21.875 -2.125 C-20.76705078 -2.47884766 -20.76705078 -2.47884766 -19.63671875 -2.83984375 C-13.09234463 -3.76879 -6.30666958 -1.61973195 0 0 Z " fill="#412A53" transform="translate(285.1875,11.1875)"/>
<path d="M0 0 C21.55966578 5.67359626 21.55966578 5.67359626 31.75 8.5625 C42.3405924 11.54303308 52.92889997 14.51048902 63.61328125 17.140625 C73.27365101 19.51903129 82.86665741 22.02905516 92.40673828 24.85693359 C99.24572375 26.86210272 106.01220036 28.38743085 113 30 C113 76.86 113 123.72 113 172 C106.24974585 170.87495764 106.24974585 170.87495764 103.08203125 169.73046875 C102.39109375 169.48361328 101.70015625 169.23675781 100.98828125 168.98242188 C100.27027344 168.72009766 99.55226563 168.45777344 98.8125 168.1875 C98.05710937 167.91615234 97.30171875 167.64480469 96.5234375 167.36523438 C94.34700483 166.58209065 92.17308965 165.79236538 90 165 C89.02417969 164.64550781 88.04835938 164.29101562 87.04296875 163.92578125 C85.3445191 163.30745165 83.64660314 162.68765414 81.94921875 162.06640625 C77.37275876 160.41160681 72.78045779 158.80173889 68.1875 157.19335938 C64.04150704 155.73718671 59.91762965 154.23249736 55.80639648 152.6809082 C48.04916176 149.75687419 40.22603185 147.00699282 32.41796875 144.22265625 C28.49347629 142.81880923 24.57520578 141.39869445 20.66015625 139.96875 C18.81563456 139.29702991 16.96913204 138.63073386 15.12109375 137.96875 C14.17363281 137.6284375 13.22617188 137.288125 12.25 136.9375 C11.40953125 136.63714844 10.5690625 136.33679688 9.703125 136.02734375 C6.42966328 134.78323908 3.21875981 133.37946849 0 132 C0 88.44 0 44.88 0 0 Z " fill="#2D8E8E" transform="translate(158,38)"/>
<path d="M0 0 C0.86004639 0.217771 1.72009277 0.43554199 2.60620117 0.65991211 C10.75743235 2.74915828 18.83913008 5.06868942 26.921875 7.40625 C35.86761964 9.98980868 44.86898254 12.33927387 53.91015625 14.56469727 C64.53418119 17.18273123 75.04507878 20.11312538 85.55273438 23.16210938 C89.95859087 24.43017352 94.38303616 25.62992652 98.8125 26.8125 C95.05677148 28.97327994 91.01044803 29.92468406 86.84765625 30.984375 C85.67689545 31.28853081 85.67689545 31.28853081 84.48248291 31.59883118 C82.8135547 32.03216747 81.14413487 32.46361402 79.47427368 32.89334106 C75.11050445 34.01675304 70.75046706 35.15442563 66.390625 36.29296875 C65.53902298 36.51516586 64.68742096 36.73736298 63.81001282 36.96629333 C57.88884833 38.51655909 51.99648974 40.14543815 46.125 41.875 C35.20816796 45.07871374 24.17786325 47.8489807 13.15356445 50.65454102 C12.06604637 50.9316114 12.06604637 50.9316114 10.95655823 51.21427917 C9.53308655 51.57641279 8.10929289 51.9372833 6.68516541 52.29682922 C2.68298794 53.31240031 -1.28103077 54.4182284 -5.2421875 55.58203125 C-14.78173653 58.14464222 -22.37443026 56.02929492 -31.75 53.5625 C-33.62473999 53.08043091 -33.62473999 53.08043091 -35.53735352 52.58862305 C-39.08987747 51.67246163 -42.63893438 50.74385287 -46.1875 49.8125 C-47.75764527 49.40690416 -49.32792734 49.00183689 -50.8984375 48.59765625 C-56.5837863 47.11374446 -62.20783731 45.51430802 -67.8125 43.75 C-71.91482629 42.46367735 -75.98886236 41.36033681 -80.1875 40.4375 C-86.95119725 38.94081729 -93.56709911 37.02193395 -100.21411133 35.08349609 C-107.17539516 33.06542249 -114.16926595 31.30303431 -121.23046875 29.671875 C-124.1875 28.8125 -124.1875 28.8125 -126.1875 26.8125 C-120.34244192 24.74300621 -114.36348931 23.21374683 -108.375 21.625 C-99.3344681 19.2124091 -90.31536588 16.73689723 -81.3125 14.1875 C-73.08174109 11.86109587 -64.83082627 9.68922736 -56.5222168 7.66015625 C-50.34895974 6.13858321 -44.23452173 4.44668717 -38.125 2.6875 C-37.23820557 2.43339355 -36.35141113 2.17928711 -35.43774414 1.91748047 C-31.84901001 0.88513748 -28.26954083 -0.16202319 -24.703125 -1.26953125 C-23.76984375 -1.55183594 -22.8365625 -1.83414062 -21.875 -2.125 C-20.76705078 -2.47884766 -20.76705078 -2.47884766 -19.63671875 -2.83984375 C-13.09234463 -3.76879 -6.30666958 -1.61973195 0 0 Z " fill="#427A31" transform="translate(285.1875,11.1875)"/>
<path d="M0 0 C5.65634914 1.72538007 11.31094296 3.12490835 17.09423828 4.36987305 C19.53564453 4.94799805 19.53564453 4.94799805 21.53564453 5.94799805 C21.53564453 20.79799805 21.53564453 35.64799805 21.53564453 50.94799805 C18.23564453 51.93799805 14.93564453 52.92799805 11.53564453 53.94799805 C9.64595599 54.64088385 7.75626111 55.3343781 5.87939453 56.0612793 C1.51907825 57.71093229 -2.89301676 59.22267084 -7.29248047 60.7644043 C-10.35549615 61.80822937 -10.35549615 61.80822937 -12.57373047 63.1628418 C-16.66292485 64.86104029 -21.58607925 62.32276632 -25.57763672 60.98706055 C-26.74359375 60.59776367 -27.90955078 60.2084668 -29.11083984 59.80737305 C-30.320625 59.4000293 -31.53041016 58.99268555 -32.77685547 58.57299805 C-33.97503906 58.17338867 -35.17322266 57.7737793 -36.40771484 57.36206055 C-42.47826592 55.32850955 -48.4652175 53.19767479 -54.46435547 50.94799805 C-54.46435547 36.09799805 -54.46435547 21.24799805 -54.46435547 5.94799805 C-44.35089393 2.5768442 -44.35089393 2.5768442 -40.42138672 1.6315918 C-39.15198242 1.32125 -39.15198242 1.32125 -37.85693359 1.00463867 C-37.00550781 0.80032227 -36.15408203 0.59600586 -35.27685547 0.38549805 C-28.62473359 -1.20579096 -28.62473359 -1.20579096 -22.08935547 -3.20825195 C-14.87122825 -5.52836427 -6.95865163 -2.12749074 0 0 Z " fill="#44BBBA" transform="translate(635.46435546875,118.052001953125)"/>
<path d="M0 0 C2.06317699 0.58016484 4.1311767 1.14339094 6.203125 1.69140625 C7.3478125 1.99626953 8.4925 2.30113281 9.671875 2.61523438 C12.07285971 3.25086624 14.47390212 3.88628014 16.875 4.52148438 C18.01453125 4.82505859 19.1540625 5.12863281 20.328125 5.44140625 C21.3687207 5.71670166 22.40931641 5.99199707 23.48144531 6.27563477 C26 7 26 7 28 8 C28 22.85 28 37.7 28 53 C22.06 54.98 16.12 56.96 10 59 C5.45493818 60.70439818 1.37156581 62.28687077 -2.9375 64.3125 C-8.33891786 66.44356016 -11.63044292 65.907714 -17 64 C-18.68029297 63.42765625 -18.68029297 63.42765625 -20.39453125 62.84375 C-23.94596025 61.60320824 -27.47431834 60.31168725 -31 59 C-31.77859375 58.71898437 -32.5571875 58.43796875 -33.359375 58.1484375 C-38.37501181 56.3227457 -43.09004602 54.18220177 -48 52 C-48 37.48 -48 22.96 -48 8 C-42.39 6.35 -36.78 4.7 -31 3 C-29.23398437 2.47792969 -27.46796875 1.95585938 -25.6484375 1.41796875 C-24.224223 1.00689441 -22.79975925 0.59668227 -21.375 0.1875 C-20.65183594 -0.02841797 -19.92867188 -0.24433594 -19.18359375 -0.46679688 C-12.19551424 -2.45707269 -6.91239682 -2.36926675 0 0 Z " fill="#45BCBA" transform="translate(465,116)"/>
<path d="M0 0 C4.43406709 1.3580914 8.91364735 2.36200188 13.4453125 3.3359375 C16.4840333 4.06267493 19.45388808 5.05884811 22.41796875 6.046875 C22.41796875 20.896875 22.41796875 35.746875 22.41796875 51.046875 C14.49796875 53.521875 14.49796875 53.521875 6.41796875 56.046875 C2.68193904 57.36547372 -0.87990467 58.72471166 -4.4765625 60.375 C-12.11575729 63.80368915 -16.11059726 64.61579921 -24.14453125 61.796875 C-24.8096875 61.53261719 -25.47484375 61.26835937 -26.16015625 60.99609375 C-29.21509072 59.79875653 -32.3022353 58.7065324 -35.39453125 57.609375 C-41.46864027 55.45174894 -47.52349455 53.24997925 -53.58203125 51.046875 C-53.58203125 36.196875 -53.58203125 21.346875 -53.58203125 6.046875 C-50.26275926 4.7191662 -47.47077684 3.68107736 -44.0703125 2.86328125 C-43.2347583 2.65912598 -42.3992041 2.4549707 -41.53833008 2.24462891 C-40.66587646 2.03499512 -39.79342285 1.82536133 -38.89453125 1.609375 C-33.48886383 0.30029227 -28.15958098 -1.02034685 -22.89453125 -2.828125 C-14.84444698 -5.28241898 -7.74713033 -2.50669164 0 0 Z " fill="#42BBBA" transform="translate(552.58203125,117.953125)"/>
<path d="M0 0 C6.82181929 2.2524875 13.72525601 3.975987 20.70996094 5.64916992 C21.54301758 5.85131104 22.37607422 6.05345215 23.234375 6.26171875 C23.98428711 6.44049561 24.73419922 6.61927246 25.50683594 6.8034668 C27.25 7.3125 27.25 7.3125 28.25 8.3125 C28.3427833 9.69410115 28.36747043 11.08038038 28.36352539 12.46508789 C28.36341209 13.78634422 28.36341209 13.78634422 28.36329651 15.1342926 C28.35813522 16.09157761 28.35297394 17.04886261 28.34765625 18.03515625 C28.3462413 19.01036728 28.34482635 19.98557831 28.34336853 20.99034119 C28.33775133 24.11859143 28.32519593 27.24677123 28.3125 30.375 C28.30748722 32.49023334 28.30292393 34.60546781 28.29882812 36.72070312 C28.28777631 41.91799296 28.27102146 47.11524145 28.25 52.3125 C20.33823014 55.37565054 12.41788836 58.36290675 4.4140625 61.17578125 C1.84680481 62.09809234 -0.66584988 63.08810526 -3.1875 64.125 C-9.45015968 66.21255323 -13.50657087 65.49628531 -19.56494141 63.15039062 C-21.67557205 62.34104042 -23.79687707 61.58504082 -25.93359375 60.84765625 C-26.98450195 60.48317383 -26.98450195 60.48317383 -28.05664062 60.11132812 C-29.47251998 59.62206459 -30.88918513 59.13506895 -32.30664062 58.65039062 C-37.63667337 56.79540219 -42.54622444 54.62528914 -47.75 52.3125 C-47.75 37.4625 -47.75 22.6125 -47.75 7.3125 C-42.14 5.9925 -36.53 4.6725 -30.75 3.3125 C-27.0281625 2.22874655 -23.34428391 1.10995903 -19.66601562 -0.10546875 C-12.82813532 -2.24106279 -6.87626756 -2.4028946 0 0 Z " fill="#43BBBA" transform="translate(628.75,39.6875)"/>
<path d="M0 0 C6.81873427 1.84910305 13.63314189 3.55088212 20.5390625 5.046875 C22.8125 5.625 22.8125 5.625 23.8125 6.625 C23.9052833 8.00660115 23.92997043 9.39288038 23.92602539 10.77758789 C23.92591209 12.09884422 23.92591209 12.09884422 23.92579651 13.4467926 C23.92063522 14.40407761 23.91547394 15.36136261 23.91015625 16.34765625 C23.9087413 17.32286728 23.90732635 18.29807831 23.90586853 19.30284119 C23.90025133 22.43109143 23.88769593 25.55927123 23.875 28.6875 C23.86998722 30.80273334 23.86542393 32.91796781 23.86132812 35.03320312 C23.85027631 40.23049296 23.83352146 45.42774145 23.8125 50.625 C22.53315099 51.10513979 21.25376575 51.58518303 19.97436523 52.06518555 C19.26191147 52.33251999 18.5494577 52.59985443 17.81541443 52.87528992 C14.57699801 54.08746025 11.330717 55.27478933 8.07421875 56.4375 C5.58230782 57.34473464 3.11387711 58.28482704 0.64453125 59.25 C-14.14675913 64.92815761 -14.14675913 64.92815761 -21.1875 62.625 C-22.29867187 62.26277344 -23.40984375 61.90054688 -24.5546875 61.52734375 C-28.12720341 60.2924466 -31.65747765 58.97594457 -35.1875 57.625 C-36.62487845 57.10383132 -38.06235325 56.58292812 -39.5 56.0625 C-43.78697137 54.39130777 -47.98287373 52.49372279 -52.1875 50.625 C-52.1875 35.775 -52.1875 20.925 -52.1875 5.625 C-38.625 2.25 -38.625 2.25 -34.38842773 1.19775391 C-32.70922241 0.77888916 -32.70922241 0.77888916 -30.99609375 0.3515625 C-29.85970459 0.06877441 -28.72331543 -0.21401367 -27.55249023 -0.50537109 C-25.18847687 -1.11631324 -22.8391648 -1.78566591 -20.50341797 -2.49707031 C-13.59825286 -4.32529692 -6.70374631 -1.85735063 0 0 Z " fill="#43BAB9" transform="translate(551.1875,41.375)"/>
<path d="M0 0 C0.87567627 0.22333008 1.75135254 0.44666016 2.65356445 0.67675781 C5.16647371 1.32017432 7.6772968 1.97111657 10.1875 2.625 C12.02441406 3.10066406 12.02441406 3.10066406 13.8984375 3.5859375 C21.0421875 5.4796875 21.0421875 5.4796875 22.1875 6.625 C22.2802833 8.00660115 22.30497043 9.39288038 22.30102539 10.77758789 C22.30091209 12.09884422 22.30091209 12.09884422 22.30079651 13.4467926 C22.29563522 14.40407761 22.29047394 15.36136261 22.28515625 16.34765625 C22.2837413 17.32286728 22.28232635 18.29807831 22.28086853 19.30284119 C22.27525133 22.43109143 22.26269593 25.55927123 22.25 28.6875 C22.24498722 30.80273334 22.24042393 32.91796781 22.23632812 35.03320312 C22.22527631 40.23049296 22.20852146 45.42774145 22.1875 50.625 C20.10289483 51.42716194 18.01825222 52.2292266 15.93359375 53.03125 C14.7727124 53.47791016 13.61183105 53.92457031 12.41577148 54.38476562 C5.89257236 56.89084227 5.89257236 56.89084227 3.40625 57.796875 C1.56137349 58.48545567 -0.2684148 59.21429885 -2.09375 59.953125 C-16.42740796 65.52732532 -25.03749112 61.80153395 -38.8125 56.625 C-39.49296387 56.37459961 -40.17342773 56.12419922 -40.87451172 55.86621094 C-41.87828857 55.49544434 -41.87828857 55.49544434 -42.90234375 55.1171875 C-43.48749756 54.90175293 -44.07265137 54.68631836 -44.67553711 54.46435547 C-47.75046115 53.25658798 -50.77600035 51.92635699 -53.8125 50.625 C-53.8125 36.105 -53.8125 21.585 -53.8125 6.625 C-49.75673923 5.27307974 -45.79691998 4.03599929 -41.6796875 2.93359375 C-40.54402344 2.62873047 -39.40835937 2.32386719 -38.23828125 2.00976562 C-37.06652344 1.69716797 -35.89476562 1.38457031 -34.6875 1.0625 C-33.50800781 0.74603516 -32.32851563 0.42957031 -31.11328125 0.10351562 C-28.01408571 -0.72681492 -24.91484558 -1.55651704 -21.8125 -2.375 C-20.75349487 -2.67966187 -20.75349487 -2.67966187 -19.6730957 -2.99047852 C-13.42443749 -4.28186241 -6.03911437 -1.56332298 0 0 Z " fill="#45BCBA" transform="translate(470.8125,41.375)"/>
<path d="M0 0 C0 14.85 0 29.7 0 45 C-7.92 47.475 -7.92 47.475 -16 50 C-18.67766407 50.97016814 -21.34649445 51.96558258 -24 53 C-25.93480072 53.73629916 -27.87248658 54.46504709 -29.8125 55.1875 C-30.72644531 55.53167969 -31.64039063 55.87585938 -32.58203125 56.23046875 C-35 57 -35 57 -38 57 C-38 41.49 -38 25.98 -38 10 C-18.20895522 4.17910448 -18.20895522 4.17910448 -10.5625 2.1875 C-9.74974609 1.97158203 -8.93699219 1.75566406 -8.09960938 1.53320312 C-2.25396825 0 -2.25396825 0 0 0 Z " fill="#663E80" transform="translate(575,124)"/>
<path d="M0 0 C0 14.85 0 29.7 0 45 C-3.3 45.99 -6.6 46.98 -10 48 C-11.8915521 48.6935691 -13.78306012 49.38768429 -15.6640625 50.109375 C-18.8081921 51.30814013 -21.96383598 52.47187099 -25.125 53.625 C-26.86136719 54.26308594 -26.86136719 54.26308594 -28.6328125 54.9140625 C-32 56 -32 56 -38 57 C-38 41.49 -38 25.98 -38 10 C-3 0 -3 0 0 0 Z " fill="#653E7F" transform="translate(657,124)"/>
<path d="M0 0 C0 14.85 0 29.7 0 45 C-8.91 47.97 -8.91 47.97 -18 51 C-23.20811952 52.94142957 -23.20811952 52.94142957 -28.390625 54.94921875 C-31.85878859 56.3262837 -34.22159524 57 -38 57 C-38 41.49 -38 25.98 -38 10 C-34.101875 8.906875 -30.20375 7.81375 -26.1875 6.6875 C-24.98246826 6.34936279 -23.77743652 6.01122559 -22.53588867 5.6628418 C-19.35804253 4.772402 -16.17913369 3.88583117 -13 3 C-11.94119629 2.70303223 -10.88239258 2.40606445 -9.79150391 2.10009766 C-8.80456543 1.82601074 -7.81762695 1.55192383 -6.80078125 1.26953125 C-5.92204346 1.02436768 -5.04330566 0.7792041 -4.13793945 0.52661133 C-2 0 -2 0 0 0 Z " fill="#643C7E" transform="translate(493,124)"/>
<path d="M0 0 C0 14.52 0 29.04 0 44 C-14.54674221 49.59490085 -14.54674221 49.59490085 -20.3125 51.625 C-24.12620056 52.97126178 -27.91982567 54.34269298 -31.6875 55.8125 C-35 57 -35 57 -38 57 C-38 41.49 -38 25.98 -38 10 C-26.76754118 6.63026236 -26.76754118 6.63026236 -22.53515625 5.4296875 C-21.63345703 5.17316406 -20.73175781 4.91664062 -19.80273438 4.65234375 C-18.89845703 4.39582031 -17.99417969 4.13929687 -17.0625 3.875 C-15.21987688 3.3521796 -13.37742119 2.82876864 -11.53515625 2.3046875 C-10.734729 2.07765137 -9.93430176 1.85061523 -9.10961914 1.61669922 C-3.57917656 0 -3.57917656 0 0 0 Z " fill="#653D7F" transform="translate(657,48)"/>
<path d="M0 0 C0 14.52 0 29.04 0 44 C-16.48031496 50.33858268 -16.48031496 50.33858268 -21 52 C-22.72863281 52.64001953 -22.72863281 52.64001953 -24.4921875 53.29296875 C-25.7654504 53.75829054 -27.03888941 54.22313071 -28.3125 54.6875 C-29.50488281 55.12449219 -30.69726562 55.56148437 -31.92578125 56.01171875 C-35 57 -35 57 -38 57 C-38 41.49 -38 25.98 -38 10 C-29.24186953 7.49767701 -20.50109939 5.033497 -11.6875 2.75 C-10.66205078 2.481875 -9.63660156 2.21375 -8.58007812 1.9375 C-1.13157685 0 -1.13157685 0 0 0 Z " fill="#643C7E" transform="translate(493,48)"/>
<path d="M0 0 C0 14.52 0 29.04 0 44 C-6.32186483 46.37069931 -12.64752958 48.71401599 -19 51 C-19.7002832 51.25249512 -20.40056641 51.50499023 -21.12207031 51.76513672 C-23.43424565 52.59710607 -25.74815389 53.42409037 -28.0625 54.25 C-29.18869751 54.65569214 -29.18869751 54.65569214 -30.33764648 55.06958008 C-35.77102988 57 -35.77102988 57 -38 57 C-38 41.49 -38 25.98 -38 10 C-18.20895522 4.17910448 -18.20895522 4.17910448 -10.5625 2.1875 C-9.74974609 1.97158203 -8.93699219 1.75566406 -8.09960938 1.53320312 C-2.25396825 0 -2.25396825 0 0 0 Z " fill="#653E80" transform="translate(575,48)"/>
<path d="M0 0 C4.85602751 1.55962818 9.8036336 2.75346132 14.75390625 3.97265625 C16.10790527 4.30656372 16.10790527 4.30656372 17.48925781 4.6472168 C19.63929758 5.17519862 21.78994458 5.70050375 23.94140625 6.22265625 C19.62172629 9.10244289 14.93699473 10.18018796 9.97753906 11.62109375 C7.78879991 12.26774282 5.61193913 12.94811551 3.43359375 13.62890625 C-11.89970433 18.31274212 -11.89970433 18.31274212 -20.05859375 16.22265625 C-21.18265625 15.94679688 -22.30671875 15.6709375 -23.46484375 15.38671875 C-26.66786166 14.55949305 -29.85399327 13.68887347 -33.03710938 12.78857422 C-36.51412475 11.81517789 -40.0058183 10.89713017 -43.49609375 9.97265625 C-46.77734375 9.09765625 -46.77734375 9.09765625 -50.05859375 8.22265625 C-47.59416037 5.25698218 -45.4376214 4.5569014 -41.7265625 3.6875 C-40.68048828 3.43548828 -39.63441406 3.18347656 -38.55664062 2.92382812 C-37.46416016 2.67181641 -36.37167969 2.41980469 -35.24609375 2.16015625 C-33.09325817 1.65051062 -30.94089808 1.13885147 -28.7890625 0.625 C-27.78335205 0.38587891 -26.7776416 0.14675781 -25.74145508 -0.09960938 C-15.45198281 -2.6988973 -10.23729044 -3.37214172 0 0 Z " fill="#5DAB45" transform="translate(632.05859375,40.77734375)"/>
<path d="M0 0 C4.49503818 1.36850079 9.04264245 2.31777055 13.6484375 3.234375 C16.53270517 4.0740985 18.10115487 5.1981209 20.42578125 7.04296875 C19.64452881 7.2445459 18.86327637 7.44612305 18.05834961 7.65380859 C14.49308685 8.57426866 10.92818166 9.49610636 7.36328125 10.41796875 C6.13416016 10.73507813 4.90503906 11.0521875 3.63867188 11.37890625 C2.44306641 11.68828125 1.24746094 11.99765625 0.015625 12.31640625 C-1.14598145 12.61385742 -2.30758789 12.91130859 -3.50439453 13.21777344 C-5.8016134 13.83528575 -8.0709917 14.55802096 -10.3203125 15.33203125 C-18.70191616 17.163306 -27.24029057 14.30873545 -35.32421875 12.10546875 C-36.32582031 11.84056641 -37.32742188 11.57566406 -38.359375 11.30273438 C-43.15153355 10.02376756 -47.89282757 8.69100952 -52.57421875 7.04296875 C-52.57421875 6.38296875 -52.57421875 5.72296875 -52.57421875 5.04296875 C-51.89955566 4.87692139 -51.22489258 4.71087402 -50.52978516 4.53979492 C-47.41895393 3.77259848 -44.30908778 3.00155585 -41.19921875 2.23046875 C-39.60787109 1.83891602 -39.60787109 1.83891602 -37.984375 1.43945312 C-32.16940359 -0.00537106 -26.43407847 -1.55281338 -20.73901367 -3.41894531 C-13.70182731 -5.16812302 -6.63485987 -2.15964299 0 0 Z " fill="#5EAC46" transform="translate(552.57421875,117.95703125)"/>
<path d="M0 0 C5.68658401 1.74034225 11.3617499 3.09344561 17.1940918 4.27001953 C17.9675293 4.49302734 18.7409668 4.71603516 19.5378418 4.94580078 C20.0328418 5.93580078 20.0328418 5.93580078 20.5378418 6.94580078 C19.86841553 7.11184814 19.19898926 7.27789551 18.50927734 7.44897461 C15.41430835 8.2174524 12.31982456 8.98786746 9.2253418 9.75830078 C8.17282227 10.01933594 7.12030273 10.28037109 6.03588867 10.54931641 C4.98852539 10.81035156 3.94116211 11.07138672 2.86206055 11.34033203 C1.80422363 11.60152832 0.74638672 11.86272461 -0.34350586 12.13183594 C-2.36096838 12.65839144 -4.36778715 13.22843764 -6.3581543 13.84960938 C-18.15977295 17.50214487 -28.04219378 14.20077022 -39.5871582 10.88330078 C-40.93850413 10.50167368 -42.29006554 10.12080874 -43.6418457 9.74072266 C-46.91747332 8.81652772 -50.19073051 7.88473307 -53.4621582 6.94580078 C-53.4621582 6.28580078 -53.4621582 5.62580078 -53.4621582 4.94580078 C-52.64537598 4.74422363 -51.82859375 4.54264648 -50.98706055 4.33496094 C-47.93384408 3.58021866 -44.88117737 2.82330053 -41.82885742 2.06494141 C-40.51201383 1.73823248 -39.19495955 1.41237151 -37.87768555 1.08740234 C-35.97559249 0.61799861 -34.07433566 0.14521052 -32.1730957 -0.32763672 C-31.03146973 -0.6104248 -29.88984375 -0.89321289 -28.71362305 -1.18457031 C-25.44913558 -2.01423624 -25.44913558 -2.01423624 -22.28100586 -3.16601562 C-14.91841828 -5.48587476 -7.09036246 -2.1769549 0 0 Z " fill="#5EAC46" transform="translate(635.462158203125,118.05419921875)"/>
<path d="M0 0 C2.08668282 0.59149803 4.17811796 1.16642757 6.2734375 1.7265625 C8.00400391 2.190625 8.00400391 2.190625 9.76953125 2.6640625 C10.95933594 2.98117188 12.14914062 3.29828125 13.375 3.625 C15.19451172 4.11226563 15.19451172 4.11226563 17.05078125 4.609375 C20.03342302 5.40787752 23.01650364 6.20469765 26 7 C26 7.66 26 8.32 26 9 C20.79337521 10.49433974 15.58552797 11.98416522 10.375 13.46484375 C7.38947633 14.3138005 4.41112882 15.17627394 1.4375 16.06640625 C0.53 16.33324219 -0.3775 16.60007813 -1.3125 16.875 C-2.05113281 17.09929687 -2.78976562 17.32359375 -3.55078125 17.5546875 C-11.07142501 18.92207727 -17.20412806 17.38552814 -24.375 15.1875 C-25.25671875 14.92646484 -26.1384375 14.66542969 -27.046875 14.39648438 C-29.70125956 13.60834233 -32.35076275 12.80525552 -35 12 C-36.88781013 11.43289189 -38.77582214 10.86645523 -40.6640625 10.30078125 C-42.109375 9.8671875 -43.5546875 9.43359375 -45 9 C-42.45341262 5.87933279 -39.9681404 5.19932462 -36.125 4.2109375 C-34.97515625 3.90929687 -33.8253125 3.60765625 -32.640625 3.296875 C-31.43921875 2.99265625 -30.2378125 2.6884375 -29 2.375 C-26.62487761 1.75828367 -24.24987203 1.14111722 -21.875 0.5234375 C-20.82054687 0.25450684 -19.76609375 -0.01442383 -18.6796875 -0.29150391 C-11.6012822 -2.16299919 -7.01973637 -2.43386999 0 0 Z " fill="#5EAC46" transform="translate(465,116)"/>
<path d="M0 0 C0.87495117 0.22260498 1.74990234 0.44520996 2.65136719 0.67456055 C8.84805326 2.25819639 15.03174485 3.88839935 21.1875 5.625 C21.1875 6.285 21.1875 6.945 21.1875 7.625 C20.37071777 7.82657715 19.55393555 8.0281543 18.71240234 8.23583984 C15.65918588 8.99058212 12.60651917 9.74750025 9.55419922 10.50585938 C8.23735563 10.8325683 6.92030135 11.15842927 5.60302734 11.48339844 C3.70093429 11.95280217 1.79967745 12.42559026 -0.1015625 12.8984375 C-1.81400146 13.32261963 -1.81400146 13.32261963 -3.56103516 13.75537109 C-5.75371849 14.34182086 -7.92790491 15.00163781 -10.07836914 15.7277832 C-16.43493476 17.81371754 -22.96029094 15.74695115 -29.0390625 13.51953125 C-33.63230113 12.03805006 -38.34304615 11.04109815 -43.04907227 9.9831543 C-48.62362246 8.71943877 -48.62362246 8.71943877 -50.8125 7.625 C-50.8125 6.965 -50.8125 6.305 -50.8125 5.625 C-43.10914445 3.10875795 -35.33561154 0.87591642 -27.5 -1.1875 C-26.66500977 -1.41848389 -25.83001953 -1.64946777 -24.96972656 -1.88745117 C-16.0886124 -4.17124185 -8.67727479 -2.2456389 0 0 Z " fill="#5CAB45" transform="translate(470.8125,41.375)"/>
<path d="M0 0 C7.57184547 2.04846852 15.15178831 3.93331681 22.8125 5.625 C21.8125 7.625 21.8125 7.625 19.65454102 8.35522461 C18.24966431 8.68792358 18.24966431 8.68792358 16.81640625 9.02734375 C15.26469727 9.40342773 15.26469727 9.40342773 13.68164062 9.78710938 C12.59044922 10.04298828 11.49925781 10.29886719 10.375 10.5625 C8.25073988 11.0692637 6.12703409 11.57835701 4.00390625 12.08984375 C2.43406982 12.46278564 2.43406982 12.46278564 0.83251953 12.84326172 C-1.95489992 13.56479099 -4.62689133 14.44252873 -7.34765625 15.37890625 C-16.65603903 18.19751064 -25.52572976 14.8991692 -34.5 12.125 C-36.59971745 11.48779141 -38.69996 10.85230997 -40.80078125 10.21875 C-41.71641846 9.93708984 -42.63205566 9.65542969 -43.57543945 9.36523438 C-46.09937425 8.64997404 -48.60901541 8.10222771 -51.1875 7.625 C-48.72939192 4.672498 -46.58796701 3.96186432 -42.890625 3.08984375 C-41.8490625 2.83783203 -40.8075 2.58582031 -39.734375 2.32617188 C-38.64640625 2.07416016 -37.5584375 1.82214844 -36.4375 1.5625 C-34.29664799 1.05173182 -32.15601701 0.54003617 -30.015625 0.02734375 C-28.99919922 -0.21000488 -27.98277344 -0.44735352 -26.93554688 -0.69189453 C-24.73797164 -1.23816457 -22.5716798 -1.90969569 -20.421875 -2.62109375 C-13.50290085 -4.2338498 -6.68268784 -1.85102179 0 0 Z " fill="#5DAB45" transform="translate(551.1875,41.375)"/>
<path d="M0 0 C0.33 0 0.66 0 1 0 C1 11.22 1 22.44 1 34 C11.23 34 21.46 34 32 34 C32.33 34.99 32.66 35.98 33 37 C32.154375 37.25394531 31.30875 37.50789063 30.4375 37.76953125 C23.46260824 39.88577682 16.64342001 42.13579086 9.87890625 44.8515625 C6.32600379 46.24664714 3.86861316 47 0 47 C0 31.49 0 15.98 0 0 Z " fill="#674886" transform="translate(455,134)"/>
<path d="M0 0 C0.33 0 0.66 0 1 0 C1 15.51 1 31.02 1 47 C1.99 47.495 1.99 47.495 3 48 C-1.51474527 47.52971403 -5.30808712 46.65176515 -9.5546875 44.953125 C-13.89687981 43.2606411 -18.32399534 41.79703799 -22.73046875 40.28125 C-25.74356414 39.10049099 -28.3250827 37.81350326 -31 36 C-31 35.67 -31 35.34 -31 35 C-21.1 35 -11.2 35 -1 35 C-0.67 23.45 -0.34 11.9 0 0 Z " fill="#4CB5B9" transform="translate(536,134)"/>
<path d="M0 0 C0.33 0 0.66 0 1 0 C1 11.55 1 23.1 1 35 C10.12487435 34.9208726 10.12487435 34.9208726 19.24951172 34.81982422 C20.38146973 34.8148291 21.51342773 34.80983398 22.6796875 34.8046875 C23.84226074 34.79421387 25.00483398 34.78374023 26.20263672 34.77294922 C29 35 29 35 31 37 C24.875 39.1875 24.875 39.1875 22.98510742 39.86010742 C19.67078883 41.0406804 16.3608689 42.23142291 13.05859375 43.4453125 C11.82238281 43.89648438 10.58617187 44.34765625 9.3125 44.8125 C8.17425781 45.23144531 7.03601563 45.65039062 5.86328125 46.08203125 C3 47 3 47 0 47 C0 31.49 0 15.98 0 0 Z " fill="#664885" transform="translate(455,58)"/>
<path d="M0 0 C0.763125 0.061875 1.52625 0.12375 2.3125 0.1875 C2.3125 1.1775 2.3125 2.1675 2.3125 3.1875 C2.6425 3.8475 2.9725 4.5075 3.3125 5.1875 C-1.1425 4.1975 -1.1425 4.1975 -5.6875 3.1875 C-2.6875 0.1875 -2.6875 0.1875 0 0 Z " fill="#63B35F" transform="translate(587.6875,45.8125)"/>
</svg>
